<?xml version="1.0" encoding="utf-8"?>
<!-- Generator: Adobe Illustrator 21.1.0, SVG Export Plug-In . SVG Version: 6.00 Build 0)  -->
<svg version="1.1" id="Layer_1" xmlns="http://www.w3.org/2000/svg" xmlns:xlink="http://www.w3.org/1999/xlink" x="0px" y="0px"
	 viewBox="0 0 400 400" style="enable-background:new 0 0 400 400;" xml:space="preserve">
<style type="text/css">
	.st0{fill-rule:evenodd;clip-rule:evenodd;fill:#c9c9c9;}
</style>
<g>
	<polygon class="st0" points="118.8,316 121.1,308.8 115,313.2 	"/>
	<path class="st0" d="M183.3,334.8c-0.3-0.6-0.7-1-1.3-1.4c-0.5-0.4-1.2-0.6-1.9-0.7c-0.8-0.1-1.5-0.1-2.1,0.1
		c-0.6,0.2-1.2,0.5-1.6,0.9c-0.5,0.4-0.8,1-1.1,1.6c-0.3,0.6-0.5,1.4-0.6,2.1c-0.1,0.8-0.1,1.5-0.1,2.2c0.1,0.7,0.3,1.3,0.6,1.9
		c0.3,0.6,0.7,1,1.3,1.4c0.5,0.4,1.2,0.6,1.9,0.7c0.8,0.1,1.5,0.1,2.1-0.1c0.6-0.2,1.2-0.5,1.6-0.9c0.5-0.4,0.8-1,1.1-1.6
		c0.3-0.6,0.5-1.4,0.6-2.1c0.1-0.8,0.1-1.5,0.1-2.2C183.8,336,183.6,335.4,183.3,334.8z"/>
	<path class="st0" d="M259.7,321.5c-0.7-0.1-1.6,0.1-2.5,0.6l-1.2,0.6l2.1,4.5l0.9-0.4c1-0.5,1.8-1.1,2.2-1.8
		c0.4-0.7,0.5-1.4,0.1-2.2C261,321.9,260.5,321.5,259.7,321.5z"/>
	<path class="st0" d="M161.8,328.9l-1.3-0.4l-1.4,4.8l1,0.3c1.1,0.3,2,0.4,2.8,0.1c0.8-0.2,1.3-0.8,1.6-1.6c0.2-0.8,0.1-1.4-0.4-2
		C163.5,329.6,162.8,329.2,161.8,328.9z"/>
	<path class="st0" d="M243.8,74.9c0.4,0.5,1,0.8,1.7,1.1c0.7,0.3,1.4,0.4,2,0.3c0.6-0.1,1.2-0.3,1.7-0.6c0.5-0.3,1-0.8,1.4-1.4
		c0.4-0.6,0.7-1.2,1-2c0.3-0.7,0.4-1.5,0.5-2.1c0-0.7,0-1.3-0.2-1.9c-0.2-0.6-0.5-1.1-1-1.6c-0.4-0.5-1-0.8-1.7-1.1
		c-0.7-0.3-1.4-0.4-2-0.3c-0.6,0.1-1.2,0.3-1.7,0.6c-0.5,0.3-1,0.8-1.4,1.4c-0.4,0.6-0.7,1.2-1,2c-0.3,0.7-0.4,1.5-0.5,2.1
		c-0.1,0.7,0,1.3,0.2,1.9C243,73.9,243.4,74.4,243.8,74.9z"/>
	<polygon class="st0" points="81.8,116.5 86.1,122.6 88.9,118.8 	"/>
	<polygon class="st0" points="177.6,59 176.3,66.4 181,65.7 	"/>
	<path class="st0" d="M132.4,78.3c0.4-0.7,0.4-1.4,0-2.2c-0.4-0.7-0.9-1.1-1.7-1.1c-0.7,0-1.5,0.2-2.4,0.7l-1.2,0.7l2.3,4.3l0.9-0.5
		C131.3,79.6,132,79,132.4,78.3z"/>
	<path class="st0" d="M82.1,270.8c0.5-0.5,0.9-1,1.1-1.6c0.2-0.6,0.4-1.2,0.3-1.8c0-0.6-0.2-1.3-0.6-2c-0.4-0.7-0.8-1.2-1.4-1.6
		c-0.5-0.4-1.1-0.6-1.7-0.7c-0.6-0.1-1.3-0.1-2,0.1c-0.7,0.2-1.4,0.4-2.1,0.8c-0.7,0.4-1.3,0.8-1.8,1.3c-0.5,0.5-0.9,1-1.1,1.6
		c-0.2,0.6-0.4,1.2-0.3,1.8c0,0.6,0.2,1.3,0.6,2c0.4,0.7,0.8,1.2,1.4,1.6c0.5,0.4,1.1,0.6,1.7,0.7c0.6,0.1,1.3,0.1,2-0.1
		c0.7-0.2,1.4-0.4,2.1-0.8C81,271.8,81.6,271.3,82.1,270.8z"/>
	<path class="st0" d="M306.9,294.5c-0.4-0.6-0.8-1.2-1.4-1.7c-0.6-0.5-1.2-1-1.8-1.3c-0.6-0.3-1.3-0.5-1.9-0.6
		c-0.6-0.1-1.2,0-1.9,0.2c-0.6,0.2-1.2,0.6-1.7,1.2c-0.5,0.6-0.9,1.2-1.1,1.8c-0.2,0.6-0.2,1.2-0.1,1.9c0.1,0.6,0.3,1.2,0.7,1.8
		c0.4,0.6,0.8,1.2,1.4,1.7c0.6,0.5,1.2,1,1.8,1.3c0.6,0.3,1.3,0.5,1.9,0.6c0.6,0.1,1.2,0,1.9-0.2c0.6-0.2,1.2-0.6,1.7-1.2
		c0.5-0.6,0.9-1.2,1.1-1.8c0.2-0.6,0.2-1.2,0.1-1.9C307.5,295.7,307.2,295.1,306.9,294.5z"/>
	<path class="st0" d="M200.2,43.5c-86.6,0-156.8,70.2-156.8,156.7c0,86.6,70.2,156.7,156.8,156.7c86.6,0,156.8-70.2,156.8-156.7
		C357,113.7,286.8,43.5,200.2,43.5z M324.8,122.3l-2.1,1.5l-3.5-5l-3.1,2.2l3.3,4.8l-2.1,1.5l-3.3-4.8l-3.3,2.3l3.5,5l-2.1,1.5
		l-5.4-7.7l12.8-9L324.8,122.3z M322,200.4c0,67.2-54.5,121.6-121.6,121.6S78.7,267.5,78.7,200.4c0-67.2,54.5-121.6,121.6-121.6
		S322,133.2,322,200.4z M304.9,100.8c1,0,2.1,0.3,3.1,0.8c1,0.5,2,1.2,2.9,2.2c0.6,0.7,1.2,1.4,1.6,2.1c0.4,0.7,0.8,1.4,1.1,2.2
		l-2.2,1.4c-0.3-0.7-0.6-1.4-0.9-2c-0.4-0.6-0.8-1.2-1.3-1.8c-0.6-0.6-1.2-1.1-1.8-1.4c-0.6-0.3-1.3-0.5-1.9-0.6
		c-0.7,0-1.4,0.1-2.1,0.4c-0.7,0.3-1.4,0.8-2.1,1.4c-1.3,1.2-2,2.4-2,3.7c-0.1,1.3,0.5,2.6,1.8,3.9c0.3,0.3,0.5,0.5,0.8,0.8
		c0.3,0.2,0.6,0.5,0.9,0.6l3.4-3.1l2,2.2l-4.7,4.3c-0.7-0.3-1.5-0.8-2.3-1.4c-0.8-0.6-1.5-1.3-2.2-2c-0.9-1-1.5-1.9-1.9-3
		c-0.4-1-0.6-2-0.6-3c0-1,0.3-2,0.7-2.9c0.5-0.9,1.1-1.8,2-2.6c0.9-0.8,1.9-1.5,2.9-1.9C302.9,100.9,303.9,100.8,304.9,100.8z
		 M292.2,86.7l7.2,6l-1.7,2l-4.7-3.9l-2.4,2.9l4.5,3.7l-1.7,2l-4.5-3.7l-2.6,3.1l4.7,4l-1.7,2l-7.2-6.1L292.2,86.7z M278.8,77.3
		l2.7,1.8L274.4,90l4.8,3.2l-1.4,2.2l-7.6-5L278.8,77.3z M264.6,69.5l2.9,1.5l-6,11.6l5.2,2.7l-1.2,2.3l-8.1-4.2L264.6,69.5z
		 M240,68.1c0.4-1,0.9-2,1.5-2.8c0.7-0.8,1.4-1.4,2.3-1.9c0.9-0.5,1.9-0.7,2.9-0.8c1.1-0.1,2.2,0.1,3.4,0.5c1.2,0.4,2.2,1,2.9,1.7
		c0.8,0.7,1.4,1.6,1.7,2.5c0.4,0.9,0.6,1.9,0.6,2.9c0,1-0.2,2.1-0.6,3.1c-0.4,1-0.9,2-1.6,2.8c-0.7,0.8-1.4,1.4-2.3,1.9
		c-0.9,0.5-1.8,0.7-2.9,0.8c-1.1,0.1-2.2-0.1-3.4-0.5c-1.2-0.4-2.2-1-2.9-1.7c-0.8-0.7-1.4-1.6-1.7-2.5c-0.4-0.9-0.6-1.9-0.6-2.9
		C239.4,70.2,239.6,69.2,240,68.1z M221.8,64.1c0.2-1.1,0.6-2.2,1.2-3.1c0.5-0.9,1.2-1.6,2.1-2.2c0.8-0.6,1.8-0.9,2.9-1.1
		c1.1-0.2,2.3-0.2,3.6,0.1c0.4,0.1,0.8,0.2,1.2,0.3c0.4,0.1,0.8,0.3,1.1,0.4c0.4,0.1,0.7,0.3,1,0.5c0.3,0.2,0.6,0.3,0.9,0.5
		l-0.9,2.3c-0.5-0.3-1-0.5-1.5-0.8c-0.6-0.2-1.2-0.4-1.7-0.5c-1.7-0.4-3.2-0.2-4.3,0.5c-1.1,0.7-1.8,2-2.2,3.7
		c-0.4,1.8-0.2,3.2,0.6,4.3c0.7,1.1,2,1.8,3.7,2.2c0.6,0.1,1.2,0.2,1.8,0.2c0.6,0,1.2,0,1.7-0.1l0,2.4c-0.3,0.1-0.6,0.1-1,0.2
		c-0.4,0-0.7,0-1.1,0c-0.4,0-0.8,0-1.2-0.1c-0.4,0-0.8-0.1-1.2-0.2c-1.3-0.3-2.4-0.7-3.4-1.3c-0.9-0.6-1.7-1.3-2.2-2.2
		c-0.5-0.8-0.9-1.8-1.1-2.8C221.5,66.3,221.5,65.2,221.8,64.1z M195.4,54.8l7.5,10.1l-0.2-10.2l3.1-0.1l0.3,15.6l-3.1,0.1l-7.5-10.1
		l0.2,10.2l-3.1,0.1l-0.3-15.6L195.4,54.8z M175.4,56.6l3.5-0.5l8.2,14.6l-3.4,0.5l-1.6-3.1l-6.4,1l-0.6,3.4l-3.4,0.5L175.4,56.6z
		 M152.4,67c0.1-1,0.3-2,0.8-2.9c0.5-0.9,1.1-1.7,2-2.4c0.9-0.7,2-1.2,3.2-1.6c0.4-0.1,0.8-0.2,1.2-0.3c0.4-0.1,0.8-0.1,1.2-0.2
		c0.4,0,0.8-0.1,1.1-0.1c0.4,0,0.7,0,1,0.1l0.2,2.4c-0.5,0-1.1,0-1.7,0c-0.6,0.1-1.2,0.2-1.8,0.3c-1.7,0.5-2.9,1.3-3.5,2.5
		c-0.6,1.2-0.7,2.6-0.2,4.3c0.5,1.7,1.4,2.9,2.5,3.5c1.2,0.6,2.6,0.7,4.3,0.2c0.6-0.2,1.1-0.4,1.7-0.7c0.6-0.3,1-0.6,1.5-0.9
		l1.1,2.2c-0.2,0.2-0.5,0.4-0.8,0.6c-0.3,0.2-0.6,0.4-1,0.6c-0.3,0.2-0.7,0.3-1.1,0.5c-0.4,0.2-0.8,0.3-1.1,0.4
		c-1.3,0.4-2.5,0.5-3.6,0.4c-1.1-0.1-2.1-0.4-3-0.9c-0.9-0.5-1.6-1.2-2.3-2c-0.6-0.8-1.1-1.8-1.4-2.9
		C152.5,69.2,152.3,68.1,152.4,67z M143.5,65.6l6,14.4l-3,1.3l-6-14.4L143.5,65.6z M127.1,73.5c0.9-0.5,1.7-0.8,2.5-1
		c0.8-0.2,1.6-0.3,2.3-0.2c0.7,0.1,1.3,0.3,1.9,0.6c0.6,0.4,1.1,0.9,1.4,1.6c0.5,1,0.7,1.9,0.5,2.9c-0.2,1-0.7,1.9-1.5,2.8l7.7,3
		l-3.6,2l-6.7-2.8l-0.9,0.5l2.7,5l-2.9,1.6L123,75.7L127.1,73.5z M116.1,80.1l1.5,2.1l-4.9,3.6l2.2,3.1l4.7-3.4l1.5,2.1l-4.7,3.4
		l2.4,3.3l5-3.6l1.5,2.1l-7.7,5.5l-9.2-12.7L116.1,80.1z M92.1,100.3l10.5,3.9L99,93.6l2.1-2.1l11.7,10.4l-2.3,2.2l-7.2-6.6l2.5,7.5
		l-2.4,2.4l-7.4-2.7l6.4,7.3l-2.3,2.2l-10.1-12L92.1,100.3z M80.8,113.5l16.1,4.6l-2,2.7l-3.3-1.1l-3.8,5.2l2,2.8l-2,2.7l-9-14.1
		L80.8,113.5z M75.9,276.1c-1-0.2-1.9-0.7-2.8-1.3c-0.9-0.7-1.6-1.5-2.2-2.6c-0.6-1.1-1-2.2-1.1-3.3c-0.1-1.1,0-2.1,0.3-3.1
		c0.3-1,0.8-1.8,1.5-2.6c0.7-0.8,1.5-1.5,2.5-2c1-0.5,2-0.9,3-1.1c1-0.2,2.1-0.2,3,0.1c1,0.2,1.9,0.7,2.8,1.3
		c0.9,0.7,1.6,1.5,2.2,2.6c0.6,1.1,1,2.2,1.1,3.3c0.1,1.1,0,2.1-0.3,3c-0.3,1-0.8,1.8-1.5,2.6c-0.7,0.8-1.5,1.5-2.5,2
		c-1,0.6-2,0.9-3,1.1C77.9,276.3,76.9,276.3,75.9,276.1z M91.2,285.9l-2.1,1.6l-3.5-4.8l-5.1,3.7l-2-2.7l12.8-9.4l5.7,7.7l-2.1,1.6
		l-3.7-5l-3.4,2.5L91.2,285.9z M101.2,309.7c-0.9-0.6-1.7-1.2-2.4-1.9c-1-0.9-1.7-1.9-2.2-2.9c-0.5-1-0.7-2-0.8-3c0-1,0.1-2,0.5-3
		c0.4-1,1-1.9,1.8-2.7c0.9-0.9,1.8-1.6,2.8-2.1c1-0.5,2-0.7,3.1-0.8c1,0,2.1,0.2,3.1,0.6c1,0.4,2.1,1.1,3.1,2.1
		c0.7,0.7,1.3,1.3,1.8,2c0.5,0.7,0.9,1.4,1.2,2.2l-2.1,1.5c-0.3-0.7-0.7-1.3-1.1-1.9c-0.4-0.6-0.9-1.2-1.5-1.7
		c-0.6-0.6-1.3-1-1.9-1.3c-0.7-0.3-1.3-0.4-2-0.4c-0.7,0-1.4,0.2-2.1,0.5c-0.7,0.3-1.4,0.9-2,1.6c-1.2,1.3-1.8,2.6-1.8,3.9
		c0,1.3,0.7,2.6,2,3.9c0.3,0.3,0.6,0.5,0.9,0.7c0.3,0.2,0.6,0.4,0.9,0.6l3.2-3.4l2.2,2.1l-4.5,4.7
		C102.8,310.6,102,310.2,101.2,309.7z M119.7,324.1l-2.8-2l1.1-3.4l-5.3-3.8l-2.9,2l-2.8-2l14.2-9.3l2.9,2.1L119.7,324.1z
		 M138.2,320.1c-0.4-0.5-0.8-1-1.2-1.4c-0.5-0.4-1-0.8-1.5-1.1c-0.6-0.3-1.2-0.5-1.7-0.5c-0.5,0-0.9,0.3-1.2,0.8
		c-0.1,0.2-0.2,0.4-0.2,0.6c0,0.2,0,0.4,0.1,0.7c0.1,0.2,0.2,0.5,0.4,0.8c0.2,0.3,0.4,0.7,0.8,1.1c0.4,0.5,0.8,1.1,1.2,1.6
		c0.4,0.5,0.6,1.1,0.8,1.7c0.2,0.6,0.3,1.1,0.3,1.7c0,0.6-0.2,1.2-0.5,1.8c-0.3,0.6-0.8,1.1-1.3,1.5c-0.5,0.4-1.1,0.6-1.8,0.7
		c-0.7,0.1-1.4,0.1-2.1,0c-0.8-0.1-1.5-0.4-2.3-0.9c-0.7-0.4-1.4-0.9-2.1-1.5c-0.7-0.6-1.2-1.2-1.7-1.8l1.8-1.9
		c0.4,0.5,0.8,1,1.3,1.5c0.5,0.5,1.1,0.9,1.8,1.3c0.7,0.4,1.3,0.6,1.9,0.5c0.6,0,1-0.3,1.3-0.9c0.3-0.5,0.3-1,0.1-1.6
		c-0.2-0.6-0.7-1.2-1.4-2.1c-0.5-0.6-0.9-1.2-1.2-1.7c-0.3-0.5-0.5-1.1-0.7-1.6c-0.1-0.5-0.2-1-0.1-1.5c0.1-0.5,0.2-1,0.5-1.5
		c0.7-1.3,1.7-2,2.9-2.2c1.2-0.2,2.6,0.1,4.1,0.9c0.7,0.4,1.4,0.9,1.9,1.4c0.5,0.5,1,1,1.4,1.7L138.2,320.1z M149.6,324.6l-5.1,12.2
		l-3.1-1.3l5.1-12.2l-4-1.7l1-2.4l11.1,4.7l-1,2.4L149.6,324.6z M167.7,332.9c-0.3,1.1-0.9,1.9-1.7,2.5c-0.8,0.6-1.9,0.9-3.1,0.9
		l3.4,7.6l-4-1.2l-2.8-6.8l-1-0.3l-1.6,5.6l-3.2-0.9l4.4-15.2l4.5,1.3c0.9,0.3,1.8,0.6,2.5,1c0.7,0.4,1.3,0.9,1.8,1.5
		c0.5,0.6,0.8,1.2,0.9,1.8C167.9,331.4,167.9,332.2,167.7,332.9z M187.1,339.5c-0.2,1.1-0.5,2.1-1,3.1c-0.5,0.9-1.1,1.7-1.9,2.3
		c-0.8,0.6-1.7,1.1-2.7,1.4c-1,0.3-2.2,0.3-3.4,0.1c-1.3-0.2-2.3-0.6-3.3-1.2c-0.9-0.6-1.7-1.3-2.2-2.1c-0.6-0.8-0.9-1.8-1.1-2.8
		c-0.2-1-0.2-2.1,0-3.2c0.2-1.1,0.5-2.1,1-3c0.5-0.9,1.1-1.7,1.9-2.4c0.8-0.6,1.7-1.1,2.7-1.4c1-0.3,2.2-0.3,3.5-0.1
		c1.3,0.2,2.3,0.6,3.3,1.2c0.9,0.6,1.6,1.3,2.2,2.1c0.6,0.8,0.9,1.8,1.1,2.8C187.3,337.3,187.3,338.4,187.1,339.5z M201.7,334.7
		l-6.2-0.2l-0.1,3.8l5.9,0.2l-0.1,2.6l-5.9-0.2l-0.1,4.1l6.3,0.2l-0.1,2.6l-9.6-0.3l0.4-15.8l9.5,0.3L201.7,334.7z M218.2,346.8
		l-8.3-9.6l1,10.3l-3.2,0.3l-1.5-15.8l3.2-0.3l8.3,9.6l-1-10.3l3.2-0.3l1.5,15.8L218.2,346.8z M234.3,343.9l-3.3,0.7l-2.9-12.9
		l-4.3,0.9l-0.6-2.6l11.8-2.6l0.6,2.6l-4.3,0.9L234.3,343.9z M243.8,341.4l-5.1-15l9-3.1l0.8,2.5l-5.9,2l1.2,3.6l5.6-1.9l0.8,2.5
		l-5.6,1.9l1.3,3.9l5.9-2l0.8,2.5L243.8,341.4z M266.8,332.2l-6.6-3.3l-1,0.5l2.5,5.2l-3,1.4l-6.8-14.3l4.3-2
		c0.9-0.4,1.7-0.7,2.6-0.9c0.8-0.2,1.6-0.2,2.3-0.1c0.7,0.1,1.3,0.4,1.9,0.8c0.6,0.4,1,1,1.4,1.7c0.5,1,0.6,2,0.4,3
		c-0.2,1-0.8,1.9-1.7,2.8l7.6,3.5L266.8,332.2z M284.6,319.2c-0.2,1-0.5,1.9-1.1,2.8c-0.6,0.9-1.4,1.7-2.5,2.4
		c-1.1,0.7-2.1,1.1-3.2,1.3c-1.1,0.2-2.1,0.1-3.1-0.1c-1-0.3-1.9-0.7-2.7-1.3c-0.8-0.6-1.6-1.4-2.2-2.4c-0.6-0.9-1-1.9-1.3-2.9
		c-0.2-1-0.3-2-0.1-3c0.2-1,0.6-1.9,1.1-2.9c0.6-0.9,1.4-1.7,2.5-2.4c1.1-0.7,2.1-1.1,3.2-1.3c1.1-0.2,2.1-0.1,3.1,0.1
		c1,0.3,1.9,0.7,2.7,1.4c0.8,0.6,1.6,1.4,2.2,2.4c0.6,0.9,1,1.9,1.3,3C284.7,317.2,284.8,318.2,284.6,319.2z M292.1,316.1L282,304
		l2.6-2.1L293,312l4.5-3.8l1.7,2L292.1,316.1z M310.1,298.9c-0.4,1-1,2-1.9,2.9c-0.9,0.9-1.8,1.6-2.8,2c-1,0.4-2,0.6-3,0.6
		c-1,0-2-0.2-3-0.7c-1-0.4-1.8-1-2.7-1.8c-0.8-0.8-1.5-1.6-1.9-2.6c-0.5-0.9-0.8-1.9-0.8-2.9c-0.1-1,0.1-2,0.4-3c0.4-1,1-2,1.9-2.9
		c0.9-0.9,1.8-1.6,2.8-2c1-0.4,2-0.6,3-0.6c1,0,2,0.3,3,0.7c1,0.4,1.9,1,2.7,1.8c0.8,0.8,1.5,1.6,1.9,2.6c0.5,0.9,0.7,1.9,0.8,2.9
		C310.6,296.8,310.5,297.8,310.1,298.9z M323.4,282.5c-0.4,0.9-0.9,1.8-1.5,2.6c-0.8,1.1-1.6,1.9-2.5,2.5c-0.9,0.6-1.9,1-2.9,1.2
		c-1,0.2-2,0.1-3-0.1c-1-0.3-2-0.7-3-1.4c-1-0.7-1.8-1.6-2.5-2.5s-1-1.9-1.2-2.9c-0.2-1-0.1-2.1,0.2-3.2c0.3-1.1,0.8-2.2,1.6-3.3
		c0.6-0.8,1.1-1.5,1.7-2c0.6-0.6,1.3-1.1,2-1.5l1.8,1.9c-0.6,0.4-1.2,0.8-1.8,1.3c-0.5,0.5-1,1-1.5,1.7c-0.5,0.7-0.9,1.4-1.1,2.1
		c-0.2,0.7-0.3,1.4-0.1,2c0.1,0.7,0.4,1.3,0.8,2c0.4,0.6,1.1,1.2,1.8,1.8c1.5,1,2.8,1.5,4.1,1.3c1.3-0.2,2.5-1.1,3.5-2.6
		c0.2-0.3,0.4-0.6,0.6-1c0.2-0.3,0.3-0.7,0.4-1l-3.8-2.7l1.7-2.4l5.3,3.8C324.1,280.7,323.8,281.6,323.4,282.5z M324.8,268.9
		l-11.2-0.1l1.7-3.2l7.7,0.5l-4.6-6.2l1.7-3.2l6.2,9.3l5.2,2.8l-1.6,2.9L324.8,268.9z"/>
	<path class="st0" d="M280.4,315c-0.4-0.7-0.9-1.2-1.4-1.7c-0.5-0.5-1.1-0.8-1.7-1c-0.6-0.2-1.2-0.3-1.9-0.2
		c-0.6,0.1-1.3,0.3-1.9,0.7c-0.7,0.4-1.1,0.9-1.5,1.5c-0.3,0.6-0.5,1.1-0.6,1.8c-0.1,0.6,0,1.3,0.2,2c0.2,0.7,0.5,1.3,1,2
		c0.4,0.7,0.9,1.2,1.4,1.7c0.5,0.5,1.1,0.8,1.7,1c0.6,0.2,1.2,0.3,1.9,0.2c0.6-0.1,1.3-0.3,1.9-0.7c0.7-0.4,1.1-0.9,1.5-1.5
		c0.3-0.6,0.5-1.1,0.6-1.8c0.1-0.6,0-1.3-0.2-2C281.2,316.3,280.8,315.7,280.4,315z"/>
</g>
<path class="st0" d="M295.2,222.5c0,1.5-1.1,2.2-2,2.9c-3.3,2.3-6.5,4.7-10,6.7c-3.1,1.7-6.1,3.4-9.6,4.5c-3.3,1-6.2,0.7-9.4,0
	c-11.2-2.5-18.3-9.5-22.8-19.6c-2.2-5.1-3.3-10.4-3.2-15.9c0.1-4.2,0.9-8.4,2.9-12.2c1.8-3.4,3.5-6.8,5.8-9.8
	c2.3-2.9,5.2-5.4,8.1-7.8c2.9-2.4,6.2-4.3,9.8-5.5c3.9-1.3,7.9-2.7,12.1-2.2c2.4,0.3,4.7,0.9,7,1.7c2.6,0.8,5.1,1.9,7.6,2.9
	c2.2,0.9,2.4,1.8,0.7,3.4c-1.5,1.5-3.1,3-4.6,4.5c-0.9,0.9-1.7,1.1-3,0.4c-2.7-1.3-5.6-2.4-8.5-3.2c-2.9-0.8-6-1.5-9-1.6
	c-4.9-0.2-9.3,1.4-13.2,4.8c-4,3.5-7.1,7.7-8,13c-0.7,4-0.9,8.1-0.3,12.3c0.6,4.6,1.9,8.8,4,12.8c1.9,3.6,4.6,6.6,8,8.7
	c3.4,2,7,3.7,10.6,5.4c0.9,0.4,1.9,0.5,2.9,0.7c2.2,0.4,4.5,0.9,6.7,1c2.9,0.2,7.1-1.9,6.7-5.9c-0.3-2.7-0.1-5.5-0.1-8.2
	c0,0,0,0,0,0c0-3.1,0-6.2,0-9.3c0-1-0.3-1.5-1.4-1.6c-2.6,0-5.2-0.1-7.9-0.1c-2.9,0-5.7,0.1-8.6,0.1c-0.5,0-1.3-0.4-1.4-0.7
	c-0.2-0.5,0-1.4,0.3-1.7c1.3-1.2,2.8-2.2,4.3-3.2c1.3-0.9,2.6-1.9,4.1-2.7c1.1-0.6,2.3-1,3.5-1c4.5-0.1,9,0,13.5-0.1
	c1.3,0,2.6-0.4,3.6,0.8c0.4,0.5,0.7,1.1,0.7,1.7C295.3,206.3,295.2,214.4,295.2,222.5z M206.5,215.5c2.8,1.8,5.7,3.3,8.4,5.1
	c1.4,0.9,2.7,2.1,4,3.2c1.5,1.2,2.1,1.3,3.6,0.1c1.2-0.9,2.3-1.9,3.5-2.7c0.3-0.2,0.8-0.1,1.3-0.2c-0.1,0.4,0,1-0.2,1.3
	c-1.4,1.5-2.8,2.9-4.2,4.3c-0.8,0.8-0.9,1.6-0.6,2.7c1.4,4.5,0.6,8.7-2.5,12.4c-2.9,3.4-6.6,5.6-11,6.4c-1.1,0.2-2.3,0.6-3.2,1.2
	c-0.5,0.3-0.8,1.4-0.6,2.1c0.5,2.2,0.6,4.3-0.4,6.4c-0.1,0.3,0.2,1,0.6,1.2c1.5,0.9,3.2,1.7,4.7,2.6c6.8,4.2,7,13.8,0.9,18.6
	c-1.6,1.2-3.4,2.1-5.2,3.1c-0.9,0.5-1.3,1.1-1.3,2.2c0,4.2,0.1,8.4,0,12.6c-0.1,2.5-1,4.7-3.2,6.1c-0.9,0.6-1.7,0.6-2.6,0
	c-2.7-1.6-3.2-4.1-3.1-7c0.1-2.6,0.1-5.2,0.1-7.8c0-0.4-0.3-0.7-0.5-1.1c-0.3,0.2-0.7,0.3-0.9,0.6c-1.5,1.4-3,2.8-4.5,4.2
	c-0.8,0.7-1.8,1.2-2.7,0.4c-1.1-1-2.4-2-2-3.8c1-5.2,3.9-9.1,8.3-11.9c1.8-1.2,2.8-2.5,2.1-4.8c-0.3-0.9-0.2-2-0.1-3.1
	c0.1-1.3-0.2-2.1-1.5-2.6c-5.4-2.2-9.8-5.5-11.8-11.2c-0.8-2.4-0.7-4.9,0.1-7.2c1.8-4.9,5.3-8.5,10.1-10.6c1-0.4,1.9-1.1,3.3-1.8
	c-2-0.6-3.6-1.1-5.1-1.6c-4.4-1.5-8.1-4.1-11.3-7.5c-4.6-5-7.1-11.1-8.7-17.6c-0.6-2.6-1.1-5.2-1.3-7.8c-0.1-1.5,0.1-3,0.5-4.4
	c0.8-3,1.5-6,2.6-8.8c2.1-5.3,6-9.2,10.1-13c0.3-0.3,0.5-0.7,0.8-1.1c-0.4-0.3-0.7-0.7-1.2-0.8c-4.8-1.1-9.3-3.2-13.6-5.5
	c-5.1-2.7-9.8-6.1-13.1-10.9c-2-2.9-3.9-6.2-4.4-9.6c-0.9-5.3,0.2-10.4,3.7-14.9c2.6-3.3,5.7-5.8,9.4-7.6c2.5-1.2,5.1-2,7.7-3
	c0.2-0.1,0.3-0.2,0.5-0.1c3.1,0.5,5.1-1.8,7.6-2.8c0.2-0.1,0.5-0.3,0.7-0.3c3.1,0,6.2,0,9.2,0.1c1.1,0,2.1,0.6,3.2,0.8
	c1.7,0.3,2-0.1,2-1.7c0-3.9,0.2-7.7,0-11.6c-0.2-3.3,2.3-5.1,5-6.1c2.7-1,5.6-1.8,8.4-2.7c1.2-0.4,2.3,0.1,2.5,1.4
	c0.1,0.5,0.1,1,0.1,1.5c0,8.2,0,16.3,0,24.5c0,0.8-0.3,1.6-0.3,2.4c0,0.4,0.1,0.9,0.2,1.3c0.4-0.1,0.8-0.2,1.1-0.5
	c2.2-2.1,4.3-4.2,6.5-6.2c0.5-0.5,1.1-1,1.7-1.4c1.1-0.8,2.1-0.7,2.9,0.5c1.1,1.7,2.4,3.3,3.3,5c0.9,1.8,1.1,3.7-0.4,5.4
	c-2.7,3.1-5.5,6.1-8.2,9.2c-3.1,3.5-6.2,7-9,10.8c-1.3,1.8-1.4,4.2-0.9,6.4c0.2,0.9,0.2,1.9,0.1,2.8c-0.2,2,0.6,3.1,2.6,3.4
	c3.1,0.5,6.3,0.9,9.3,1.6c1.7,0.4,3.3,1.4,4.9,2.3c0.9,0.5,0.5,1.4-0.1,1.8c-1.5,1.1-1.1,2.2-0.4,3.7c2.4,5,1.7,10-0.3,14.9
	c-2.2,5.3-6,9.1-10.8,12c-1.7,1-3.6,1.9-5.4,2.7c-1,0.4-1.4,1-1.4,2c-0.1,2.8-0.3,5.6-0.3,8.3C205.6,214.3,206,215.2,206.5,215.5z
	 M206.7,246.6c0.2-0.1,0.5-0.2,0.7-0.3c3.8-0.6,7.2-1.9,9.8-4.7c1.3-1.4,2.7-3,3.2-4.7c0.6-2,0.4-4.3,0.3-6.4c0-0.8-0.6-1.2-1.6-0.6
	c-3.2,2.2-6.4,4.3-9.6,6.4c-0.3,0.2-0.8,0.2-0.9,0.3c-2.1,0-3.4,0.9-3.5,2.3c-0.2,2.2-0.2,4.4-0.3,6.5
	C204.9,246.6,205.6,247,206.7,246.6z M197.3,297.3c0,1.5-0.1,3.1,1.3,4.1c0.5,0.4,1.3,1,1.6,0.8c0.7-0.4,1.4-1.1,1.6-1.8
	c0.3-1.1,0.3-2.3,0.4-3.4c0-4,0-8.1,0-12.1c0,0,0,0,0,0c0-3.6-0.1-7.1,0-10.7c0.1-2.4,0-4.5-3.1-4.7c-0.2,0-0.4-0.2-0.6-0.3
	c-0.8-0.4-1.2-0.1-1.2,0.8c0,1.1,0,2.1,0,3.2C197.2,281.2,197.2,289.2,197.3,297.3z M195.5,281.2c-0.1-0.6-0.2-1.1-0.3-1.7
	c-0.6,0.2-1.2,0.2-1.7,0.5c-3.1,2.1-5.1,5-6.2,8.6c-0.3,1-0.8,2.1,0.3,2.6c0.6,0.2,1.8-0.3,2.4-0.8c1.5-1.4,3-2.9,4.3-4.6
	c0.7-0.9,1.1-2.1,1.6-3.1c-0.1-0.1-0.3-0.1-0.4-0.2C195.4,282.1,195.5,281.6,195.5,281.2z M195.3,244.2c0-1.1,0.1-2.2,0-3.3
	c-0.1-1.1-0.8-1.5-1.7-0.9c-2.6,1.5-5.4,2.8-7.3,5.3c-1.8,2.4-3.3,5.1-3,8.1c0.4,4.1,2.6,7.2,5.9,9.6c4.1,3,9.2,3.8,13.7,5.9
	c1.4,0.6,2.6,1.8,3.6,2.9c0.9,1,0.7,2.2-0.4,3c-1.3,1.1-2.1,2.3-1.9,4.1c0.1,0.8,0.1,1.6,0.2,2.5c0.7-0.3,1.4-0.5,2.1-0.8
	c3.3-1.2,5.5-3.4,6.3-6.9c0.7-2.9,0.4-5.7-1.6-8.1c-2.9-3.3-7.1-4.3-11-5.7c-2.5-0.9-4.9-2-6.7-3.9c-2.6-2.6-2.4-3.8,0-6
	c0.3-0.2,0.6-0.4,0.7-0.7c0.4-0.7,0.8-1.5,0.9-2.3C195.4,246,195.3,245,195.3,244.2C195.3,244.2,195.3,244.2,195.3,244.2z
	 M202.8,238.6c-0.1-0.4-0.5-0.9-0.9-1c-1.2-0.3-2.5-0.5-3.8-0.7c-0.8-0.1-1.1,0.1-1,1c0.2,1.5,0.3,3,0.3,4.5c0,3.5,0.1,6.9,0,10.4
	c-0.1,2.2-0.2,3.8,2.5,4.7c2.2,0.7,2.9,0.8,2.9-1.7c0.1-3.5,0.2-7,0.2-10.5c0-1.6-0.2-3.2-0.2-4.7
	C202.8,239.7,202.9,239.1,202.8,238.6z M195.9,252.6c-0.6-0.4-1.1-0.9-1.2-0.8c-0.4,0.2-0.8,0.7-0.8,1.1c0,0.3,0.5,0.7,0.8,1
	C195,253.5,195.3,253.2,195.9,252.6z M180,188c-1.1,4.6-1.5,9.4-1.6,14.1c0,0.4,0.2,0.8,0.2,1.2c0.2,0,0.3,0.1,0.5,0.1
	c0.3-0.6,0.7-1.1,1-1.7c2.7-5.2,6.7-8.8,11.9-11.3c2-0.9,2.2-1.4,0.7-3c-1.7-1.9-3.5-3.7-5.2-5.5c-0.8-0.8-0.9-1.7-0.2-2.6
	c1.5-2.1,3.1-2.1,5.2-0.2c0.4,0.4,1.1,0.6,1.7,0.9c0.1-0.7,0.5-1.5,0.3-2.1c-0.2-0.6-1-1-1.6-1.3c-0.9-0.4-2-0.4-3-0.7
	c-2.3-0.8-3.8-0.4-5.3,1.6C182.3,180.6,180.9,184.2,180,188z M197.6,195.7c-0.3,3.6-0.6,7.2-0.9,10.9c-0.1,1.2-0.2,2.4-0.1,3.6
	c0,0.4,0.4,0.9,0.7,1.1c1.6,0.9,3.3,1.7,4.9,2.5c1,0.5,1.6,0,1.6-1.1c0-1,0-2,0-3c0.1-4.6,0.1-9.3,0.3-13.9
	c0.2-4.1,0.5-8.3,0.8-12.4c0-0.3-0.2-0.7-0.2-1c0-0.7-0.1-1.5,0.1-2.2c0.2-0.8,0.2-1.1-0.7-1.3c-2.1-0.4-4.2-0.9-6.3-1.3
	c-0.9-0.2-1.3,0.1-1.4,1c-0.1,0.7,0,1.5-0.1,2.2c-0.3,1.8-1.8,2.3-3.3,1.2c-0.7-0.5-1.3-1.2-2-1.6c-0.4-0.3-1.1-0.2-1.6-0.3
	c0.1,0.5,0.1,1.2,0.4,1.5c1.1,1.3,2.3,2.6,3.5,3.8C196.4,188.2,197.8,191.6,197.6,195.7z M187.9,120.9c-0.4-0.1-0.8-0.1-1.3-0.1
	c-0.9,0.1-1.9,0.3-2.8,0.2c-1.5-0.1-2.9-0.3-4.2,0.6c-1,0.7-2.1,1.2-3.1,1.9c-0.3,0.2-0.6,0.5-0.9,0.5c-1.9-0.4-3.4,0.4-5,1
	c-2.5,1-5.3,1.5-7.6,2.8c-3.9,2.1-7.2,5-9.1,9.1c-2,4.2-1.9,8.6-0.7,13c1,3.7,3.1,6.9,5.9,9.5c1.8,1.7,3.8,3.2,5.8,4.6
	c2.3,1.5,4.8,2.8,7.3,4c2.3,1.1,4.6,1.9,7,2.8c1.7,0.6,3.4,1.2,5.1,1.7c0.5,0.2,1.3,0.1,1.7-0.2c1.2-0.7,2.4-1.7,3.6-2.4
	c2.1-1.3,4.2-2.7,6.4-3.9c0.8-0.4,1.8-0.4,2.7-0.7c0.7-0.2,1.3-0.5,1.9-0.7c0-0.2,0-0.4-0.1-0.6c-2-0.5-4-1-5.9-1.5
	c-2.1-0.5-4.3-0.8-6.3-1.5c-2.8-1-5.5-2.2-8.2-3.5c-4.3-2-8.5-4.2-11.5-8.1c-3.5-4.5-2-8.1,2.3-10.9c3.3-2.2,6.7-0.9,10.2-0.2
	c1.5,0.3,3.1,0.3,4.7,0.1c0.5,0,0.9-0.9,1.3-1.4c0.5-0.6,1-1.4,1.7-1.8c1.1-0.6,2.5-0.7,3.6-1.2c3.4-1.5,6.9-2.9,10.2-4.6
	c2.3-1.2,2.1-4.9-0.1-6c-1.6-0.8-3.3-1.8-5.2-0.9c-0.3,0.2-0.8,0.1-1.1,0C193.4,122.2,190.7,121.5,187.9,120.9z M198.9,135.8
	c0.2-0.3,0.3-0.9,0.2-1.2c-0.1-0.3-0.8-0.5-1.1-0.4c-2,0.8-4,1.6-6.3,2.5C193.4,137.8,197.9,137.1,198.9,135.8z M190.1,139.7
	c-1.6,0.3-3.1,1.1-4.6,1.6c-0.2,0.1-0.4-0.1-0.6-0.1c-0.8,0-1.6-0.1-2.4-0.1c-0.6-0.1-1.2-0.1-1.7-0.3c-1.7-0.5-3.4-1-5.4-1.5
	c-1.4,0.5-3.1,0.9-4.5,1.8c-2.9,1.9-2.7,5.4,0.1,8.3c3.9,3.9,8.8,5.9,13.7,8c2.3,1,4.7,1.6,7,2.4c1.8,0.6,2.4,0.2,2.4-1.6
	c0-5.8,0.1-11.7,0.1-17.5c0-0.3-0.2-0.8-0.4-0.9C192.6,139.6,191.3,139.4,190.1,139.7z M207.8,149.1c3-3.7,6.3-7.2,9.5-10.8
	c2.4-2.7,4.8-5.5,7.1-8.3c0.4-0.5,0.6-1.4,0.4-1.9c-0.8-1.7-1.8-3.4-3-4.9c-0.2-0.3-1.5-0.4-1.8-0.2c-2.6,2.4-5.2,4.9-7.8,7.3
	c-0.8,0.8-1.5,2-2.9,1.3c-1.3-0.6-1-2-1-3.1c0-4.8,0-9.5,0-14.3c0.1,0,0.1,0,0.2,0c0-3.7,0-7.5,0-11.2c0-2.4-0.9-3.1-3.2-2.3
	c-0.2,0.1-0.4,0.2-0.6,0.3c-1.5,0.5-3.1,1.1-4.6,1.4c-2.1,0.4-3.6,2.1-3.6,4.3c0,3.8,0,7.6,0,11.3c0,1.7,0.6,2.5,2.2,2.3
	c1.6-0.2,2.9,0.4,4.2,1c1.7,0.7,3.7,3.7,3.6,5.4c-0.1,1.7-2.7,4.9-4.3,5.3c-1,0.2-1.4,0.8-1.1,1.8c0.5,2-0.6,4.2-2.7,4.7
	c-1.5,0.3-1.9,1.1-1.9,2.5c0,6-0.1,12-0.1,18c0,0.7,0.8,1.8,1.4,1.9c2.1,0.6,4.2,1,6.4,1.3c0.4,0.1,1.1-0.5,1.3-1
	c0.2-0.4,0-1.1,0-1.6C205,155.9,205.2,152.2,207.8,149.1z M208.2,183.7c-1.7,1.8-1.6,3.9-1.7,6c-0.1,3.5-0.1,6.9-0.1,10.4
	c0,0.4,0.1,1,0.3,1.1c0.3,0.2,0.8,0.1,1.2-0.1c1-0.5,1.9-1.2,2.9-1.7c3.5-1.6,6.2-4.1,8.6-7c3.6-4.2,4.1-9.3,3.9-14.6
	c-0.1-1.2-0.5-2.4-1-3.6c-0.4-0.9-1-1.1-1.9-0.3c-0.8,0.8-1.6,1.6-2.6,2.1c-0.7,0.3-1.8,0.3-2.5,0c-2.8-0.9-5.5-1.9-8.2-2.9
	c-0.3-0.1-0.8,0-1.1,0c-0.6,0-1.3,0.1-1.9,0c-2.2-0.6-4.4-0.5-6.6,0c-0.6,0.2-1.4-0.1-2,0c-0.9,0.1-1.8,0.3-2.7,0.4
	c0,0.3,0,0.6,0,0.8c1.7,0.2,3.3,0.5,5,0.7c0.2,0,0.4,0,0.6,0.1c2.4,0.6,4.7,1.2,7.1,1.7C208.1,177.5,210.1,181.8,208.2,183.7z
	 M204.3,216.8c-2.1-1-4.2-1.9-6.3-2.9c-1.1-0.5-2.3-0.9-3.4-1.4c-0.3-0.2-0.7-0.7-0.7-1.1c0.1-1.9,0.4-3.7,0.5-5.6
	c0.3-3.4,0.5-6.8,0.8-10.2c0.1,0,0.1,0,0.2,0c-0.1-0.9-0.2-1.8-0.4-2.7c-0.3-1.1-1-1.3-2-0.9c-5.2,2.5-9.4,6.1-11.8,11.5
	c-1,2.3-1.7,4.7-0.3,7.3c2,3.7,4.3,7.2,7.5,9.9c1.5,1.3,3.3,2.7,5.2,3.3c3.5,1.2,7.2,2,10.8,3c0.6,0.1,1.2,0,1.8,0
	c1.3-0.1,2.8-0.6,3.9-0.2c2.3,0.8,4.4-0.5,6.6-0.5c0.3,0,0.8-0.4,0.9-0.7c0.1-0.2-0.2-0.8-0.4-1c-2.4-1.6-4.7-3.2-7.2-4.7
	C208.2,218.8,206.3,217.8,204.3,216.8z M189.3,132c-0.7-0.9-1.8-1.7-2-2.7c-0.1-0.6,1.1-1.5,1.7-2.3c1.3,0.3,2.7,1.4,2.4,2.2
	C191,130.2,190,131.1,189.3,132z M160.4,235.3c0.5,1.2,0.1,2-1.2,2.1c-1.8,0.2-3.6,0.1-5.4,0.1c-0.3,0-0.5,0-0.8,0.1
	c-2.4,0.5-2.7,0.4-3.6-1.9c-2.5-6.5-5-13-7.5-19.4c-0.2-0.4-0.9-0.9-1.4-0.9c-3.5-0.1-7,0-10.6,0c0-0.1,0-0.3,0-0.4
	c-3.6,0-7.3-0.1-10.9,0.1c-0.9,0-2.1,0.9-2.5,1.8c-2.6,6.4-5.1,12.8-7.6,19.2c-0.5,1.3-1.4,2.3-3,2.1c-1.2-0.1-2.4-0.2-3.6-0.4
	c-1.1-0.2-1.3-0.8-0.8-1.8c2.5-5.6,4.9-11.2,7.2-16.9c2.4-5.9,4.8-11.7,7.1-17.6c2.1-5.2,4.1-10.4,6.1-15.6c1.1-2.7,2.1-5.4,3.2-8.1
	c0.6-1.4,0.8-2.7,0.1-4.2c-0.8-1.7-1.4-3.5-2.1-5.3c-0.5-1.3,0-1.9,1.2-2.3c2-0.7,4-1.4,6-2.1c1-0.3,1.8,0,2.2,1
	c1.5,3.8,3,7.6,4.4,11.4c1,2.6,2,5.1,3,7.7c1.4,3.7,2.8,7.4,4.3,11.2c3.4,8.8,6.8,17.6,10.3,26.4C156.5,226,158.5,230.6,160.4,235.3
	z M138.4,206.6c-0.3-0.7-0.7-1.5-1-2.2c-1.1-2.7-2.1-5.4-3.1-8.2c-1.3-3.4-2.5-6.7-3.8-10.1c-0.2-0.5-0.6-0.8-0.9-1.3
	c-0.4,0.4-0.9,0.8-1.1,1.3c-0.6,1.5-1,3-1.6,4.5c-2.2,5.5-4.4,11-6.6,16.5c-0.4,1.1-0.1,1.6,1.2,1.6c2.6,0,5.2,0,7.8,0
	c2.6,0,5.2,0,7.8,0C138.6,208.6,139,208,138.4,206.6z"/>
</svg>
