<?xml version="1.0" encoding="UTF-8"?><!DOCTYPE svg PUBLIC "-//W3C//DTD SVG 1.1//EN" "http://www.w3.org/Graphics/SVG/1.1/DTD/svg11.dtd"><svg xmlns="http://www.w3.org/2000/svg"><symbol id="calendar" viewBox="0 0 24 24"><path class="cls-1" d="M22 24H2a2 2 0 0 1-2-2V4a2 2 0 0 1 2-2h2v2H2v18h20V4h-2V2h2a2 2 0 0 1 2 2v18a2 2 0 0 1-2 2zm-5-7h2a1 1 0 0 1 0 2h-2a1 1 0 0 1 0-2zm0-4h2a1 1 0 0 1 0 2h-2a1 1 0 0 1 0-2zm2-2h-2a1 1 0 0 1 0-2h2a1 1 0 0 1 0 2zm-1-5a1 1 0 0 1-1-1V1a1 1 0 1 1 2 0v4a1 1 0 0 1-1 1zm-4-4h2v2h-2V2zm-3 15h2a1 1 0 0 1 0 2h-2a1 1 0 0 1 0-2zm0-4h2a1 1 0 0 1 0 2h-2a1 1 0 0 1 0-2zm2-2h-2a1 1 0 0 1 0-2h2a1 1 0 0 1 0 2zm-1-5a1 1 0 0 1-1-1V1a1 1 0 1 1 2 0v4a1 1 0 0 1-1 1zM8 2h2v2H8V2zM5 17h2a1 1 0 0 1 0 2H5a1 1 0 0 1 0-2zm0-4h2a1 1 0 0 1 0 2H5a1 1 0 0 1 0-2zm2-2H5a1 1 0 0 1 0-2h2a1 1 0 0 1 0 2zM6 6a1 1 0 0 1-1-1V1a1 1 0 1 1 2 0v4a1 1 0 0 1-1 1z"/></symbol><symbol id="check-circle-solid" viewBox="0 0 24 24"><path d="M12 0C5.373 0 0 5.373 0 12s5.373 12 12 12 12-5.373 12-12S18.627 0 12 0zm-1.25 16.518l-4.5-4.319 1.396-1.435 3.078 2.937 6.105-6.218 1.421 1.409-7.5 7.626z"/></symbol><symbol id="check-circle" viewBox="0 0 24 24"><path d="M12 2c5.514 0 10 4.486 10 10s-4.486 10-10 10S2 17.514 2 12 6.486 2 12 2zm0-2C5.373 0 0 5.373 0 12s5.373 12 12 12 12-5.373 12-12S18.627 0 12 0zm6.25 8.891l-1.421-1.409-6.105 6.218-3.078-2.937-1.396 1.436 4.5 4.319 7.5-7.627z"/></symbol><symbol id="check" viewBox="0 0 512 512"><path d="M498.817 35.097C343.065 130.587 230.05 251.069 179.272 311.53L54.915 214.1 0 258.371l214.88 218.532C251.863 382.177 368.985 197.04 512 65.499l-13.183-30.402z"/></symbol><symbol id="checkbox-checked" viewBox="0 0 32 32"><path d="M28 0H4C1.8 0 0 1.8 0 4v24c0 2.2 1.8 4 4 4h24c2.2 0 4-1.8 4-4V4c0-2.2-1.8-4-4-4zM14 24.828l-7.414-7.414 2.828-2.828L14 19.172l9.586-9.586 2.828 2.828L14 24.828z"/></symbol><symbol id="checkbox-unchecked" viewBox="0 0 32 32"><path d="M28 0H4C1.8 0 0 1.8 0 4v24c0 2.2 1.8 4 4 4h24c2.2 0 4-1.8 4-4V4c0-2.2-1.8-4-4-4zm0 28H4V4h24v24z"/></symbol><symbol id="puzzle" viewBox="0, 0, 387.7, 379.2"><path d="M361.3 116.7l-.1-.4v-.4c0-.1 0-.2-.1-.3v-.3l-.1-.7-.1-.7c0-.1-.1-.1-.1-.2v-.2l-.2-.6-.1-.5c0-.2-.1-.3-.2-.5s-.1-.4-.1-.5l-.1-.2v-.1c0-.1-.1-.1-.1-.2v-.2l-.2-.7-.1-.1v-.1l-.3-.7-.2-.6-.1-.1v-.1l-.2-.5-.1-.4-.3-.6c-.1-.2-.1-.4-.3-.5l-.1-.2-.1-.3c-.1-.1-.2-.2-.2-.4-.1-.1-.1-.3-.2-.4l-.3-.4-.4-.6-.4-.6-.3-.5c-.1-.2-.3-.3-.4-.5-.1-.1-.2-.3-.4-.5l-.2-.2-.3-.3c-.1-.1-.1-.3-.2-.4l-.6-.6-.5-.5c-.1-.1-.1-.1-.2-.1l-.2-.2-.2-.2-.4-.4-.3-.3c-.1-.1-.3-.2-.5-.3-.2-.1-.3-.3-.5-.4l-.2-.1c-.1-.1-.3-.2-.5-.3-.2-.1-.3-.3-.5-.4l-.5-.2-.1-.1h-.1l-.1-.1-.6-.3c-.1 0-.2-.1-.3-.1-.1 0-.1-.1-.2-.2l-.3-.1-.3-.2c-.2-.1-.4-.2-.7-.2-.2-.1-.4-.2-.6-.2h-.4l-.2-.1-.2-.1c-.2-.1-.4-.1-.5-.1-.2-.1-.3-.2-.5-.2l-.7-.1-.7-.1h-.4c-.2-.1-.4-.1-.7-.1-.2 0-.4-.1-.7-.1h-2.8c-.2 0-.4.1-.6.1-.2 0-.4 0-.6.1h-.2c-.1 0-.2.1-.4.1h-.4l-.5.1-.6.1c-.1 0-.1.1-.2.1h-.2l-.6.2-.5.1c-.1 0-.1.1-.2.1h-.2l-.8.2c-.1 0-.1.1-.2.1h-.2l-.6.3-2.3.7c-.1 0-.2.1-.3.1-.1 0-.2 0-.3.1l-.2.1h-.1l-.7.1c-.1 0-.2.1-.3.1-.1 0-.1-.1-.1-.1h-.1s-.1 0-.1-.1l-.1-.1-.1-.1-.8-.8-.4-.4-.1-.2c-.1-.2-.2-.3-.4-.5V95c0-.1-.1-.1-.1-.2s0-.2-.1-.2v-.1-.5-.2-.2l-.1-.7v-2.2l.1-1.1.1-1.5.1-1.3.3-1.5.3-1.6v-.1-.1l.3-2 .4-1.9.5-1.9v-.1-.1l.3-1.9.6-1.8v-.2c0-.1.1-.1.1-.2l.4-2.1.6-2v-.2c0-.1.1-.1.1-.2l.4-2 .7-2v-.1-.1l.7-2.3 3.3-11.8c.1-.2 0-.4 0-.6 0-.3.1-.5.1-.8 0-.2-.1-.3-.2-.5-.1-.3-.1-.6-.3-.8-.1-.2-.3-.3-.4-.4-.2-.2-.3-.4-.5-.6l-.6-.3c-.2-.1-.4-.3-.7-.3L319 42.9l-2.7-.7h-.1-.1l-9.8-2h-.1-.1l-2.2-.3-2-.3h-.4l-1.7-.1-1.7-.2h-5.2c-.2 0-.4.1-.5.1-.2 0-.4 0-.6.1l-.2.1h-.5l-.7.1h-.1-.1l-.6.1c-.1 0-.2.1-.3.1-.1 0-.2 0-.3.1l-.3.1h-.1l-.5.1c-.2 0-.3.1-.4.2-.2.1-.3.1-.5.1l-.4.2-.7.3c-.1 0-.1.1-.2.1s-.1 0-.2.1l-.6.4-.6.3c-.2.1-.3.2-.4.3-.2.1-.3.1-.5.3l-.6.5-.5.3c-.1 0-.1.1-.2.2-.1 0-.1.1-.2.1l-.8.7s0 .1-.1.1l-.1.1c-.1 0-.1.1-.1.1-.2.1-.4.3-.5.5-.2.2-.3.4-.4.6l-.1.1v.2c-.1.1-.2.1-.3.3l-.2.3-.3.4c-.1.1-.1.2-.1.3-.1.1-.2.2-.2.3l-.2.5v.1l-.1.1-.2.6v.2c0 .1-.1.1-.1.2v.2l-.1.3v.2c0 .1-.1.1-.1.2v.1l-.1.1c-.1.2-.1.4-.2.6-.1.2-.2.3-.2.5l-.1.8V53.2l-.1.4v.3c0 .1-.1.2-.1.3V54v2.3c0 .1 0 .2.1.3v.3l.1.7.3 3.2.2 2.8.2 2.3v4.2l-.1.5v.2c0 .1-.1.1-.1.2l-.1.4-.1.3-.3.5c0 .1 0 .2-.1.3 0 .1-.1.2-.2.2l-.2.6-.1.3-.4.4-.6.7-.5.6-.5.5-.3.3-.4.3-.6.4-.6.3-.6.3-.5.3-.7.3c-.1 0-.1.1-.2.1h-.2l-.2.1h-.2l-.8.1-.7.1-.9.1c-.1 0-.2.1-.3.1h-.3l-.3.1h-.8l-.6-.1h-.4c-.1 0-.2-.1-.4-.1h-.6l-.7-.1-.9-.1-.4-.1-.7-.2h-.1-.1l-.6-.2-.8-.3h-.1s-.1 0-.1-.1l-.5-.1-.5-.3-.7-.4c-.1 0-.2 0-.3-.1-.1 0-.2-.1-.2-.2l-.6-.2-.9-.6-1.1-.7-.6-.3-.4-.2-.1-.1-.3-.3-.3-.3-.5-.5-.2-.2-.3-.3c-.1-.1-.1-.2-.2-.3l-.1-.1v-.1c0-.2-.1-.3-.2-.4-.1-.2-.1-.3-.1-.5l-.2-.5-.1-.4v-.1-.1l-.2-.6-.1-.3-.1-.4v-.4c0-.1 0-.2-.1-.3v-.3l-.1-.4v-1.5-.4c0-.1.1-.2.1-.4v-.3l.1-.3v-.2l.3-.9.4-1v-.2c0-.1.1-.2.1-.3l.3-1.1.9-2.1.5-1.1v-.1l.5-1.2v-.1-.1l.4-1.4.5-1.4c.1-.2 0-.4.1-.6v-.1c.1-.2.1-.4.1-.6.1-.2.1-.5.1-.7V51c.1-.6.1-1.1 0-1.6v-.5-.1c0-.2-.1-.5-.1-.7-.1-.2-.1-.5-.2-.7v-.1l-.1-.1v-.1l-.3-.6c0-.1 0-.3-.1-.4-.1-.1-.1-.2-.2-.2v-.1c0-.1-.1-.1-.1-.2l-.3-.4s0-.1-.1-.1l-.2-.3c-.1-.2-.4-.4-.6-.6-.2-.1-.3-.3-.5-.5l-.1-.1s-.1 0-.1-.1l-.1-.1-.6-.6c-.1-.1-.2-.1-.3-.2-.1-.1-.1-.2-.3-.3l-.7-.5h-.1l-.1-.1-.8-.5h-.1s-.1 0-.1-.1l-.7-.3-1.6-.8-1.9-1c-.2-.1-.3-.1-.5-.1-.2-.1-.3-.2-.5-.2h-.1c-.2-.1-.3-.1-.5-.1-.1-.1-.3-.2-.4-.2h-.2-.1c-.2-.1-.5-.2-.7-.3l-.7-.1h-.3c-.1 0-.2-.1-.3-.1h-.2l-.4-.1h-.3c-.1 0-.2-.1-.3-.1H235.1h-.1-.1l-1.8.1-6.7.6c-.1 0-.2.1-.3.1h-.3l-33.7 9.2-5.6 1.5-7.7 2-2.8.7h-.1l-2.5.7-2.1.5-2.1.3h-.1-.1l-2.1.4-1.8.3-1.7.2h-.1-.1l-1.3.3h-1.6l-1.2.1h-1l-.9-.1-.9-.2-.6-.1h-.4c-.1 0-.2-.1-.4-.1h.1c-.1 0-.1-.1-.2-.1h-.2c-.3-.2-.6-.4-1-.5h-.2l-.3-.1c-.1 0-.2 0-.3-.1-.1 0-.2-.1-.3-.1l-.8-.2-.3-.1h-.1s-.1 0-.1-.1l-.6-.2-.3-.1-.4-.2-.4-.2-.3-.2-.2-.2v-.1c-.1-.1-.1-.3-.2-.4V50l.1-.7.1-.9.1-.9.1-.6.2-.7v-.1-.1l.6-1.9.5-1.8.6-1.8v-.1c0-.1.1-.1.1-.2l.5-2 .3-.9v-.4c0-.1.1-.3.1-.4l.1-.8.2-.8.2-.9v-.2c0-.1.1-.2.1-.2l.1-1 .1-.9.2-.8v-.4c0-.1.1-.3.1-.4v-.9c0-.1-.1-.3-.1-.4v-.4l-.1-.6v-.6c0-.1-.1-.3-.1-.4v-.4l-.2-1c0-.1-.1-.2-.1-.3 0-.1 0-.2-.1-.3l-.2-.4v-.2-.1-.1l-.1-.5-.1-.5c0-.2-.2-.3-.2-.5-.1-.2-.1-.3-.2-.5l-.3-.6c0-.1-.1-.1-.1-.1 0-.1 0-.1-.1-.2l-.2-.3-.1-.2c-.1-.2-.2-.3-.3-.4-.1-.1-.1-.3-.2-.4l-.3-.5-.3-.5-.3-.5c-.1-.1-.3-.2-.4-.3-.1-.1-.2-.3-.3-.4l-.3-.2-.3-.3-.8-.8s-.1 0-.1-.1c0 0 0-.1-.1-.1l-.9-.8-.8-.7c-.1-.1-.2-.1-.3-.2-.1-.1-.2-.2-.3-.2l-.9-.5-.9-.6c-.1-.1-.2-.1-.3-.1-.1 0-.1-.1-.2-.2l-.8-.3-.7-.4c-.1 0-.2 0-.2-.1-.1 0-.1-.1-.2-.1l-1-.5c-.1-.1-.3 0-.4-.1-.1 0-.2-.1-.4-.2l-.8-.2-.8-.3h-.2l-.1-.1-1.1-.3h-.3c-.1 0-.2-.1-.3-.1l-1-.1-1.1-.1-1.1-.1-1.1-.1H127.9l-1.1.1-1.1.1-1.1.1c-.1 0-.2.1-.3.1h-.3l-1 .3-.9.2c-.1 0-.2.1-.3.1-.1 0-.2 0-.3.1l-1.1.5-1.1.5-.1.1h-.1l-.8.4-.9.4c-.1 0-.1.1-.2.1s-.1 0-.2.1l-1 .6-.8.4c-.1.1-.2.2-.3.2-.1.1-.2.1-.3.2l-1 .8-.9.6-.1.1s-.1 0-.1.1l-.9.8c-.1.1-.1.1-.1.2-.1.1-.1.1-.2.1l-.8.9-.6.7-.6.7-.6.7c0 .1-.1.1-.1.2s-.1.1-.1.1l-.5.7-.5.7-.5.7c-.1.1-.1.3-.2.4-.1.1-.2.3-.2.4l-.2.7v.2l-.2.6-.2.6c-.1.1 0 .3-.1.4 0 .1-.1.3-.2.4l-.1.5-.2.6v.3c0 .1-.1.1-.1.2l-.1.7-.1.7v.3c0 .1-.1.2-.1.3v4.2l.1.6.1 1.9v.4l.3 2.2v.2l.4 2.3.8 5.1v.2l.5 2.7.4 3v1l-.1.2-.3.3h-.1l-.6.3c-.1 0-.1.1-.1.1-.1 0-.2 0-.3.1l-.2.1h-.3c-.1 0-.2.1-.4.1-.1 0-.3 0-.4.1l-.2.1h-.5c-.1 0-.2 0-.3.1h-.3l-.4.1H100l-.7-.1H97.9l-.6-.2H97c-.1 0-.2-.1-.3-.1l-.7-.2-.7-.2h-.2c-.1 0-.1-.1-.2-.1l-.7-.1-3.9-1-21.4-7.5c-.2-.1-.4 0-.6-.1-.3 0-.5-.1-.7-.1-.2 0-.4.1-.7.2-.2.1-.5.1-.7.2-.2.1-.4.3-.5.4-.2.1-.4.3-.6.4-.1.2-.2.4-.4.6-.1.2-.3.4-.4.6l-5.2 16.3-1 2.8v.2L56.9 70v.1s0 .1-.1.1l-.7 2.6-.8 2.4-.8 2.6-.7 2.4v.2l-.5 2.6-.5 2v.2l-.5 2v.2l-.3 1.8-.3 1.6-.3 1.5v.2c0 .1-.1.2-.1.2l-.1 1.3-.2 1v.4c0 .1-.1.2-.1.3v1.1c0 .2.1.3.1.5v.5l.4 1.5.4 1.9.1.5c0 .2.1.3.2.4 0 .1 0 .2.1.3v.2c.1.5.3.9.6 1.2v.1l.3.5c0 .1.1.1.2.1.1.1.1.2.2.2l.2.2.3.1c.1.1.2.2.3.2.1.2.2.3.4.5l.5.3c.1.1.2.1.3.2.1 0 .1.1.2.2l.3.1h.1l.4.3c.4.3.7.4 1.2.6l.2.1c.1.1.2.1.3.1.1.1.2.1.3.1.4.2.8.3 1.2.3H60c.2 0 .5.1.7.1h.5c.3 0 .5-.1.7-.1h.2l2.7-.5H65.1l4.3-1 1.2-.2 1.2-.2 1-.1h2.7c.2 0 .4.1.6.1h.1c.1 0 .1.1.2.1l.5.1h.4l.3.1c.1 0 .2 0 .3.1.1 0 .2.1.3.1h.1c.3.1.5.2.8.3l.2.2c.1.1.2.1.3.2.1 0 .1.1.2.2l.5.2.1.1.7.6.8.7.7.7.9.9.9.9.5.7.6.9.1.1v.1l.7 1 .5.9.5 1.1.5 1.1.4 1.1.3 1.2c0 .1.1.1.1.1v.1l.4 1.1.3 1 .2 1.2c0 .1 0 .1.1.2v.2l.2.9.1 1V126.9l.1 1.2-.1 1v1.5l-.1 1.1-.2 1.2-.2 1.1-.2.9-.3.8-.5 1.1-.4.9-.4.7-.5.8c-.1.1-.1.3-.2.4 0 0 0 .1-.1.1 0 .1-.1.1-.1.2-.1.2-.3.3-.4.5l-.1.1-.3.3c-.1.1-.1.1-.1.2l-.2.2-.2.2c-.1.1-.2.1-.3.2-.2.1-.3.2-.5.3l-.3.3-.1.1-.8.5-.7.4-.4.2-.9.3c-.1 0-.1.1-.2.1H81l-.5.2H80c-.1 0-.1.1-.2.1h-.2l-.5.1h-.7c-.1 0-.2.1-.4.1h-.4l-.4.1-.4-.1h-.4c-.1 0-.2-.1-.4-.1h-1.2l-1.1-.1-1.1-.2-1.4-.3H71c-.1 0-.1 0-.1-.1l-1.4-.2-1.5-.4h-.1l-2.4-.6-1.9-.5h-.2c-.1 0-.1-.1-.2-.1l-.8-.1-.6-.1-.7-.1h-.3c-.1 0-.2-.1-.3-.1h-.7.2-1c-.2 0-.3.1-.4.1h-.4l-.5.1-.4.1-.5.1c-.2 0-.3.1-.4.2-.2.1-.3 0-.5.1l-.6.3h-.1c-.1 0-.2.1-.4.2-.1 0-.3 0-.4.1l-.5.2c-.2.1-.3.2-.4.3l-.3.1c-.2.1-.3.2-.5.4-.2.1-.3.2-.5.3l-.3.3c-.1.1-.1.2-.2.3-.1.1-.2.1-.2.2-.1.1-.2.1-.3.2l-.3.3c-.1.1-.2.3-.3.5-.1.2-.3.3-.4.5l-.2.5c-.1.2-.2.3-.3.5l-.3.6s0 .1-.1.2c0 0 0 .1-.1.1v.1c0 .1-.1.2-.1.3-.1.2-.2.4-.2.6l-.1.4v.2c0 .1-.1.1-.1.2l-.1.6-.1.6v.6c-.1.2-.1.5-.1.7 0 .2-.1.4-.1.6v1.1l-.1 1.2v.6l.1 1.6V157.8l.2 1.3.1 1.5v.2l.2 1.8 1 7.3c0 .1.1.1.1.2v.2l6.2 23.9 2.7 9.4.7 3.2.7 3 .5 2.8.4 2.7.4 2.5.2 2.2.2 2v5l-.2 1.3v.2l-.1 1.1-.3 1.1v.2l-.2 1.2-.2.7-.3.7v.2l-.6 1.8-.2.5v.1l-.1.1-.1.3-.1.2-.2.3s-.1.1-.1.2h-1.3l-.2-.1c-.1-.1-.3 0-.4-.1-.1 0-.2-.1-.4-.1l-.7-.1-.4-.1-.4-.1L51 235l-.9-.3H50h-.1l-.7-.2h-.3c-.1 0-.2-.1-.3-.1l-.5-.1-.6-.2h-.2c-.1 0-.1-.1-.2-.1l-.7-.1h-.3c-.1 0-.2-.1-.3-.1h-3.2l-1 .1h-.1-.1l-2.4.3-.7.1c-.1 0-.2.1-.4.1h-.1l-.6.1c-.2 0-.4.2-.6.2-.2.1-.4.1-.6.2l-.6.3c-.1 0-.1.1-.1.1-.1 0-.1 0-.2.1H35l-.1.1c-.2.1-.3.2-.5.3-.3.2-.5.3-.7.5l-.5.5-.5.5-.3.3-.5.5c-.1.1-.1.2-.2.4l-.3.3-.2.4-.2.3c0 .1 0 .1-.1.2 0 .1-.1.1-.1.1l-.3.6c-.1.1-.1.3-.1.4-.1.1-.2.2-.2.4v.2c-.1.1-.1.3-.2.5s-.2.3-.3.5l-.2.4-.3.5c-.1.1-.1.3-.1.5 0 .1-.2.3-.2.4l-.1.3-.5 1.2v.2l-.5 1.4v.2c0 .1-.1.1-.1.2l-.3 1.6v.2l-.2 1.5-.2 1.5-.2 1.5v.2l-.1 1.4v1.1l-.1 1V260.6l.1.8v1.3l.1.9c0 .1 0 .1.1.2v.2l.2.8.1.8.1 1c0 .1 0 .1.1.2v.2l.2 1 .2.9.2.9c0 .1.1.1.1.2v.2l.3.7.2.7c0 .2.1.3.2.4 0 .1 0 .2.1.3l.4.8.3.7s0 .1.1.1v.1l.3.7.5.9c0 .1.1.2.2.2 0 0 0 .1.1.2l.5.7c0 .1.1.1.2.2 0 0 0 .1.1.1l.4.4.3.5c.2.3.4.5.6.7l.4.4.7.7.5.5s.1 0 .1.1l.1.1.8.7c.1.1.2.1.3.2l.2.2.5.3.6.4.7.5c.2.1.5.2.7.3.1 0 .1.1.2.1l.5.2.6.3h.2c.1 0 .1.1.2.1l.6.2.8.3c.1.1.3 0 .4.1.1 0 .2.1.3.1l.8.1H46c.2 0 .5 0 .7-.1l.6-.1.6-.1c.1 0 .2-.1.3-.1.1 0 .2 0 .3-.1l1-.4.2-.1.6-.1c.1 0 .1-.1.2-.1s.2 0 .4-.1l.6-.2.5-.1h.2l1-.2.8-.1h4.1l.2.1.5.2c.1 0 .2 0 .3.1.1.1.3.2.5.3l.3.3.2.3.7 1c.1.2.2.3.4.4 0 0 0 .1.1.1l.2.2c.1.4.3.8.5 1.1v.1c0 .1 0 .2.1.3V288.5l.1.5v2l.1 2.6-.1 2.2-.1 2.3-.1 2.1-.3 2.1v.2l-.2 2.2-.4 2.3-.5 2.4-.7 2.7-.5 2-.6 2.2-.5 1.9-.6 1.8-.9 2.8v.1s0 .1-.1.1l-.3 1.4v1.1c0 .2 0 .5.1.7.1.2.1.4.2.6.1.2.2.4.4.6.1.2.3.4.5.5.2.2.4.3.6.4.1.1.2.2.3.2l8.9 4.1h.1l.1.1 3.4 1.2 3.2 1.3h.1l.1.1 3.4 1.1 3.2 1.1 3.2 1.1h.1l3.2 1 3 .9 2.7.8H93.5l2.7.6h.1l1 .2.9.3 1.1.3c.1 0 .3 0 .4.1.1 0 .1.1.2.1l1 .1 1.1.1.7.1H106.7l3-.3h.1l1.2-.2 1-.1 1.1-.1c.2 0 .3-.1.4-.1.2 0 .4 0 .6-.1l.3-.1.2-.1.5-.1c.1 0 .2-.1.3-.1.1 0 .2 0 .3-.1h.1c.3-.1.7-.3 1-.5h.1c.1-.1.3-.2.4-.3.2-.1.4-.2.6-.4 0 0 .1 0 .1-.1l.1-.1.3-.2.1-.1c.3-.2.7-.5.9-.9l.2-.3c0-.1 0-.1.1-.2 0-.1.1-.1.2-.2l.1-.3.1-.1s0-.1.1-.1c0-.1.1-.1.2-.2l.2-.5v-.1c0-.1.1-.1.1-.2l.2-.6c0-.1 0-.2.1-.3 0-.1.1-.2.1-.3l.1-.6.1-.6v-.1-.1l.1-.7.1-.7v-.3c0-.1.1-.2.1-.3v-1.1l.1-.3v-.5c0-.2.1-.3.1-.5v-1c0-.2-.1-.3-.1-.5v-.5l.3 1V327.8c0-.1 0-.2-.1-.3v-.3l-.1-.6-.1-.8v-.1-.1l-.1-.6v-.1c0-.2-.2-.5-.3-.7-.1-.2-.1-.3-.2-.5v-.1c0-.1-.1-.3-.1-.4 0-.1 0-.3-.1-.4l-.5-1.1c0-.1-.1-.1-.1-.1v-.1l-.5-1-.9-2.1c-.1-.2-.2-.3-.3-.4-.1-.1-.1-.3-.2-.4l-.3-.4-.2-.5c0-.2-.2-.3-.2-.4-.1-.1-.1-.3-.1-.4l-.1-.5c0-.1-.1-.2-.1-.3 0-.1 0-.2-.1-.3l-.1-.2v-.3l-.1-.7-.1-.4v-.5-.3V311.5v-.3V310.3l.1-.7v-.2V308.5l.3-.7.3-.7v-.2c0-.1.1-.2.1-.3l.1-.4v-.1l.4-.4c.2-.3.5-.6.6-1l.1-.2.1-.1s0-.1.1-.1l.4-.4.2-.3.4-.4c.1-.1.1-.2.2-.3.1-.1.2-.1.2-.2l.4-.4.4-.4.5-.4.7-.4c.1 0 .1-.1.2-.2.1 0 .2-.1.2-.1l.5-.4.5-.3.5-.2c.1 0 .1-.1.2-.1.1-.1.3-.1.4-.2l.4-.3.7-.3h.1l.6-.3.5-.1c.1 0 .1-.1.2-.1h.2l.5-.2.7-.1c.1 0 .1-.1.2-.1s.2 0 .3-.1l.8-.3.5-.2.8-.2.6-.1.9-.1.8-.1h3.7l1.1.1h1.3l1 .1.6.1.8.2 1 .3h.2s.1 0 .1.1l.5.1.6.3h.1l.7.3.1.1c.1.1.2.1.2.1l.1.1c0 .1.1.1.1.1.3.3.6.6.9.8 0 0 .1 0 .1.1l.1.1.3.3.1.2c.1.2.3.4.4.6 0 .1 0 .1.1.2l1.1 1.3.9 1.4c0 .1.1.1.2.2 0 0 0 .1.1.1l.4.4.1.2.1.2.3.6c0 .1 0 .2.1.3l.3.5.1.2.1.2.1.3c0 .2.1.4.2.5 0 .1 0 .2.1.4l.1.2.1.3v.5c0 .2.1.4.1.6 0 .2 0 .4.1.6v1.3l-.1.3v.5c0 .2-.1.3-.1.5v.8l-.1.6-.3 2.1-.3 2.1-.5 2.4-1.3 6.1v.4c0 .1-.1.2-.1.4v.5l-.1.6v.4c0 .1-.1.2-.1.4v2.5c0 .1.1.2.1.4V333.3c0 .1.1.2.1.4v.4l.1.6c0 .1.1.2.1.3 0 .1 0 .2.1.3l.1.3v.1l.1.4c.1.4.3.9.5 1.2l.1.2v.1s0 .1.1.1v.1c.1.4.3.7.5 1l.1.2.1.2.6.9c.1.1.1.2.2.3 0 .1 0 .1.1.2l.3.5c0 .1.1.1.2.1l.6.8c.1.1.2.1.3.2.1.1.2.3.3.4l.8.7s.1 0 .1.1l.1.1.7.5.6.5c.1.1.3.2.4.2.1.1.2.2.3.2l.9.5c.1.1.2.1.4.1l.1.1.6.2.3.2.7.5c.1.1.2.1.2.1.1 0 .1.1.1.1l.5.2.5.2c.2.1.5.2.7.3H162.7s.1 0 .1.1h.2l.9.3.6.1c.2 0 .5.1.7.1h.4l.4.1h3.8l1-.1h1.4l1.1-.1c.1 0 .1 0 .2-.1.1 0 .3 0 .4-.1l1-.3.8-.1h.5l1.2-.3 1.2-.2c.1 0 .1-.1.2-.1h.3l1.5-.5 1.3-.4 1.4-.3c.1 0 .2-.1.3-.1.1 0 .2 0 .3-.1l1.6-.6 3.8-1.2 4.5-1.5 9.1-3.2 26.1-9.6 5.8-.8 1-.1h.1l.7-.1h.8c.3 0 .6 0 .9-.1l.5-.1H240.2c.1 0 .2 0 .3.1.1 0 .1.1.2.1l.7.1h.2c.2.1.5.2.8.3l.2.2.1.2c0 .1.1.2.2.2v.1l.1.3.1.6c0 .1.1.2.1.3V332.2l-.1.6v.4c0 .1-.1.2-.1.4v.6l-.1.8-.1 1-.6 3.8-.3 1.5v.2c0 .1-.1.1-.1.2l-.1 1.5-.1 1.5v2.8c0 .1.1.2.1.3v.3l.1.4v.3c0 .1.1.2.1.4v.4l.1.6.1.6c0 .1.1.2.1.3 0 .1 0 .2.1.3l.1.3v.2l.1.6c0 .1.1.2.1.3 0 .1 0 .2.1.3l.2.6.1.3.1.2c.1.5.3.9.6 1.2v.1l.1.2.1.2c0 .1.1.1.1.1v.1l.3.4.2.3c0 .1.1.1.1.1v.1l.3.6c.1.2.3.4.5.6 0 0 0 .1.1.1l.3.3.5.7.7.9c.1.1.2.2.3.2.1.1.2.3.4.4l.7.5.5.5s.1 0 .1.1l.1.1.8.7c.1.1.3.2.4.3.1.1.2.2.3.2l.7.4.8.6c.1.1.2.1.4.2.1 0 .1.1.2.1l.9.4.6.4c.1 0 .1.1.2.1l.1.1 1 .5c.1.1.2 0 .4.1.1 0 .2.1.4.2l.7.1.5.2c.3.1.5.2.8.3l1 .2 1.1.2h.4l1.1.1.8.1 1 .2c.2 0 .5.1.7.1h3.2c.2 0 .5 0 .7-.1l1-.2 1-.1 1-.1H271.6l1.1-.2c.1 0 .2-.1.2-.1.1 0 .2 0 .3-.1l.9-.3 1-.3 1-.3.1-.1c.1 0 .2-.1.4-.1l.9-.5.9-.5h.1l1-.6c.1 0 .1-.1.1-.1.1 0 .1-.1.2-.1l.7-.5.8-.5.3-.3c.1-.1.2-.1.3-.2l.5-.5.7-.5c.2-.1.3-.3.4-.4.1-.1.2-.1.3-.2l.7-.8.2-.2h.1v-.1c.2-.2.4-.4.5-.6l.1-.2.1-.1c.1-.1.1-.2.2-.2 0-.1.1-.1.2-.1l.3-.5c0-.1 0-.1.1-.2s.2-.2.3-.4l.1-.2c.2-.2.3-.3.4-.5l.3-.6c0-.1 0-.1.1-.2s.1-.2.2-.3l.2-.6.1-.3.2-.3s0-.1.1-.1c.2-.3.3-.6.4-1v-.2l.1-.3v-.2c0-.1.1-.1.1-.2l.2-.8v-.1-.1l.1-.5v-.1c0-.1 0-.1.1-.1l.1-.7v-.3c0-.1.1-.2.1-.3v-.2-.3c0-.1.1-.2.1-.3l.1-.7v-.3c0-.1.1-.2.1-.3v-4.5-.1-.1l-.1-1.7c0-.1-.1-.1-.1-.2v-.2l-.3-1.6-.5-3.2-.1-1.4-.1-1.4v-.1-.1l-.2-1.2v-.6l.2-.8.1-.6v-.4c0-.1.1-.2.1-.4v-.1c0-.1 0-.1.1-.2.1-.2.2-.3.2-.5l.1-.3v-.1-.3c0-.1.1-.2.1-.3v-.1s0-.1.1-.1c.2-.2.4-.5.5-.7l.2-.2c.1-.1.1-.2.2-.2.1-.1.1-.1.2-.1.2-.1.4-.1.6-.3l.1-.1.3-.1.5-.2.1-.1h.1l.5-.1.4-.1H293.4c.5 0 .9-.1 1.4-.3h.1l.6-.1h1l1 .1 1.5.2H299.3l1.4.1 1.2.2 1.5.4H303.7l1.8.3 1.5.4 1.8.6h.2c.1 0 .1.1.2.1l1.8.4 1.9.7 13.4 4.5h.2c.3.1.7.1 1 .1.4 0 .7-.1 1.1-.2.1 0 .2-.1.3-.2.2-.1.5-.2.7-.3l.3-.3.5-.5c.1-.1.2-.3.2-.5.1-.2.2-.3.3-.5v-.1-.1l3.7-13.1v-.1-.1l4.7-18.8v-.1-.1l.2-1 .3-1.5v-.3c0-.1.1-.2.1-.3l.1-1.5.2-1.5.2-1.8v-.2-1.5l.1-1.5v-.1-5.1c0-.1 0-.2-.1-.3v-.3l-.1-.4v-.3c0-.1-.1-.2-.1-.4v-.8c0-.2-.1-.3-.1-.4v-.4l-.1-.5c0-.1-.1-.2-.2-.4-.1-.1 0-.3-.1-.4l-.1-.2-.1-.3c0-.1-.1-.1-.1-.2-.1-.2-.2-.4-.3-.7-.1-.2-.2-.4-.4-.6-.1-.1-.1-.1-.1-.2l-.1-.1c-.1-.2-.1-.3-.2-.5l-.6-.6c-.1-.1-.2-.3-.4-.4l-.2-.1-.4-.3-.2-.2-.2-.2c-.1-.1-.2-.1-.3-.2-.1-.1-.1-.2-.3-.3l-.3-.2c-.1 0-.1 0-.2-.1-.1 0-.1-.1-.2-.1l-.2-.1c-.1-.1-.2-.1-.4-.1-.1-.1-.2-.1-.4-.2l-.5-.1h-1.2c-.2 0-.4-.1-.6-.1h-1 .3-.4l-1.2.1h-.1-.1l-1.6.2h-.1-.1l-1.1.2-1.2.2-1.4.2h-1.4-.1-.1l-1.8.1-1.6.1h-7.1l-.7-.1h-.7l-.5-.2h-.2c-.1 0-.1-.1-.2-.1l-.5-.1c-.1-.1-.2-.2-.4-.3l-.3-.1-.3-.2s-.1 0-.1-.1l-.1-.1-.4-.2-.7-.4-.3-.3-.7-.7-.1-.1-.1-.1-.6-.5-.5-.5-.3-.4-.4-.7c0-.1-.1-.1-.2-.2s-.1-.2-.1-.2l-.2-.3-.1-.3c-.1-.1-.2-.2-.2-.4-.1-.1-.1-.3-.2-.4l-.3-.4-.2-.5-.1-.1v-.1l-.3-.8-.3-.7-.1-.7v-.1l-.2-.9c0-.1-.1-.1-.1-.1v-.1l-.2-.7-.1-.6v-.1-.2l-.2-1-.1-.8-.1-1V253l.1-1 .1-1 .2-1v-.1-.2l.1-.7.2-.8v-.2c0-.1.1-.1.1-.2l.1-.7.3-.7c0-.1 0-.2.1-.3 0-.1.1-.3.2-.4l.1-.7.2-.4.5-.9v-.1c0-.1.1-.1.1-.2l.4-.9.5-.9.4-.8v-.1c0-.1.1-.1.1-.2l.2-.5.3-.4c0-.1.1-.1.1-.2.1-.1.2-.2.3-.4l.2-.4.5-.5.1-.1.1-.1.5-.6.6-.6.1-.1.1-.1.4-.4.3-.3.7-.5.1-.1s.1 0 .1-.1l.4-.3.3-.2c.1 0 .1-.1.1-.1.1 0 .2-.1.2-.1l.5-.3.5-.2.4-.1h.2l.9-.3s.1 0 .1-.1c.1 0 .2 0 .2-.1l.4-.2.2-.1.6-.1.8-.1h.4l.7-.2.5-.1h1.4l.5.1.7.2h.4l.9.1.8.1.6.1.8.3 1.2.4c.1 0 .2 0 .3.1.1 0 .2.1.2.1l1 .2.9.3c.1 0 .3 0 .4.1.1 0 .1.1.2.1l.6.1.7.2c.4.1.8.2 1.2.2h.5l.4.1h1.1l.5-.1h.4c.4 0 .9-.1 1.3-.3l.6-.2.6-.2c.1 0 .2-.1.3-.2l.6-.3h.1l.1-.1c.2-.1.3-.2.5-.3.3-.2.5-.3.7-.5l.4-.4v-.1c.2-.2.4-.4.5-.6l.1-.2.1-.1c.1-.1.1-.2.2-.2 0-.1.1-.1.2-.1l.3-.5c0-.1 0-.1.1-.2 0-.1.1-.1.1-.2s.1-.1.1-.2l.1-.2c0-.1 0-.2.1-.3.1-.1.1-.3.2-.4l.1-.1c.2-.3.4-.7.5-1.1l.1-.5v-.1V227.3l.1-.3c.1-.1 0-.3.1-.4 0-.2.1-.3.2-.5l.1-1 .1-1.3.1-1.3v-.2-3.2-.1-.1l-.1-1.8-.1-1.8-.1-1.8c0-.1 0-.1-.1-.2v-.2l-.3-2-.3-2-.3-2.2v-.1-.1l-.5-2.4v-.1-.1l-2.8-11.7-7.8-28.9-1.3-6.9-.3-1.8v-.1-.1l-.4-1.7-.1-1.4v-.1-.1l-.2-1.5-.1-1.1v-1.2c0-.1-.1-.2-.1-.3v-.3l-.2-1.1v-.6l.1-.6v-.2c0-.1.1-.1.1-.2l.1-1.1.1-.6.1-.4.1-.3.5-.9.2-.3.2-.2.7-.8s0-.1.1-.1c0 0 .1 0 .1-.1h.1l1.3.3h.4l1.6.2 1 .3H332.5l1.2.2 1.4.2H335.4l1.2.1 1.1.1 1.1.1h3.8l1-.1 1-.1h.1l.8-.1h.4l.9-.2h.1l.8-.2s.1 0 .1-.1h.2l.8-.3.6-.2h.1c.2-.1.5-.2.7-.3l.7-.4.6-.3c.1 0 .1-.1.1-.1.1 0 .2-.1.2-.1l.7-.5.1-.1s.1 0 .2-.1l.6-.5.7-.6.1-.1s.1 0 .1-.1l.6-.6.5-.5c.2-.2.4-.5.6-.7l.3-.5.4-.4s0-.1.1-.1l.2-.2.5-.7.5-.7c.1-.1.1-.2.1-.2.1-.2.2-.3.3-.5l.2-.6.3-.5c0-.1 0-.2.1-.3.1-.1.2-.2.2-.4l.3-1v-.1l.1-.1.1-.5.3-.6c.1-.1.1-.3.1-.4.1-.2.2-.4.2-.6l.1-.7v-.1-.1l.1-.6.1-.3v-.3c0-.1.1-.2.1-.3l.1-.7.1-.8v-.3-.7l.1-.5v-.3-3.3c0-.1 0-.2-.1-.3.4 0 .4-.1.4-.2zm-45.9 203.7l-2.1-.8h-.2c-.1 0-.1-.1-.2-.1l-1.8-.4-1.7-.6h-.2c-.1 0-.1-.1-.2-.1l-1.8-.5h-.1-.1l-1.8-.3-1.5-.4h-.2c-.1 0-.1-.1-.2-.1l-1.6-.2h-.1-.1l-1.4-.1-1.5-.2h-.1-.1l-1.3-.1H294.9l-1.2.1c-.2 0-.3.1-.5.2-.2 0-.3 0-.5.1h-.1-.5l-.6.1h-.1-.1l-.5.1-.5.1-.5.1c-.1 0-.2.1-.4.2-.1 0-.3 0-.4.1l-.5.2-.5.2-.5.2c-.1 0-.1.1-.1.1-.1 0-.1 0-.1.1l-.6.3c-.2.1-.4.2-.6.4-.1.1-.1.1-.2.1l-.1.1c-.2.1-.3.3-.4.4-.1.1-.3.2-.4.4l-.2.3-.3.3c-.1.1-.2.3-.3.5-.1.1-.2.2-.2.3l-.1.1v.1l-.6.9v.1l-.3.6v.1c-.1.2-.3.4-.3.7v.4c0 .1-.1.2-.1.3l-.1.4v.2c0 .1-.1.1-.1.2v.1c-.1.1-.1.3-.1.5-.1.2-.2.3-.2.4l-.1.6v.4c0 .1-.1.2-.1.4v.4l-.2 1.1v.4c0 .1-.1.2-.1.4v1.2c0 .1 0 .2.1.3v.3l.2 1.3.1 1.2.1 1.6v.4l.6 3.4v.2l.3 1.5.1 1.3V347.2l-.1.4c-.1.2 0 .4-.1.6 0 .2-.1.4-.1.6V349.4l-.1.3-.2.5-.2.4c0 .1 0 .2-.1.3 0 .1-.1.1-.1.2l-.1.1c0 .1-.1.2-.1.3 0 .1-.1.2-.2.2l-.2.6-.1.3c-.1.1-.2.3-.3.5-.1.2-.3.3-.4.5l-.2.4-.3.3c-.1.1-.1.2-.2.4l-.3.3-.1.2-.1.1c-.1.1-.1.1-.1.2l-.2.2-.5.6-.5.4-.2.2c-.1.1-.2.1-.2.1l-.4.4-.6.4-.1.1h-.1l-.6.5-.8.4-.8.4-.7.3-.8.3-1 .3h-.1-.1l-.6.2-.7.1-.8.1-1.1.1c-.1 0-.1 0-.2.1h-.2l-.8.2h-2.6l-.8-.2H263.6l-1-.1-1-.1-.9-.2-.5-.1-.5-.3c-.1-.1-.3-.1-.5-.1s-.3-.2-.4-.2l-.7-.1-.5-.2-.6-.4c-.1 0-.1 0-.2-.1-.1 0-.1-.1-.1-.1l-.7-.3-.8-.5c-.1 0-.1 0-.2-.1-.1 0-.1-.1-.2-.1l-.5-.3-.4-.3-.6-.6c-.1-.1-.1-.1-.2-.1l-.2-.2-.5-.4-.5-.6-.1-.1v-.1l-.7-.8-.1-.1s0-.1-.1-.1l-.1-.1v-.1l-.2-.3-.1-.1v-.1l-.3-.4-.2-.3c-.1-.1-.1-.2-.2-.3 0-.1 0-.1-.1-.2v-.2l-.2-.6-.1-.3v-.2l-.1-.6c0-.1-.1-.2-.1-.3 0-.1 0-.2-.1-.3l-.1-.3V348.7c0-.1 0-.2-.1-.3v-.3l-.1-.4v-2.2l.1-1.3.1-1.2.3-1.4v-.1-.1l.7-4v-.1-.1l.1-1.1.1-1v-.2V334.3l.1-.6v-.4c0-.1.1-.3.1-.4v-2.3c0-.2-.1-.4-.1-.6 0-.2 0-.4-.1-.6l-.1-.4-.1-.5c0-.1-.1-.1-.1-.2v-.2l-.1-.3-.1-.5v-.1c0-.2-.2-.4-.2-.7-.1-.2-.2-.5-.3-.7 0 0 0-.1-.1-.1l-.1-.2-.1-.2c-.1-.1-.1-.2-.2-.3-.1-.1-.1-.2-.1-.3l-.3-.5c-.1-.1-.3-.2-.4-.3-.1-.1-.1-.2-.2-.3l-.5-.5c-.1-.1-.1-.1-.2-.1l-.2-.2-.5-.3h-.1s0-.1-.1-.1l-.3-.2c-.2-.1-.4-.2-.7-.3-.2-.1-.4-.2-.7-.3h-.2c-.1-.1-.3-.1-.4-.1-.2-.1-.3-.2-.5-.2l-.7-.1-.4-.1-.4-.1c-.2-.1-.4 0-.6-.1-.2 0-.4-.1-.6-.1h-2.3c-.2 0-.3.1-.4.1h-.4l-.5.1h-1l-.8.1-1.1.1h-.1-.1l-6.2.9c-.1 0-.2.1-.4.1-.1 0-.2 0-.4.1l-22.8 8.4-7.5-25.9-1.3-6.5v-.1-.1l-.3-1.3-.3-1.4-.2-1.3-.1-1.6c0-.1-.1-.1-.1-.2v-.2l-.3-1.3v-1.3-.1-.1l-.1-1.5v-4.2l.1-.4v-.3-.1c.1-.2.2-.3.2-.5l.1-.5.1-.3c.1-.1.2-.3.3-.5 0-.1.1-.1.1-.1l.5-.6.7-.7c.1 0 .1-.1.2-.2h1.4l1.5.1 1.6.1 1.5.3h.4l1.4.1 1.4.1h6.4l.9-.1H213l1-.2h.2l.8-.2.8-.2s.1 0 .1-.1h.2l.9-.3.6-.2c.1 0 .1-.1.2-.1.2-.1.5-.2.7-.3l.5-.3.7-.4h.1l1-.6c.1-.1.2-.1.2-.2.1-.1.2-.1.4-.2l.8-.7.1-.1s.1 0 .1-.1l.8-.8.7-.6.9-.8c.2-.2.4-.4.6-.7l.6-.9.6-.8v-.1c0-.1.1-.1.1-.2l.6-.9v-.1c0-.1.1-.1.1-.2l.5-1.1.5-.9c0-.1 0-.1.1-.2 0-.1.1-.2.1-.2l.5-1.1.5-1.1.5-1.1c0-.1 0-.2.1-.3 0-.1.1-.2.1-.3l.2-1.1.2-1 .3-.9v-.4c0-.1.1-.2.1-.4l.1-1.2.2-.9v-.4c0-.1.1-.2.1-.4v-2.3c0-.1-.1-.2-.1-.3v-.3l-.2-.9v-.8c0-.1-.1-.2-.1-.3v-.3l-.2-1.2-.2-1.1-.2-1.1c0-.1-.1-.2-.1-.2v-.3l-.5-1.3s0-.1-.1-.1v-.1l-.4-.8-.3-.9c0-.1-.1-.2-.1-.3 0-.1 0-.2-.1-.3l-.6-1.1-.1-.1v-.1l-.6-1c0-.1-.1-.1-.2-.2s-.1-.2-.1-.2l-.8-1-.1-.1v-.1l-.7-.8-.4-.4-.3-.4-.2-.2c-.1-.1-.1-.2-.1-.2l-.5-.5c-.1-.1-.1-.1-.2-.1l-.2-.2c-.1-.1-.3-.2-.4-.3-.1-.1-.2-.3-.3-.4l-.5-.3-.5-.3s-.1 0-.2-.1c-.1 0-.1-.1-.1-.1l-.4-.2-.3-.2c-.1-.1-.3-.1-.4-.2-.1-.1-.2-.2-.4-.3l-.4-.2-.3-.2-.5-.2c-.1 0-.2 0-.2-.1-.1 0-.1-.1-.2-.1l-.4-.1-.2-.1c-.1 0-.2 0-.2-.1-.1 0-.1-.1-.2-.1l-.7-.2h-.1s-.1 0-.1-.1l-.5-.1h-.2c-.1 0-.1-.1-.2-.1l-.4-.1-.2-.1c-.2-.1-.4-.1-.7-.1-.2 0-.4-.1-.7-.1h-.4l-.4-.1h-.3c-.1 0-.2-.1-.3-.1h-.4l-.5-.1h-.3c-.1 0-.2-.1-.3-.1h-3-.1-.1l-1.6.1h-.4l-1.8.3-1.9.1h-.4l-1.5.2-1.2.1h-1l-.1-.1c-.1-.2-.3-.3-.4-.5 0 0 0-.1-.1-.1l-.4-.3c-.1-.2-.2-.3-.3-.5l-.3-.3v-.1c0-.1-.1-.1-.1-.2-.1-.2-.2-.4-.3-.7v-.2c0-.2 0-.5-.1-.7l-.1-.2v-5.7l.1-1.7.2-1.9.2-2.2.3-2.2v-.1-.1l.2-2.1.3-2 .4-1.8 1.5-6.1 7 1.7 3.4.9H209.7l3 .6 2.5.5h.2l2.6.5 2.2.4H220.5l2.2.2h.1l1.9.1 1.7.1H232.5l2.1-.2 1.6-.1h.2l.8-.1h.4l.7-.2.6-.1h.1c.4-.1.8-.2 1.2-.4l.3-.2.3-.1c.1 0 .2-.1.3-.2l.6-.3.3-.2.1-.1c.2-.1.3-.2.5-.4.2-.1.3-.2.5-.3l.5-.5c.3-.3.5-.6.7-.9l.1-.2.1-.2v-.1c.3-.4.5-.8.6-1.2v-.2-.1c.1-.2.1-.5.2-.7.1-.2.1-.5.1-.7.1-.2.1-.4.1-.7 0-.2.1-.4.1-.6V197.4v-.1c0-.2-.1-.5-.1-.7-.1-.2-.1-.4-.1-.6l-.1-.5c0-.1 0-.1-.1-.2v-.2l-.2-1.1c0-.1-.1-.1-.1-.2v-.2l-.3-1.1-.5-1.5-.1-.5-.1-.5-.1-1.1v-.2-.2l-.2-.9v-.8-.2-.2l-.1-.8.1-.8v-.2V183.7l.1-.6v-.2c0-.1.1-.1.1-.2l.1-.9.1-.5.2-.5c0-.1 0-.2.1-.3 0-.1.1-.2.1-.4l.2-.8.2-.6.2-.5.3-.5.4-.5.5-.6.3-.3.4-.3.1-.1c.3-.2.6-.5.8-.9l.1-.2.1-.1.4-.2h.1l1-.6.6-.4.5-.2.7-.1c.1 0 .1 0 .1-.1h.2l.8-.3.9-.2H253.6l.9-.3.9-.1 1.1-.1h7.6l1.5.1 1.5.1 1.4.2.7.1.7.1.7.1h.2c.3.2.7.3 1.1.4h.2l.2.1c.1 0 .1 0 .2.1 0 0 .1 0 .1.1l.3.1.3.2c.1.1.2.1.4.2.1 0 .1.1.2.1h.1l.1.1c.2.2.4.2.6.3.1.1.2.1.3.2h.1l.1.1.4.3.2.2.3.4.1.1c0 .1.1.1.1.2l.1.1.3.4.5.7c0 .1.1.1.1.2 0 0 0 .1.1.1l.3.4 1 1.8.4.8c0 .1.1.1.1.2v.1l.3.5.1.3v.2l.3.9.1.3.1.5c0 .1.1.2.1.3v.2l.1.3V185.2l-.1.5v.3c0 .1-.1.2-.1.3l-.1 1-.1.9-.3.9v.2c0 .1-.1.1-.1.1l-.5 1.7v.3c0 .1-.1.2-.1.3l-.1.7-.1.5v.2l-.2.9v.2c0 .1-.1.1-.1.2l-.1.8v3.5c0 .1 0 .2.1.3v.3l.1.7c0 .1.1.2.1.3v.3l.2.5.1.3v.2l.2.8.3.6c0 .1 0 .2.1.3l.2.3.1.3c.1.2.2.3.3.4 0 .1 0 .2.1.2l.5.7c0 .1.1.1.1.2 0 0 0 .1.1.1l.3.4c.1.1.1.2.2.3.2.3.5.6.8.8l.1.1.2.1s0 .1.1.1c.1.1.1.1.2.1.2.2.4.3.6.4l.6.3c.1 0 .1.1.2.1l.5.1c.3.1.6.1.9.1H285.8l.6.1c.2 0 .5.1.7.1h3l1.7-.1h.2l1.8-.2h.1l1.9-.3h.1l2.2-.4 2.4-.3h.4l2.7-.7 2.7-.7 3-.7h.2l3.3-.9 3.4-.9 13.6-3.9 1.9 7.9.4 2.3.3 2.1.3 2 .3 1.9.1 1.6.1 1.8.1 1.7V223.4l-.1 1.1-.1 1.2v.6c0 .1 0 .2-.1.3 0 .1-.1.2-.1.3l-.1.4-.1.1-.2.5c-.1.1-.1.3-.1.4l-.2.2c-.1.1-.1.2-.2.4l-.3.3c-.1.1-.3.1-.4.2h-1.2c-.1 0-.2-.1-.3-.1h-.2l-.5-.2h-.4c-.1 0-.2-.1-.4-.1l-.7-.1-.8-.2h-.2c-.1 0-.1-.1-.2-.1l-.9-.2-1-.3h-.1l-1-.3h-.2c-.1 0-.1-.1-.2-.1l-1-.2h-.2c-.1 0-.1-.1-.2-.1l-1-.1-.7-.1-.7-.2h-.2c-.1 0-.1-.1-.2-.1l-.9-.1H315.3l-.9.1c-.1 0-.1.1-.2.1h-.2l-.7.2-.6.1-.9.1c-.1 0-.2.1-.3.1h-.3l-.8.2c-.1 0-.2.1-.3.1-.1 0-.2 0-.3.1l-.5.3-.7.3-.6.2c-.1 0-.1.1-.2.1s-.2 0-.2.1l-.9.5c-.1 0-.1.1-.2.1s-.1 0-.2.1l-.5.3-.5.2-.3.3c-.1.1-.3.1-.4.2l-.6.5-.7.5-.1.1s-.1 0-.1.1l-.7.6c-.1.1-.1.2-.2.3-.1.1-.2.1-.3.2l-.5.6-.6.6-.1.1-.1.1-.5.6-.7.7c-.1.1-.2.3-.3.4-.1.1-.2.2-.3.4l-.3.5-.5.5c-.1.1-.2.3-.3.5-.1.1-.2.3-.3.4l-.4.9-.4.6-.6 1v.2l-.1.1-.4.9-.5.9v.2l-.5.9c-.1.1-.1.3-.1.5-.1.2-.2.3-.2.4l-.1.7-.3.7c-.1.1 0 .3-.1.4 0 .1-.1.2-.2.4l-.2 1-.3 1v.3c0 .1-.1.2-.1.3l-.1.9-.2 1v.2c0 .1 0 .1-.1.2l-.1 1.1-.1 1.1V258l.1 1.1.1 1V260.4l.2 1 .1.9c0 .1.1.3.1.4v.4l.3.9.2.8.2.9c0 .1.1.3.2.4 0 .1 0 .2.1.3l.4 1 .3.6.3.9c.1.4.3.7.5 1l.4.6.2.4c.1.3.3.6.5.8v.1l.4.5.4.7c.1.1.1.2.2.3 0 0 0 .1.1.1l.6.7.1.1.1.1.7.7.1.1.1.1.6.5.6.6.7.7c.1.1.3.2.4.3.1.1.2.2.4.3l1.2.7h.1l.3.2.4.3c.1.1.2.1.4.1.1 0 .1.1.2.1l.1.1h.2c.1.1.2.1.3.2.3.2.6.3.9.4.1 0 .1.1.2.1l.6.1.3.1.5.2h.3c.1 0 .1.1.2.1l.6.1c.2 0 .5.1.7.1h.5l.7.1h8.1l1.7-.1 1.7-.1h2l1.7-.2h.1l1.4-.2h.1l1-.2 1.4-.2 1-.1h1l.1.1.1.1.1.1.4.3c.1.2.3.4.4.6v.1c0 .1.1.2.1.3v.1c0 .1.1.2.1.4v.8c0 .1 0 .2.1.3v.3l.1.4v4.6l-.1 1.5v1.4l-.2 1.6-.2 1.5v.2l-.1 1.3-.3 1.2v.1l-.2 1-4.6 18.6-2.7 9.3-9.6-5.3zm-124 14.6l-4.5 1.5-3.9 1.2-.1.1h-.1l-1.4.6-1.3.3c-.1 0-.1.1-.2.1h-.2l-1.5.5-1.2.4-1.1.2s-.1 0-.1.1h-.1l-1.1.3-.9.1c-.1 0-.2.1-.3.1h-.3l-1 .3-.7.1H170l-1 .1h-2.4l-.4-.1h-.3c-.1 0-.2-.1-.3-.1h-.2c-.1 0-.2 0-.2-.1-.1 0-.2-.1-.4-.2l-.3-.1-.2-.1-.3-.1-.5-.3-.7-.5c-.1-.1-.3-.1-.4-.2-.1-.1-.3-.2-.4-.2l-.8-.3-.3-.2-.4-.3s-.1 0-.1-.1l-.1-.1-.7-.5-.3-.3-.3-.4c-.1-.1-.2-.1-.2-.2v-.1s0-.1-.1-.1l-.1-.2c-.1-.2-.2-.3-.4-.5-.1-.1-.1-.2-.2-.2v-.1l-.1-.1-.1-.1c0-.1-.1-.2-.1-.2l-.2-.5c0-.1-.1-.2-.2-.4v-.1-.1-.1l-.1-.5c0-.1-.1-.1-.1-.2v-.2l-.1-.2c0-.1-.1-.2-.1-.4v-2.5l.1-.6v-.4c0-.1.1-.2.1-.4v-.3l1.3-5.7.6-2.5v-.1-.1l.3-2.2.3-2.2v-.1-.1l.1-.9v-.2-.7l.1-.3v-.5c0-.2.1-.3.1-.5v-2.3c0-.2-.1-.4-.1-.6 0-.2 0-.4-.1-.6V308.2c0-.1 0-.2-.1-.3v-.3l-.1-.7v-.1-.1l-.1-.6c0-.2-.1-.3-.2-.4-.1-.2-.1-.3-.1-.5l-.1-.2v-.1c0-.1-.1-.1-.1-.2v-.2l-.2-.7c0-.1-.1-.1-.1-.2s0-.2-.1-.2l-.3-.7c0-.1-.1-.1-.1-.2s0-.1-.1-.2l-.2-.3-.1-.2c-.1-.2-.2-.3-.2-.4-.1-.1-.1-.3-.2-.4l-.5-.7-.1-.1s0-.1-.1-.1l-.3-.4-.9-1.4c0-.1-.1-.1-.2-.2 0-.1-.1-.1-.1-.2l-1-1.1v-.1c0-.1-.1-.2-.2-.3-.1-.1-.1-.2-.1-.3l-.3-.5-.2-.2c-.1-.1-.1-.2-.1-.2l-.5-.5-.2-.2-.5-.5c-.1-.1-.3-.2-.5-.3l-.2-.2c-.1-.1-.2-.3-.4-.4l-.5-.3c-.1-.1-.2-.1-.3-.1-.1-.1-.2-.2-.3-.2l-.3-.1-.1-.1c-.1-.1-.2-.1-.3-.1-.1 0-.1-.1-.2-.2l-.9-.4-.9-.4c-.1-.1-.3-.1-.4-.1-.1 0-.2-.1-.4-.2l-.8-.2-.9-.3h-.1l-1.1-.3h-.3c-.1 0-.2-.1-.3-.1l-1-.1-1.1-.1h-1.4l-1.1-.1H133.4l-1 .1-.9.1-.8.1h-.1-.1l-1 .2h-.1-.1l-.8.2s-.1 0-.1.1h-.1l-.7.2-.8.2c-.1 0-.2.1-.3.1-.1 0-.2 0-.3.1l-.6.2-.6.2c-.1 0-.2.1-.3.1-.1 0-.2 0-.3.1l-.9.4-.9.4c-.1 0-.2.1-.2.2-.1.1-.2.1-.3.1l-.4.3-.5.2c-.1 0-.1.1-.2.2-.1 0-.2 0-.3.1l-.9.6c-.1 0-.1.1-.2.2-.1 0-.2.1-.2.1l-.5.4-.7.4c-.1 0-.1.1-.2.2-.1 0-.2.1-.2.1l-.7.6-.7.6c-.1.1-.1.2-.2.3-.1.1-.2.1-.3.2l-.4.4-.6.5c-.1.1-.2.3-.3.4-.1.1-.3.2-.4.4l-.3.4-.4.4c-.2.2-.3.4-.4.6-.1.2-.3.4-.4.6l-.1.3-.2.2c-.1.1-.1.2-.2.3-.1.1-.2.1-.2.2l-.5.8c-.1.1-.1.3-.2.5s-.2.3-.2.5l-.2.6-.2.5v.2l-.3.9v.1s0 .1-.1.1l-.2.8v.5c0 .2-.1.3-.1.5v.8l-.1.7v.9l-.1.5v.5c0 .2-.1.3 0 .5l.1.5v.5c0 .1 0 .2.1.3v.3l.1.7.1.7.1.7c0 .1.1.3.1.4 0 .1 0 .2.1.3l.1.3v.2l.1.6c.1.4.2.7.4 1v.1l.1.1.2.7c.1.4.3.8.6 1.1l.4.5.7 1.8c0 .1.1.1.1.2v.1l.5 1 .2.6v.3c.1.5.2.9.4 1.3l.1.8v.2l.1.4v1.4c0 .2.1.3.1.5v.5l.1.3-.1.3v.5c0 .2-.1.3-.1.5v1.3l-.1.4-.1.7-.1.5v.2l-.1.1-.1.1-.1.1c0 .1 0 .1-.1.2l-.3.3c-.1 0-.1.1-.2.1s-.2.1-.2.1h-.1l-.5.1c-.1 0-.1.1-.2.1H112l-.6.1-1.1.1h-.1-.1l-1.3.2-2.6.3h-2.7l-.5-.1h-.1-.1l-1.1-.1-.6-.1-.8-.2-1.1-.3H99c-.1 0-.1-.1-.2-.1l-1.2-.2-2.6-.5-2.6-.8-2.8-.9-3.1-1-3.1-1.1-3.3-1.1-3.3-1.1-3.2-1.3h-.1-.1l-3.3-1.2-5.9-2.7.4-1.1.6-1.8v-.1-.1l.6-2 .6-2.2.6-2 .7-2.7.6-2.5v-.1-.1l.5-2.5v-.1-.2l.2-2.3.3-2.2v-.2-.2l.1-2.3.1-2.3.1-2.4v-.2-.2l-.1-2.6v-2-.3-.3l-.1-.5v-.4-.3-.3l-.1-.8c0-.1 0-.1-.1-.2v-.2l-.1-.5c0-.1-.1-.2-.2-.4 0-.1 0-.3-.1-.4v-.2c-.1-.5-.3-.9-.6-1.3 0-.1 0-.2-.1-.3l-.3-.7c-.1-.2-.2-.3-.4-.5-.1-.2-.2-.3-.3-.5l-.4-.4-.5-.7-.2-.3s-.1 0-.1-.1v-.1l-.3-.5-.3-.5s-.1 0-.1-.1c-.1-.2-.4-.3-.5-.5-.2-.1-.3-.3-.5-.4l-.1-.1c-.1-.1-.2-.2-.4-.2l-.3-.3-.6-.3c-.2-.1-.4-.1-.6-.2-.2-.1-.4-.2-.6-.2h-.2l-.3-.1H61s-.1 0-.1-.1l-.7-.2h-.4c-.1 0-.2-.1-.3-.1l-.9-.1h-5.4l-1.1.1c-.1 0-.1 0-.2.1h-.2l-1 .2-.7.1c-.1 0-.1.1-.2.1h-.3l-.5.1-.6.1c-.1 0-.2.1-.3.1h-.4l-.7.2s-.1 0-.1.1h-.1l-.8.3-.2.1H43.5l-.5-.2h-.1s-.1 0-.1-.1l-.6-.2-.6-.2h-.1l-.1-.1-.2-.1-.3-.2-.7-.5h-.1l-.1-.1-.3-.2-.5-.4-.3-.3-.7-.7-.1-.1-.2-.4c-.1-.1-.1-.2-.2-.2-.1-.1-.1-.2-.2-.3l-.4-.5-.2-.3-.4-.7-.3-.6-.3-.7-.1-.1v-.1l-.3-.6-.1-.5c0-.1-.1-.1-.1-.2v-.2l-.3-.7-.2-.7-.2-.9-.2-.8-.1-.8-.1-1c0-.1 0-.1-.1-.2v-.2l-.2-.9-.1-.5v-.9-.2-.2l-.1-.8V258.1l.1-1v-.2-1.2l.1-1.1.2-1.3.2-1.5.2-1.4.3-1.3.4-1.1.5-1.4v-.3c0-.1.1-.2.1-.3v-.1l.1-.2v-.1c0-.1.1-.1.1-.2v-.1l.1-.1c.2-.3.5-.7.6-1.1l.1-.3v-.1l.2-.3s0-.1.1-.1c0-.1.1-.1.2-.2l.1-.2.1-.1.3-.3.5-.5.6-.3.3-.2h.4l.4-.1 2.3-.3.7-.1h2.9l.6.2h.3s.1 0 .1.1l.4.1.3.1.9.3 4.4 1.6.7.2c.1 0 .2 0 .3.1.1 0 .1.1.2.1l.7.1h.3l.2.1c.1 0 .2 0 .3.1.1 0 .2.1.3.1l.6.1c.2 0 .5.1.7.1h2.2c.3 0 .6 0 .9-.1l.2-.1c.3 0 .6-.1.9-.2 0 0 .1 0 .1-.1.1 0 .1 0 .2-.1l.5-.2h.1s.1 0 .1-.1c.2-.1.4-.2.7-.4.2-.1.4-.2.5-.3l.2-.1.1-.1c.3-.2.5-.5.8-.8 0-.1.1-.1.2-.2.3-.3.5-.6.7-.9l.1-.1v-.1s0-.1.1-.1l.3-.6c0-.1 0-.1.1-.2s.1-.2.2-.3l.2-.4.3-.5c0-.1 0-.1.1-.2 0-.1.1-.2.1-.3l.7-2 .3-.9v-.2c0-.1.1-.2.1-.3l.2-1v-.1-.1l.2-1.1.3-1.3v-.3c0-.1.1-.2.1-.3l.1-1.3.2-1.5v-.3V221.5v-.2-.2l-.2-2.1-.2-2.4v-.1-.1l-.5-2.6-.4-2.7v-.1-.1l-.6-2.8-.7-3-.7-3.3s0-.1-.1-.1v-.1l-1.7-6.1 2-.8 3.3-1 1.9-.6 1.7-.4 1.8-.4 1.9-.5h.2l1.5-.4 1.6-.4 1-.2h.5c.4 0 .9-.1 1.3-.3H86.8l1.4.2 1.1.2 1.1.2h.1l.3.1.1.1.5.2h.1l.3.3c0 .1.1.1.1.2 0 .2.1.3.1.4v.4l.1.5c0 .1 0 .1.1.1v4.9l-.2 2v.2l-.1 2.2v4l.1 1.6v1.5c0 .1.1.3.1.4v.4l.3 1.2.1 1.1c0 .2.1.3.1.4v.4l.2.5.1.3c0 .1 0 .1.1.1v.1l.2.7.1.4c0 .2.1.3.2.4 0 .1 0 .2.1.3l.2.3v.1c0 .2.1.3.2.4 0 .1 0 .2.1.3l.3.7c0 .1.1.2.2.2 0 0 0 .1.1.1l.2.3.1.2.1.3c.1.2.2.4.4.6 0 .1 0 .1.1.2l.1.2.1.2c.1.2.2.3.3.5 0 .1 0 .1.1.2l.5.6.1.1c0 .1.1.1.1.2l.3.3.5.6.7.9.3.3c.2.2.3.3.4.5l.8.6.7.5.5.4.1.1c.4.3.7.5 1.2.6l.6.2.6.4c.1.1.2.1.4.2.1 0 .1.1.2.1l1 .5.9.4.9.4c.1 0 .1 0 .2.1l.1.1 1.1.5c.1 0 .2 0 .3.1.1 0 .2.1.3.1l.9.2.8.3h.3c.1 0 .1.1.2.1l.9.2.8.3c.1.1.3 0 .4.1.1 0 .2.1.3.1l.9.1h3.7l.9-.1h.4l.7-.2.8-.1h.4l1-.2c.1 0 .2-.1.3-.2.1 0 .2 0 .3-.1l.8-.4.9-.3 1.1-.3.1-.1h.2l1.1-.5.1-.1c.1 0 .2-.1.3-.1l.8-.4.9-.4s.1 0 .1-.1c.1 0 .1 0 .2-.1l1.1-.6.1-.1c.1 0 .1 0 .2-.1l.9-.6.9-.6.9-.6.9-.6c.1 0 .1-.1.2-.2.1 0 .2-.1.2-.1l.7-.6.7-.6.1-.1s.1 0 .1-.1l.7-.7.7-.7c.1-.1.1-.2.2-.3l.2-.2.6-.8.5-.7.5-.6s0-.1.1-.1c.1-.1.2-.2.2-.3l.5-.8.5-.6v-.1c0-.1 0-.1.1-.2.2-.2.3-.5.4-.8l.2-.7.3-.5v-.1c0-.1.1-.1.1-.2l.5-1c0-.1 0-.2.1-.3 0-.1.1-.2.1-.3l.1-.6.3-.7c0-.1 0-.2.1-.3 0-.1.1-.2.1-.3l.2-.9.2-.9v-.4c0-.1.1-.3.1-.4v-.2c0-.2.1-.4.1-.6v-3.5-.1-.1l-.1-1.6-.1-1.5-.1-1.5c0-.1-.1-.2-.1-.2v-.2l-.3-1.5-.3-2.1-.2-1.8-.1-.5v-1.3c.2-.3.5-.6.6-.9v-.1c.1 0 .1-.1.2-.1.1-.1.2-.1.3-.1h.1c.3-.1.7-.2 1-.4l.6-.1.8-.1.7-.1h3.5l1 .1 1.1.1 1.3.1 1 .1 1.2.3 1.5.3H158.2l1.4.2 3.3.6 3.4.8 3.9 1 4.2 1 4.5 1.2 12.6 3.5-1.5 6.2-.5 1.9V207.5l-.3 2.3v.2l-.2 2.1-.3 2.2v.2l-.2 2.3-.2 2v.2l-.1 1.9v6.3c0 .1 0 .2.1.3v.3l.1.7c0 .1.1.3.1.4 0 .1 0 .2.1.3V229.9l.1.5c0 .1.1.2.1.3.1.2.1.3.2.5.1.1.1.3.2.5v.1c0 .1.1.2.1.3.1.2.1.3.2.5.1.3.3.5.5.7v.1s0 .1.1.1l.2.2c0 .1.1.1.2.1.1.1.1.2.2.2l.1.1c0 .1.1.2.2.2.2.3.4.6.7.8l.1.1.3.3c0 .1.1.1.1.2l.2.2c.3.3.6.6 1 .8l.1.1.3.1c.2.1.4.3.6.4l.6.3c.1 0 .2.1.3.1l.5.1c.3.1.6.1.9.1h.1c.2 0 .4.1.7.1h2l1.5-.1h.2l1.4-.2 1.9-.1h.4l1.9-.3 1.3-.1h2.9l.5.1h.9l.4.1h.7c.1 0 .2 0 .3.1.1 0 .2.1.4.1l.6.1h.1l.3.1.2.1c.1.1.2.1.4.1l.1.1.4.1.2.1.5.2c.1 0 .1 0 .2.1 0 0 .1 0 .1.1l.1.1h.1c.1 0 .1.1.2.1l.1.1.4.2.3.2c.1.1.2.2.3.2.1.2.2.4.4.5l.2.2.1.1.2.2v.1l.5.6v.1l.6.7.6.7.4.7.4.8.2.8c0 .1.1.2.1.2v.2l.4.9.3.9.2.9.2 1.1.2.9v.8c0 .1.1.2.1.3v.3l.2.9V254.2l-.2.8v.2c0 .1-.1.1-.1.2l-.1 1-.2.8v.2c0 .1-.1.1-.1.2l-.2 1.2-.1.8-.3.8-.5 1.1-.4.9-.4.8v.1l-.1.1-.5 1-.4.6-.6.8v.1s-.1 0-.1.1l-.4.6-.5.5-.8.7-.1.1s-.1 0-.1.1l-.8.8-.4.4-.6.3-.8.4c-.1 0-.1.1-.2.1s-.1 0-.2.1l-.3.2-.2.1h-.1-.1l-.8.3-.6.2-.7.2-.7.2-.5.1H205.7l-1.2-.1-1.3-.1-1.5-.3h-.2c-.1 0-.2-.1-.2-.1l-1.8-.1-1.6-.1h-.1-2.4c-.2 0-.4.1-.6.1-.2 0-.4 0-.6.1l-.2.1-.3.1c-.2.1-.4.2-.5.3-.2.1-.4.1-.6.2l-.3.2c-.1 0-.1.1-.2.2l-.1.1c-.2.1-.3.2-.5.4-.2.1-.3.2-.5.3l-.3.3-.8.8s0 .1-.1.1l-.1.1-.6.7-.2.2c-.1.1-.1.1-.1.2-.2.2-.3.4-.4.6-.1.2-.2.3-.3.5 0 .1-.1.1-.1.2-.1.2-.3.4-.3.6 0 0 0 .1-.1.1l-.1.3v.1s0 .1-.1.1l-.1.5-.1.5v.4c-.1.2-.1.5-.2.7-.1.2-.1.5-.1.7v.4l-.1.4v.3c0 .1-.1.2-.1.3V286.7l.1 1.5v1.6c0 .1.1.2.1.4v.4l.3 1.5.1 1.5v.2l.2 1.6v.2l.3 1.6v.2l.3 1.3 1.4 6.5c0 .1 0 .1.1.1v.1l7.7 26.5-5.9 3.1zm123-140.3l-3.4.9-3.2.9-3 .7-2.7.7-2.5.6-2.3.3h-.1-.1l-2.2.4-1.8.3-1.6.2-1.5.1h-2.5l-.5-.1-.2-.2-.2-.2-.1-.2c0-.1-.1-.2-.2-.2 0-.1 0-.2-.1-.3l-.1-.2-.1-.3-.1-.4c0-.1-.1-.1-.1-.1v-.1l-.1-.4V194.7l.1-.3.2-.7.2-.7v-.3c0-.1.1-.2.1-.3l.1-.7.3-1.3.4-1.1v-.3c0-.1.1-.2.1-.3l.2-1.4v-.1-.1l.1-.9.2-.7v-.4c0-.1.1-.3.1-.4v-1.8c0-.2-.1-.3-.1-.5v-.5l-.2-.6-.1-.5c0-.1-.1-.2-.1-.3v-.3l-.2-.7v-.1-.1l-.3-.9-.2-.6c0-.1-.2-.2-.2-.4-.1-.1-.1-.3-.1-.4l-.5-.8-.4-.8-.1-.1v-.1l-1.2-2.2c0-.1-.1-.1-.2-.2s-.1-.2-.1-.2l-.4-.4-.4-.6-.5-.7-.3-.3c-.1-.1-.1-.2-.2-.3l-.2-.2-.3-.4c0-.1-.1-.1-.2-.1 0-.1-.1-.1-.1-.2l-.5-.5s-.1-.1-.2-.1c0 0-.1-.1-.1-.2l-.6-.5-.6-.5c-.1-.1-.3-.1-.5-.2s-.3-.2-.5-.3h-.1l-.1-.1c-.1-.1-.3-.1-.5-.2s-.3-.2-.5-.3l-.3-.1-.3-.2c-.1 0-.2-.1-.3-.1-.1 0-.1-.1-.2-.2l-.4-.2-.5-.3c-.2-.1-.4-.1-.5-.1-.2-.1-.3-.2-.5-.2-.4-.2-.9-.4-1.3-.5l-.7-.1-.7-.1-.7-.1-.7-.1-1.6-.2h-.1-.1l-1.6-.1-1.7-.1h-.1H256.3l-1.3.1-1.2.1c-.1 0-.2.1-.3.1h-.3l-1.1.3-1 .2c-.1 0-.1.1-.2.1h-.2l-.9.3-.8.2c-.1 0-.2.1-.3.1-.1 0-.2 0-.4.1l-1 .5c-.1 0-.1.1-.1.1-.1 0-.1 0-.2.1l-.8.4-.9.5-.6.3c-.1 0-.2.1-.3.2-.1.1-.2.1-.3.1l-.9.7c-.2.1-.3.3-.4.5l-.4.4-.1.1-.2.2-.3.3c-.1.1-.3.2-.4.3l-.6.7-.6.7s0 .1-.1.1l-.1.1-.6.8c0 .1 0 .1-.1.2l-.1.1-.5.8c0 .1 0 .1-.1.2 0 .1-.1.1-.1.2l-.3.8v.2l-.2 1v.3c0 .1-.1.1-.1.2l-.1.7-.2.5c0 .1 0 .2-.1.3 0 .1-.1.2-.1.3l-.2 1v.2c0 .1-.1.1-.1.2l-.1.9-.2.8v.4c0 .1-.1.3-.1.4v1l-.1 1v.8l.1 1v1c0 .1.1.2.1.3v.3l.2 1.1.1 1.1v.2l.1.7.1.7c0 .1.1.2.1.3v.3l.6 1.8.3 1 .2.8.1 1c0 .3.1.5.2.7v.5c-.1.2-.1.4-.1.6 0 .1-.1.2-.1.4-.1.1-.1.2-.1.3-.1.1-.2.1-.3.2l-.1.1h-.1c-.1 0-.2.1-.2.2 0 0-.1 0-.1.1h-.1c-.1 0-.1 0-.2.1h-.2l-.7.2-.5.1-1.6.1h-.1-.1l-2 .2h-5.5l-1.6-.1-1.8-.1-1.9-.2-2.1-.4-2.6-.4-2.5-.5h-.1-.1l-2.9-.5-3.3-.9h-.1l-7-1.7 5.7-24.4v-.3c0-.1.1-.2.1-.3l.6-8.3.1-2.5.2-2.1v-.2-3.5c0-.2-.1-.4-.1-.6 0-.2 0-.4-.1-.6l-.1-.2v-.2-.3l-.1-.7-.1-.7s0-.1-.1-.1v-.1l-.1-.4c-.1-.4-.3-.7-.5-.9l-.3-.6c-.1-.2-.2-.5-.3-.7v-.1l-.3-.5-.3-.4-.4-.6-.1-.1s0-.1-.1-.1l-.2-.3-.2-.3c0-.1-.1-.1-.1-.2s0-.1-.1-.2l-.5-.7c0-.1-.1-.1-.1-.1s0-.1-.1-.2l-.6-.7-.6-.7c-.1-.1-.3-.2-.4-.3l-.2-.2c-.1-.1-.1-.2-.2-.3l-.3-.3c-.1-.1-.3-.2-.5-.3-.2-.1-.3-.3-.5-.4l-.3-.1h-.1l-.4-.3c-.1-.1-.2-.1-.3-.1-.1-.1-.2-.2-.3-.2l-.5-.2c-.1 0-.2 0-.3-.1l-.5-.2c-.2-.1-.3-.1-.5-.1-.1-.1-.3-.2-.4-.2l-.6-.1h-.2l-.3-.1c-.2-.1-.5-.1-.7-.1-.2 0-.4-.1-.6-.1h.2-2.8c-.2 0-.3.1-.4.1h-.4l-.7.2-.7-.3-.9.1c-.1 0-.2.1-.3.1h-.4l-.7.2h-.4l-.5.1c-.1 0-.2.1-.3.1-.1 0-.2 0-.3.1l-1 .5c-.1 0-.1.1-.1.1-.1 0-.1 0-.2.1l-.5.3-.7.2c-.1 0-.1.1-.2.1h-.2l-1 .5-.9.4-.8.3-.3.1h-1.1c-.2 0-.4.1-.6.1h-.1c-.2 0-.4-.1-.6-.1H176.3l-.3-.1h-.2c-.1 0-.1-.1-.2-.1l-.5-.1h-.1l-.6-.3-.3-.2-.3-.3-.1-.1-.1-.1-.6-.5-.6-.6-.5-.5-.4-.4-.3-.4-.2-.3-.1-.1c-.1-.1-.2-.2-.2-.3-.1-.1-.1-.2-.2-.3l-.3-.4-.1-.1-.1-.3-.2-.6c0-.1-.1-.2-.2-.2 0-.1 0-.2-.1-.3l-.3-.6-.1-.5c0-.1-.1-.2-.1-.4 0-.1 0-.3-.1-.4l-.2-.5v-.2-.3l-.2-1.5-.2-1.2-.1-1.3v-1.5-.1-.1l-.1-1.7v-8.6l.1-2.5v-.1-1l.1-.6.2-.7v-.4c0-.1.1-.3.1-.4v-.7l.1-.6v-.1l.1-.2c.1-.1.1-.2.1-.4.1-.2.2-.3.2-.5v-.1l.1-.2.1-.1.4-.4.6-.4c.1 0 .1-.1.2-.2.1 0 .2-.1.2-.1l.7-.6.5-.4.2-.1.5-.2.5-.2.8-.2h.1c.2-.1.5-.1.7-.2l.2-.1h.4l.8-.2H179.3l.4.1 1 .2 1.2.2.9.2 1.6.3c.5.3 1.1.4 1.6.4h1.4l1.5.1H191.2l.8-.1h.3c.4 0 .9-.1 1.3-.3h.4l.5-.1.5-.1h.1c.2-.1.5-.1.7-.2l.5-.2.5-.2c.1 0 .1-.1.1-.1.1 0 .2-.1.2-.1l.3-.2.1-.1s.1 0 .1-.1l.2-.1.2-.1s.1 0 .1-.1c.4-.2.7-.5 1-.8l.2-.2c.1-.1.2-.3.3-.4l.1-.1.3-.3c.3-.3.5-.6.7-.9l.2-.5v-.1c0-.1.1-.1.1-.2l.1-.3.2-.3.3-.6v-.1c.2-.4.4-.8.4-1.3l.1-.6.2-.7v-.2c0-.1.1-.2.1-.2l.1-.8.2-.8v-.2c0-.1.1-.2.1-.2l.1-1.3.1-1.1.2-1.4v-.3c0-.1.1-.2.1-.3v-4.8-.2-.2L203 83v-1.6-.2-.2l-.2-1.9V79v-.1l-.3-2.1-.2-2.2v-.1-.1l-.3-2.3V72v-.1l-.5-2.4-1.2-5.7-1.1-5.3-1.1-4.6 30-8.2 6.4-.5 1.6-.1h3.8l.4.1h.6c.2.1.4.2.6.2h.2l.9.3 1.5.8 1.6.8.6.3.6.3.3.2.3.3.2.2.3.3c.1.1.1.1.2.1 0 0 0 .1.1.1 0 .1 0 .1.1.2l.1.1v.2c0 .1.1.2.1.4-.1.2-.1.4-.1.6-.1.2-.1.5-.1.7v.1l-.3.8-.4 1.4-.4 1.1-.4 1.1-1 2.3c0 .1 0 .2-.1.3 0 .1-.1.2-.1.3L245 60l-.4.9v.2l-.1.1-.3 1.1v.2l-.2.5v.2c0 .1-.1.1-.1.2l-.1.8v.3c0 .1-.1.2-.1.3v.8c0 .1-.1.2-.1.4v1.7c0 .1.1.2.1.3v.3l.1.4v.4c0 .1.1.2.1.3v.3l.1.7v.6c0 .1.1.2.1.4v.3l.3.9.2.6c0 .1.1.2.1.3 0 .1 0 .1.1.2l.1.2v.1c0 .1.1.2.1.3 0 .1 0 .2.1.3l.2.6c.1.2.2.4.4.6 0 .1 0 .1.1.2l.3.5c0 .1.1.1.2.1.1.1.1.2.2.2l.2.2c.1.2.2.3.4.4 0 0 0 .1.1.1l.5.5.5.5.3.3.5.5c.1.1.1.1.2.1l.2.2.5.3c.1 0 .1.1.2.1l.1.1.6.3.6.3 1.1.6 1.2.8c.2.1.3.1.5.2.1 0 .1.1.2.1l.6.2.5.3h.2l.9.5c.2.1.3.1.5.2 0 0 .1 0 .1.1l.6.2.8.3h.2l.1.1.7.2 1 .3c.1 0 .3 0 .4.1.1 0 .2.1.2.1l.8.1.9.1.9.1h.9l.6.1c.3.1.5.1.8.1H267.8c.3 0 .7 0 1-.1l.5-.1.6-.1.8-.1.8-.1.8-.1h.1c.3-.1.7-.1 1-.3l.5-.3.7-.3s.1 0 .1-.1c.1 0 .2 0 .2-.1l.7-.3.7-.3h.2l.8-.5.1-.1s.1 0 .1-.1l.7-.5.7-.5.3-.3c.1-.1.2-.1.3-.2l.6-.6.6-.6.1-.1.1-.1.6-.7.6-.7.6-.7s.1-.1.1-.2c.1-.1.2-.2.3-.4l.5-.8c0-.1 0-.1.1-.2s.1-.2.2-.3l.2-.6.3-.5c0-.1 0-.1.1-.2s.1-.2.2-.3l.3-.9c0-.1 0-.2.1-.4 0-.1.1-.3.1-.4l.1-.6.2-.7v-.4c0-.1.1-.3.1-.4v-4.8-.2-.2l-.2-2.5-.2-2.8-.3-3.3v-.1-.1l-.1-.5v-2l.1-.4V53c0-.1.1-.2.1-.3v-.4-.1c.1-.1.1-.3.2-.4v-.2l.1-.3v-.2c0-.1.1-.2.1-.3l.1-.2.1-.2.1-.2v-.1l.1-.1.1-.1c.2-.2.3-.4.4-.6 0 0 .1 0 .1-.1l.1-.1.5-.5.5-.3c.1 0 .1-.1.1-.1.1 0 .1-.1.2-.1l.4-.3.3-.1.1-.1c.1 0 .2-.1.3-.1l.6-.4.6-.3h.5l.5-.1c.1 0 .1-.1.2-.1h.3l.3-.1h.2l.3-.1h.3c.4 0 .8-.1 1.2-.2h4.1l1.6.2h.2l1.6.1 1.9.3 2.1.3 9.6 2 2.6.6 8.9 2.4-2.3 8.3-.6 2.2-.8 2.2v.3c0 .1-.1.1-.1.2l-.4 2.1-.6 2v.2c0 .1-.1.1-.1.2l-.4 2-.6 1.8v.3c0 .1-.1.2-.1.3l-.3 2-.4 1.8-.5 2v.2l-.3 1.9-.3 1.5-.3 1.8v.2c0 .1 0 .1-.1.2l-.1 1.5-.1 1.4-.1 1.3V93.5l.1.7v.3c0 .2.1.3.1.4v.4c0 .2.1.4.1.6 0 .2 0 .4.1.6l.1.3c0 .1.1.2.1.3 0 .1 0 .1.1.2l.1.2v.1l.1.3s0 .1.1.1c0 .1.1.2.2.3.2.3.3.5.5.8v.1l.1.2.6.9v.1l.8.8.8.8.5.5c.1.1.3.2.5.3.2.1.3.3.5.4l.2.1.2.1c.3.2.6.4 1 .5h.1l.3.1h.2s.1 0 .1.1H325.9c.1 0 .1 0 .2.1.4.2.8.3 1.3.3h1c.4 0 .9-.1 1.3-.3.1 0 .1 0 .2-.1H330.2l.7-.1h.1c.3-.1.6-.1 1-.3l.4-.2 2.2-.7c.1 0 .1-.1.2-.1h.2l.6-.2.4-.1.5-.1c.1 0 .1 0 .1-.1h.3l.6-.2.5-.1H338.6c.4 0 .8-.1 1.2-.2H341.5c.4.1.8.2 1.2.2h.3l.4.1h.2c.1 0 .2.1.3.1l.1.1.7.2c.1 0 .2 0 .3.1.1 0 .1.1.2.1.1.1.2.1.3.1.1 0 .1.1.2.1l.3.1.2.1.3.2c.1.1.2.1.2.1.1 0 .1.1.1.1l.2.1c.1.1.3.2.5.3.2.1.3.3.5.4l.2.1.5.5c.1.1.1.1.2.1l.2.2.2.2.3.3.2.2.1.2c.2.3.5.6.7.9l.1.1.2.2.1.1v.1l.5.7.5.7.1.1v.1l.1.1.2.4c.1.3.3.5.4.7 0 0 0 .1.1.2v.2c0 .1.1.2.1.3 0 .1 0 .1.1.2l.3.5.2.4.3.6.1.3.1.3c0 .2.1.4.2.5 0 .1 0 .2.1.4l.1.2v.1c0 .1.1.1.1.2v.2l.2.6.1.5.1.4v.4c0 .1 0 .2.1.3v.3l.1.4v2.4l-.1.5v1l-.1.5-.1.4-.1.4v.4c0 .1-.1.2-.1.3l-.1.8v.1l-.2.4c-.1.1-.1.3-.1.4 0 .1-.1.2-.2.4l-.2.8-.2.6-.3.5c-.1.1-.1.2-.1.3 0 .1-.1.2-.2.2l-.2.5-.2.3-.3.5-.4.5c-.1.1-.1.2-.2.3-.1.1-.2.1-.2.2l-.2.4-.2.2-.5.5-.5.4-.4.3-.4.2-.5.2s-.1 0-.1.1h-.1l-.4.2-.4.1s-.1 0-.1.1h-.1l-.8.3-.6.2-.7.2-.6.1-1 .1-.8.1h-2.7l-1-.1-1.1-.1-1.1-.1-1.2-.2-1.1-.2-1.1-.3h-.3c-.1 0-.2-.1-.2-.1l-1.6-.2-1.2-.3h-.1-.1l-.6-.1h-.4c-.1 0-.2-.1-.4-.1h-1.1c-.2 0-.4.1-.6.1H326.6c-.6.1-1.1.3-1.6.7-.2.1-.4.2-.6.4-.2.1-.4.2-.5.3 0 0-.1 0-.1.1l-.3.3c-.1.1-.1.1-.1.2l-.2.2-.3.4-.6.7v.1h-.1l-.5.6c-.1.1-.1.2-.2.3-.1.1-.2.2-.2.3l-.3.7-.5.9-.3.7c-.1.1-.1.3-.1.4-.1.1-.1.3-.2.4l-.2 1v.1s0 .1-.1.1l-.1.8v.2l-.1.9-.2.8v.4c0 .1-.1.3-.1.4v1.3c0 .1 0 .2.1.3v.3l.2 1.1V149.2l.1 1.4v.2l.2 1.5.1 1.6c0 .1.1.2.1.3v.3l.4 1.9.3 1.7 1.4 7s0 .1.1.1v.1l6.9 25.5-14.6 3.9z"/></symbol><symbol id="stethoscope" viewBox="0, 0, 387.7, 379.2"><path d="M332.1 112c-10.7 0-19.4 8.7-19.4 19.3 0 10.7 8.7 19.3 19.4 19.3s19.4-8.6 19.4-19.3c0-10.6-8.7-19.3-19.4-19.3z"/><path d="M332.1 87c-23.2 0-42.4 17.7-44.5 40.3h-11.4c-23.4 0-42.5 20-42.5 44.5v120.8c0 32.7-28.1 60.4-61.3 60.4h-1.2c-33 0-59.9-27.1-59.9-60.4V222c22.9-3.4 46.3-21.2 63.7-48.8 2-3.1 2.3-6.8 1.2-10 11.9-21.5 18.9-45.9 19.8-69.4h.3v-17c0-27.6-18.5-50.9-43.8-58.5-2.7-5-9.3-8.6-17-8.6-10.1 0-18.3 6.1-18.3 13.6s8.2 13.6 18.3 13.6c5 0 9.5-1.5 12.8-3.9 18.8 5.7 32.5 23.2 32.5 43.7v15.7h-.2c-.7 21-7.1 43.5-17.7 63.1-3.2.6-6 2.5-7.8 5.3-14.8 23.5-34.5 38.2-51.5 38.5-16.9-.2-36.6-15-51.5-38.5-1.8-2.8-4.6-4.7-7.8-5.3-10.6-19.5-17-42.1-17.7-63.1h-.2V76.8c0-20.5 13.7-38 32.5-43.7 3.3 2.4 7.8 3.9 12.8 3.9C81.8 37 90 30.9 90 23.4S81.8 9.8 71.7 9.8c-7.7 0-14.3 3.6-17 8.6C29.4 25.9 11 49.2 11 76.8v17h.3c.9 23.6 7.9 47.9 19.8 69.4-1.1 3.2-.8 6.9 1.2 10C49.7 200.8 73.1 218.5 96 222v70.6c0 41.7 33.8 75.7 75.3 75.7h1.2c41.6 0 76.7-34.7 76.7-75.7V171.8c0-16.1 12.1-29.2 27.1-29.2H289c5 19.1 22.5 33.2 43.2 33.2 24.6 0 44.7-19.9 44.7-44.4-.1-24.5-20.2-44.4-44.8-44.4zm0 73.4c-16.1 0-29.1-13-29.1-29s13.1-29 29.1-29c16.1 0 29.1 13 29.1 29s-13 29-29.1 29z"/></symbol></svg>