<?xml version="1.0" encoding="utf-8"?>
<!-- Generator: Adobe Illustrator 21.1.0, SVG Export Plug-In . SVG Version: 6.00 Build 0)  -->
<svg version="1.1" xmlns="http://www.w3.org/2000/svg" xmlns:xlink="http://www.w3.org/1999/xlink" x="0px" y="0px"
	 viewBox="0 0 432 169" style="enable-background:new 0 0 432 169;" xml:space="preserve">
<style type="text/css">
	.st0{opacity:0.25;fill-rule:evenodd;clip-rule:evenodd;fill:#292865;}
	.st1{fill-rule:evenodd;clip-rule:evenodd;fill:#E4C2BE;}
	.st2{fill:#282965;}
	.st3{fill:#FFFFFF;}
	.st4{fill:#E8E6F3;}
	.st5{fill:#292865;}
	.st6{fill-rule:evenodd;clip-rule:evenodd;fill:#292865;}
	.st7{fill:#E5348A;}
	.st8{fill:#AED5AA;}
	.st9{opacity:0.25;fill:#292865;}
	.st10{fill:#A69ACA;}
	.st11{fill-rule:evenodd;clip-rule:evenodd;fill:#BEB9DC;}
	.st12{fill:#ED3594;}
	.st13{fill-rule:evenodd;clip-rule:evenodd;fill:#272264;}
	.st14{fill-rule:evenodd;clip-rule:evenodd;fill:#656666;}
	.st15{fill:#656666;}
</style>
<g id="Logo">
	<g id="Paper">
		<path id="Shadow" class="st0" d="M49,34.3h70c6.6,0,12,5.4,12,12v94.2c0,6.6-5.4,12-12,12H49c-6.6,0-12-5.4-12-12V46.3
			C37,39.7,42.4,34.3,49,34.3z"/>
		<g>
			<path id="Board_3_" class="st1" d="M40,28.6h75.2c4.5,0,8.2,3.7,8.2,8.2v100.1c0,4.5-3.7,8.2-8.2,8.2H40c-4.5,0-8.2-3.7-8.2-8.2
				V36.7C31.8,32.2,35.5,28.6,40,28.6z"/>
			<path id="Board_1_" class="st2" d="M115.1,28.6c4.5,0,8.2,3.7,8.2,8.2v100c0,4.5-3.7,8.2-8.2,8.2H40c-4.5,0-8.2-3.7-8.2-8.2v-100
				c0-4.5,3.7-8.2,8.2-8.2H115.1 M115.1,24.6H40c-6.7,0-12.2,5.5-12.2,12.2v100c0,6.7,5.5,12.2,12.2,12.2h75.2
				c6.7,0,12.2-5.5,12.2-12.2v-100C127.3,30,121.8,24.6,115.1,24.6L115.1,24.6z"/>
		</g>
		<path class="st3" d="M108.2,134H47.5c-3.3,0-6-2.7-6-6V42.9c0-3.3,2.7-6,6-6h60.7c3.3,0,6,2.7,6,6V128
			C114.2,131.3,111.6,134,108.2,134z"/>
		<path id="Shadow_1_" class="st0" d="M98,49.1H61.9c-4.9,0-9-4-9-9v-2.3c0-5,4.1-9,9-9H98c5,0,9,4.1,9,9v2.3
			C107,45.1,102.9,49.1,98,49.1z"/>
		<path class="st4" d="M95,29.2h-5.7c0-0.4,0.1-0.8,0.1-1.2v0c0-6.6-5.4-11.9-11.9-11.9h0c-6.6,0-11.9,5.4-11.9,11.9v0
			c0,0.4,0,0.8,0.1,1.2H62c-4.3,0-7.8,3.5-7.8,7.8s3.5,7.8,7.8,7.8h33c4.3,0,7.8-3.5,7.8-7.8S99.3,29.2,95,29.2z"/>
		<path class="st5" d="M67.4,30.7v-4.1c0-4.5,3.7-8.2,8.2-8.2h4c4.5,0,8.2,3.7,8.2,8.2v4.1h8.2c2.2,0,4.1,1.8,4.1,4.1v4.1
			c0,2.3-1.8,4.1-4.1,4.1H59.2c-2.2,0-4.1-1.8-4.1-4.1v-4.1c0-2.3,1.8-4.1,4.1-4.1H67.4L67.4,30.7z M63.3,26.6h-4.1
			c-4.5,0-8.2,3.6-8.2,8.2H47c-4.5,0-8.1,3.6-8.1,8.2v85.8c0,4.5,3.6,8.2,8.1,8.2h61.2c4.5,0,8.1-3.6,8.1-8.2V43
			c0-4.5-3.6-8.2-8.1-8.2h-4.1l0,0c0-4.5-3.6-8.2-8.2-8.2h-4.1c0-6.8-5.5-12.3-12.3-12.3h-4C68.8,14.4,63.3,19.8,63.3,26.6
			L63.3,26.6L63.3,26.6z M104.1,38.9h4.1c2.2,0,4.1,1.8,4.1,4.1v85.8c0,2.3-1.8,4.1-4.1,4.1H47c-2.2,0-4.1-1.8-4.1-4.1V43
			c0-2.3,1.8-4.1,4.1-4.1h4.1c0,4.5,3.6,8.2,8.2,8.2h36.7C100.4,47.1,104.1,43.4,104.1,38.9L104.1,38.9L104.1,38.9z M77.6,30.7
			c1.1,0,2-0.9,2-2c0-1.1-0.9-2-2-2c-1.1,0-2,0.9-2,2C75.5,29.8,76.4,30.7,77.6,30.7L77.6,30.7z"/>
	</g>
	<g id="Signature_Line">
		<path class="st6" d="M104.5,124.6H71c-0.6,0-1-0.5-1-1v-0.1c0-0.6,0.5-1,1-1h33.4c0.6,0,1,0.5,1,1v0.1
			C105.5,124.1,105,124.6,104.5,124.6z"/>
		<path id="Signature" class="st7" d="M81.2,126c-0.4,0-0.8-0.3-1.2-1c-1-1.6-0.8-3.3,0.8-4.8c0.9-0.9,2-1.6,3.1-2
			c0-0.4,0.1-0.9,0.1-1.3c0-0.1,0-0.3,0-0.6c0-1.5,0.1-5.6-1.2-5.7c-0.7-0.1-2.4,2-3,3.1c-1.9,3.3-2.8,5.9-2.4,7.8
			c0,0.2-0.1,0.4-0.3,0.4c-0.2,0-0.3-0.1-0.4-0.3c-0.3-2,0.5-4.8,2.5-8.2c0,0,2.1-3.6,3.6-3.4c1.9,0.3,1.8,4.4,1.8,6.4
			c0,0.2,0,0.4,0,0.6c0,0.4,0,0.7,0,1.1c0.4-0.1,0.8-0.2,1,0c0.3,0.2,0.4,0.7,0.4,1.3c0,0.3,0,0.6,0,0.9c0,0.3-0.1,0.9,0,1.1
			c0,0,0.2,0,0.5-0.3c0.1-0.1,0.2-0.2,0.3-0.3c0.5-0.5,1-1,1.6-1c0,0,0,0,0,0c1,0,1.1,0.6,1.2,1.1c0.1,0.3,0.1,0.5,0.3,0.7
			c0.5,0.5,1,0.1,2-0.8c0.7-0.7,1.4-1.4,2.2-1.2c0.4,0.1,0.8,0.5,1.1,0.9c0.2,0.3,0.4,0.6,0.7,0.7c0.5,0.2,1.1,0.2,1.6,0
			c0.2-0.1,0.4,0,0.4,0.2c0.1,0.2,0,0.4-0.2,0.4c-0.6,0.2-1.4,0.2-2.1,0c-0.4-0.2-0.7-0.5-0.9-0.9c-0.2-0.3-0.5-0.6-0.7-0.7
			c-0.5-0.1-1.1,0.5-1.7,1c-0.8,0.8-1.9,1.8-2.9,0.8c-0.3-0.3-0.4-0.7-0.5-1c-0.1-0.4-0.1-0.5-0.6-0.5c-0.4,0-0.8,0.5-1.2,0.9
			c-0.1,0.1-0.2,0.2-0.3,0.3c-0.4,0.3-0.9,0.6-1.3,0.4c-0.4-0.3-0.4-0.9-0.4-1.7c0-0.3,0-0.6,0-0.9c0-0.6-0.1-0.7-0.1-0.7
			c0,0-0.2,0-0.8,0.2c-0.2,1.5-0.7,3.1-1.5,4.9c-0.1,0.2-0.1,0.3-0.2,0.5C82.4,125.1,82,126,81.2,126C81.3,126,81.3,126,81.2,126z
			 M83.8,119c-0.9,0.4-1.8,1-2.5,1.7c-0.7,0.7-1.8,2.2-0.7,3.9c0.4,0.6,0.6,0.7,0.7,0.7c0.3,0,0.7-0.9,0.9-1.5
			c0.1-0.2,0.1-0.4,0.2-0.5C83.1,121.8,83.6,120.4,83.8,119z"/>
	</g>
	<g>
		<g>
			<path class="st3" d="M61,108.2h-6.5c-1.1,0-2-0.9-2-2v-6.5c0-1.1,0.9-2,2-2H61c1.1,0,2,0.9,2,2v6.5C63,107.3,62.1,108.2,61,108.2
				z"/>
			<path class="st2" d="M61,97.7c1.1,0,2,0.9,2,2v6.5c0,1.1-0.9,2-2,2h-6.5c-1.1,0-2-0.9-2-2v-6.5c0-1.1,0.9-2,2-2H61 M61,95.7h-6.5
				c-2.2,0-4,1.8-4,4v6.5c0,2.2,1.8,4,4,4H61c2.2,0,4-1.8,4-4v-6.5C65,97.5,63.2,95.7,61,95.7L61,95.7z"/>
		</g>
		<path class="st6" d="M104.9,104.1H71.5c-0.6,0-1-0.5-1-1v-0.1c0-0.6,0.5-1,1-1h33.4c0.6,0,1,0.5,1,1v0.1
			C106,103.6,105.5,104.1,104.9,104.1z"/>
	</g>
	<g id="Checkbox_1_">
		<g>
			<path class="st8" d="M61,87.1h-6.5c-1.1,0-2-0.9-2-2v-6.5c0-1.1,0.9-2,2-2H61c1.1,0,2,0.9,2,2v6.5C63,86.2,62.1,87.1,61,87.1z"/>
			<path class="st2" d="M61,76.6c1.1,0,2,0.9,2,2v6.5c0,1.1-0.9,2-2,2h-6.5c-1.1,0-2-0.9-2-2v-6.5c0-1.1,0.9-2,2-2H61 M61,74.6h-6.5
				c-2.2,0-4,1.8-4,4v6.5c0,2.2,1.8,4,4,4H61c2.2,0,4-1.8,4-4v-6.5C65,76.4,63.2,74.6,61,74.6L61,74.6z"/>
		</g>
		<path class="st6" d="M104.9,82.9H71.5c-0.6,0-1-0.5-1-1v-0.1c0-0.6,0.5-1,1-1h33.4c0.6,0,1,0.5,1,1v0.1
			C106,82.5,105.5,82.9,104.9,82.9z"/>
		<path id="Checkmark_1_" class="st6" d="M66.7,78l-5.9,5.8c-0.5,0.5-1.2,0.5-1.7,0.2c-0.2-0.1-0.3-0.2-0.5-0.3l-2.8-2.7
			c-0.5-0.5-0.5-1.3,0-1.8c0.5-0.5,1.4-0.5,1.9,0l2,2l5-4.9c0.5-0.5,1.4-0.5,1.9,0C67.2,76.6,67.2,77.4,66.7,78z"/>
	</g>
	<g id="Checkbox">
		<g>
			<path class="st8" d="M61,66.7h-6.5c-1.1,0-2-0.9-2-2v-6.5c0-1.1,0.9-2,2-2H61c1.1,0,2,0.9,2,2v6.5C63,65.8,62.1,66.7,61,66.7z"/>
			<path class="st2" d="M61,56.2c1.1,0,2,0.9,2,2v6.5c0,1.1-0.9,2-2,2h-6.5c-1.1,0-2-0.9-2-2v-6.5c0-1.1,0.9-2,2-2H61 M61,54.2h-6.5
				c-2.2,0-4,1.8-4,4v6.5c0,2.2,1.8,4,4,4H61c2.2,0,4-1.8,4-4v-6.5C65,56,63.2,54.2,61,54.2L61,54.2z"/>
		</g>
		<path class="st6" d="M104.9,62.5H71.5c-0.6,0-1-0.5-1-1v-0.1c0-0.6,0.5-1,1-1h33.4c0.6,0,1,0.5,1,1v0.1
			C106,62,105.5,62.5,104.9,62.5z"/>
		<path id="Checkmark" class="st6" d="M66.7,58l-5.9,5.8c-0.5,0.5-1.2,0.5-1.7,0.2c-0.2-0.1-0.3-0.2-0.5-0.3l-2.8-2.7
			c-0.5-0.5-0.5-1.3,0-1.8c0.5-0.5,1.4-0.5,1.9,0l2,2l5-4.9c0.5-0.5,1.4-0.5,1.9,0C67.2,56.6,67.2,57.4,66.7,58z"/>
	</g>
	<g id="Pen">
		<path id="Shadow_2_" class="st9" d="M19,38.4c-0.4-0.1-0.8,0-1.1,0.2c-4.4,3.2-8.8,6.4-13.2,9.7c-0.7,0.5-0.9,1.6-0.4,2.4
			c12.3,21.6,24.6,43.2,37,64.8c0.9,1.6,2.3,2.6,3.8,3.1c1.1,1.2,2.6,1.8,4.1,1.6l2.3,2.2c0.5,0.4,1.2,0.5,1.8,0.1
			c0.5-0.4,0.8-1.2,0.6-1.9l-0.8-3.3c0.8-1.5,0.9-3.2,0.4-4.8c0.3-1.7,0-3.6-0.9-5.2C40.4,86,28.4,64.9,16.3,43.8l1.9-1.4l11.1,19.5
			c0.4,0.8,1.4,1,2.1,0.5c0.7-0.5,0.9-1.6,0.4-2.4L19.9,39.1C19.7,38.7,19.4,38.5,19,38.4L19,38.4z"/>
		<polygon class="st10" points="47.7,113.7 15.6,63.9 24.3,58.2 56.4,107 55.8,116 		"/>
		<path class="st5" d="M19.7,36.9c-0.4-0.1-0.9,0-1.2,0.2c-4.9,3.2-9.8,6.4-14.7,9.6c-0.7,0.5-1,1.6-0.5,2.3
			c13.8,21.3,27.5,42.7,41.3,64c1,1.6,2.6,2.6,4.3,3c1.2,1.2,2.9,1.8,4.5,1.6l2.6,2.1c0.5,0.4,1.4,0.5,2,0.1
			c0.6-0.4,0.9-1.2,0.7-1.8l-0.9-3.2c0.9-1.4,1-3.2,0.4-4.8c0.3-1.7,0-3.6-1-5.2C43.7,84.1,30.2,63.2,16.8,42.3l2.1-1.4l12.4,19.3
			c0.5,0.7,1.6,1,2.3,0.5c0.7-0.5,1-1.6,0.5-2.3L20.8,37.7C20.6,37.3,20.2,37,19.7,36.9L19.7,36.9z M14,44.1l8.6,13.3l-7,4.6L7,48.7
			L14,44.1z M24.4,60.3l29.9,46.5c0,0,0,0,0,0c0.6,0.9,0.7,2,0.5,3.1c-0.1,0.4-0.1,0.8,0.1,1.2c0.4,0.8,0.3,1.7-0.3,2.5
			c-0.2,0.2-0.3,0.5-0.4,0.8c-0.3-0.1-0.6-0.1-0.9,0c-0.9,0.3-1.8,0-2.4-0.7c-0.3-0.3-0.6-0.6-1-0.6c-1.1-0.2-2-0.7-2.6-1.7
			L17.4,64.8L24.4,60.3z"/>
	</g>
	<path class="st11" d="M83.8,40.8H59.3c-0.8,0-1.5-0.7-1.5-1.5l0,0c0-0.8,0.7-1.5,1.5-1.5h24.5c0.8,0,1.5,0.7,1.5,1.5l0,0
		C85.3,40.1,84.6,40.8,83.8,40.8z"/>
	<path class="st11" d="M92,40.5h-3.8c-0.8,0-1.5-0.7-1.5-1.5v0c0-0.8,0.7-1.5,1.5-1.5H92c0.8,0,1.5,0.7,1.5,1.5v0
		C93.5,39.9,92.9,40.5,92,40.5z"/>
	<g>
		<path class="st5" d="M169,69.9c-0.5,1.1-1,1.6-2,1.6c-1,0-1.6-0.5-2-1.6L154.3,47l-2,28.6c-0.1,0.9-0.6,1.4-1.6,1.4
			c-1,0-1.6-0.5-1.5-1.4l2.3-30.8c0.1-1.4,0.6-2.1,2.1-2.1c1.3,0,2.1,0.6,2.6,2l10.8,22.9L178,44.7c0.6-1.3,1.2-2,2.6-2
			c1.5,0,2,0.7,2.1,2.1l2.3,30.8c0.1,0.9-0.4,1.4-1.5,1.4c-1,0-1.6-0.5-1.7-1.4L179.8,47L169,69.9z"/>
		<path class="st5" d="M210.8,54.9c0,0.5-0.2,1.3-0.4,2.2c-2.3,9.1-8.1,22-14.4,28.7c-0.8,0.9-1.3,1.3-2,1.3c-0.8,0-1.7-0.7-1.7-1.5
			c0-0.6,0.6-1.1,1.1-1.6c2.3-2.3,4.6-5.5,5.7-7.5l-8.8-20.6c-0.2-0.4-0.4-0.8-0.4-1.2c0-0.5,0.4-0.9,1.5-0.9c1.2,0,1.6,0.4,2.1,1.5
			l7.6,18.2c2.2-4.2,5.2-11.7,6.6-17.8c0.3-1.2,0.5-1.9,1.8-1.9C210.4,53.8,210.8,54.2,210.8,54.9z"/>
		<path class="st5" d="M224.1,65.8c-1.5,0-2.9-0.2-4.3-0.4v10.2c0,0.9-0.5,1.4-1.6,1.4c-1.1,0-1.6-0.5-1.6-1.4v-30
			c0-1.1,0-2.1,1.8-2.4c1.2-0.3,3.5-0.5,5.2-0.5c7.8,0,13.6,3.6,13.6,11.5C237.3,61.8,231.9,65.8,224.1,65.8z M223.9,63
			c6.2,0,10-3.1,10-8.8c0-6.3-4.5-8.8-10.3-8.8c-1.1,0-2.4,0.1-3.8,0.3v16.9C221.3,62.9,222.7,63,223.9,63z"/>
		<path class="st5" d="M246.1,75.5c0,0.9-0.5,1.4-1.6,1.4c-1.1,0-1.6-0.5-1.6-1.4V55.2c0-0.9,0.5-1.4,1.6-1.4c1.1,0,1.5,0.5,1.5,1.4
			v3.2c1.5-3.1,4-4.7,7.6-4.7c1.2,0,1.6,0.4,1.6,1.5c0,1.1-0.6,1.4-1.9,1.5c-3.5,0.1-5.7,1.5-7.1,4.8V75.5z"/>
		<path class="st5" d="M276.6,73.3c0,0.5-0.5,1.1-1.4,1.8c-1.9,1.4-4.3,2.1-7,2.1c-6.8,0-10.9-4.5-10.9-11.8c0-7.2,4-11.9,10.2-11.9
			c5.9,0,9.5,4.3,9.5,10.1c0,2.2-0.7,2.5-2.2,2.5h-14.4c0.3,5,2.9,8.4,7.8,8.4c1.8,0,3.7-0.4,5.2-1.6c0.8-0.6,1.2-1,1.8-1
			C276.1,71.8,276.6,72.6,276.6,73.3z M260.5,63.6h13.3c0-4.5-2.3-7.6-6.4-7.6C263.5,56,261,59,260.5,63.6z"/>
		<path class="st5" d="M286.6,85.7c0,0.9-0.5,1.4-1.6,1.4c-1.1,0-1.6-0.5-1.6-1.4V55.1c0-0.9,0.5-1.3,1.6-1.3c1,0,1.5,0.4,1.5,1.1
			v1.5c1.8-1.9,4-2.8,6.8-2.8c6,0,10.3,4.5,10.3,11.6c0,7.2-4.5,11.9-11.1,11.9c-2.3,0-4.3-0.6-5.9-1.8V85.7z M292.1,74.5
			c4.9,0,8.1-3.5,8.1-9.1c0-5.7-3.1-9.1-7.7-9.1c-2.2,0-4.2,0.8-5.9,2.4v13.9C288.2,73.8,290.1,74.5,292.1,74.5z"/>
		<path class="st5" d="M308.8,51c0-5.2,4.2-8.6,10.5-8.6c3,0,5.5,0.7,7.8,2.2c1.1,0.7,1.7,1.3,1.7,1.9c0,0.7-0.6,1.6-1.4,1.6
			c-0.5,0-1.1-0.5-1.8-0.9c-2-1.2-3.9-1.9-6.4-1.9c-4.5,0-7.3,2.3-7.3,5.5c0,8,17.5,6,17.5,17.1c0,6-5,9.4-11.4,9.4
			c-3.5,0-6.4-1-8.7-2.7c-1-0.7-1.6-1.4-1.6-2c0-0.7,0.7-1.6,1.5-1.6c0.5,0,0.8,0.4,2,1.1c2,1.4,4.1,2.3,6.8,2.3c4.6,0,8-2.5,8-6.4
			C326.3,59.3,308.8,61.5,308.8,51z"/>
		<path class="st5" d="M348.9,74.8c0,0.4-0.3,0.9-1,1.3c-1.1,0.7-2.7,1.1-4.3,1.1c-2.5,0-4.5-1-5.5-2.9c-0.9-1.7-1-3.7-1-6V56.9
			h-3.4c-0.9,0-1.4-0.5-1.4-1.3s0.5-1.3,1.4-1.3h3.4v-6.1c0-0.9,0.5-1.4,1.6-1.4c1,0,1.6,0.5,1.6,1.4v6.1h6.6c0.9,0,1.4,0.5,1.4,1.3
			s-0.5,1.3-1.4,1.3h-6.6v11.4c0,1.6,0,3.3,0.6,4.5c0.6,1,1.6,1.6,3.1,1.6c1,0,1.9-0.3,2.5-0.6c0.5-0.3,0.8-0.5,1.1-0.5
			C348.6,73.3,348.9,74.3,348.9,74.8z"/>
		<path class="st5" d="M371.4,73.3c0,0.5-0.5,1.1-1.4,1.8c-1.9,1.4-4.3,2.1-7,2.1c-6.8,0-10.9-4.5-10.9-11.8c0-7.2,4-11.9,10.2-11.9
			c5.9,0,9.5,4.3,9.5,10.1c0,2.2-0.7,2.5-2.2,2.5h-14.4c0.3,5,2.9,8.4,7.8,8.4c1.8,0,3.7-0.4,5.2-1.6c0.8-0.6,1.2-1,1.8-1
			C370.9,71.8,371.4,72.6,371.4,73.3z M355.3,63.6h13.3c0-4.5-2.3-7.6-6.4-7.6C358.2,56,355.8,59,355.3,63.6z"/>
		<path class="st5" d="M381.4,85.7c0,0.9-0.5,1.4-1.6,1.4c-1.1,0-1.6-0.5-1.6-1.4V55.1c0-0.9,0.5-1.3,1.6-1.3c1,0,1.5,0.4,1.5,1.1
			v1.5c1.8-1.9,4-2.8,6.8-2.8c6,0,10.3,4.5,10.3,11.6c0,7.2-4.5,11.9-11.1,11.9c-2.3,0-4.3-0.6-5.9-1.8V85.7z M386.9,74.5
			c4.9,0,8.1-3.5,8.1-9.1c0-5.7-3.1-9.1-7.7-9.1c-2.2,0-4.2,0.8-5.9,2.4v13.9C383,73.8,384.8,74.5,386.9,74.5z"/>
		<path class="st5" d="M403.1,59.7c0-3.7,3.2-6.2,7.9-6.2c2.3,0,4.5,0.5,6.3,1.7c1,0.7,1.5,1.3,1.5,1.9c0,0.6-0.5,1.5-1.3,1.5
			c-0.4,0-0.8-0.3-1.7-0.9c-1.5-0.9-3.1-1.4-4.8-1.4c-3,0-4.7,1.4-4.7,3.3c0,5.1,12.9,3.2,12.9,11c0,3.9-3.3,6.6-8.3,6.6
			c-2.5,0-4.9-0.7-6.8-2.1c-0.9-0.6-1.3-1.1-1.3-1.7c0-0.6,0.5-1.5,1.4-1.5c0.4,0,0.8,0.4,1.6,0.8c1.7,1.1,3.2,1.7,5.2,1.7
			c3.1,0,5.1-1.5,5.1-3.7C415.9,65.3,403.1,67.3,403.1,59.7z"/>
	</g>
	<g>
		<path class="st12" d="M154.2,104.2c0.4,0,0.5,0.2,0.5,0.5s-0.2,0.5-0.5,0.5h-4.7v5.1h5.7c0.4,0,0.5,0.2,0.5,0.5
			c0,0.4-0.2,0.6-0.5,0.6h-6.2c-0.5,0-0.6-0.2-0.6-0.6V99.2c0-0.5,0.2-0.6,0.6-0.6h6c0.4,0,0.5,0.2,0.5,0.5c0,0.4-0.2,0.6-0.5,0.6
			h-5.5v4.5H154.2z"/>
		<path class="st12" d="M160.6,103.6c-0.8,0-1.4,0.2-1.9,0.5c-0.3,0.2-0.4,0.3-0.6,0.3c-0.3,0-0.5-0.3-0.5-0.6
			c0-0.2,0.2-0.4,0.6-0.6c0.7-0.4,1.5-0.7,2.6-0.7c1.2,0,2.1,0.4,2.6,1.1c0.3,0.5,0.5,1.2,0.5,2.1v5.1c0,0.4-0.2,0.5-0.6,0.5
			c-0.4,0-0.6-0.1-0.6-0.4v-0.6c-0.7,0.7-1.6,1.1-2.7,1.1c-1.8,0-2.8-1-2.8-2.4c0-1.8,1.7-2.7,5.5-3v-0.3
			C162.7,104.4,162.1,103.6,160.6,103.6z M158.5,109.1c0,0.8,0.6,1.5,1.8,1.5c0.9,0,1.7-0.3,2.3-0.9V107
			C159.7,107.3,158.5,107.8,158.5,109.1z"/>
		<path class="st12" d="M166.3,104.9c0-1.4,1.2-2.3,3-2.3c0.9,0,1.7,0.2,2.4,0.6c0.4,0.3,0.6,0.5,0.6,0.7c0,0.2-0.2,0.6-0.5,0.6
			c-0.2,0-0.3-0.1-0.6-0.3c-0.6-0.4-1.2-0.5-1.8-0.5c-1.1,0-1.8,0.5-1.8,1.2c0,1.9,4.9,1.2,4.9,4.2c0,1.5-1.3,2.5-3.1,2.5
			c-1,0-1.8-0.3-2.6-0.8c-0.3-0.2-0.5-0.4-0.5-0.6c0-0.2,0.2-0.6,0.5-0.6c0.2,0,0.3,0.1,0.6,0.3c0.6,0.4,1.2,0.6,2,0.6
			c1.2,0,1.9-0.6,1.9-1.4C171.1,107.1,166.3,107.8,166.3,104.9z"/>
		<path class="st12" d="M175.3,100.5c-0.5,0-0.8-0.4-0.8-0.8s0.4-0.8,0.8-0.8s0.8,0.4,0.8,0.8S175.8,100.5,175.3,100.5z
			 M175.9,110.9c0,0.4-0.2,0.5-0.6,0.5c-0.4,0-0.6-0.2-0.6-0.5v-7.7c0-0.4,0.2-0.5,0.6-0.5c0.4,0,0.6,0.2,0.6,0.5V110.9z"/>
		<path class="st12" d="M180.2,110.9c0,0.4-0.2,0.5-0.6,0.5c-0.4,0-0.6-0.2-0.6-0.5V98.4c0-0.4,0.2-0.5,0.6-0.5
			c0.4,0,0.6,0.2,0.6,0.5V110.9z"/>
		<path class="st12" d="M190.2,103.1c0,0.2-0.1,0.5-0.2,0.8c-0.9,3.4-3.1,8.4-5.4,10.9c-0.3,0.3-0.5,0.5-0.8,0.5
			c-0.3,0-0.6-0.3-0.6-0.6c0-0.2,0.2-0.4,0.4-0.6c0.9-0.9,1.7-2.1,2.1-2.8l-3.3-7.8c-0.1-0.2-0.1-0.3-0.1-0.5c0-0.2,0.1-0.4,0.6-0.4
			c0.5,0,0.6,0.1,0.8,0.6l2.9,6.9c0.8-1.6,2-4.4,2.5-6.7c0.1-0.5,0.2-0.7,0.7-0.7C190.1,102.7,190.2,102.8,190.2,103.1z"/>
		<path class="st12" d="M197.9,103.2v0.8c0.5-0.8,1.5-1.4,2.8-1.4c1.4,0,2.3,0.6,2.7,1.7c0.5-1,1.6-1.7,3-1.7c1.1,0,1.9,0.4,2.4,1.1
			c0.4,0.6,0.6,1.3,0.6,2.3v4.9c0,0.4-0.2,0.5-0.6,0.5c-0.4,0-0.6-0.2-0.6-0.5v-4.7c0-0.6-0.1-1.3-0.5-1.8c-0.3-0.5-0.9-0.7-1.7-0.7
			c-1.1,0-1.9,0.6-2.4,1.3v5.9c0,0.4-0.2,0.5-0.6,0.5c-0.4,0-0.6-0.2-0.6-0.5v-4.9c0-0.6-0.1-1.2-0.4-1.6c-0.4-0.5-0.9-0.7-1.7-0.7
			c-1.1,0-2,0.6-2.4,1.3v5.9c0,0.4-0.2,0.5-0.6,0.5c-0.4,0-0.6-0.2-0.6-0.5v-7.7c0-0.4,0.2-0.5,0.6-0.5S197.9,102.9,197.9,103.2z"/>
		<path class="st12" d="M215.1,103.6c-0.8,0-1.4,0.2-1.9,0.5c-0.3,0.2-0.4,0.3-0.6,0.3c-0.3,0-0.5-0.3-0.5-0.6
			c0-0.2,0.2-0.4,0.6-0.6c0.7-0.4,1.5-0.7,2.6-0.7c1.2,0,2.1,0.4,2.6,1.1c0.3,0.5,0.5,1.2,0.5,2.1v5.1c0,0.4-0.2,0.5-0.6,0.5
			c-0.4,0-0.6-0.1-0.6-0.4v-0.6c-0.7,0.7-1.6,1.1-2.7,1.1c-1.8,0-2.8-1-2.8-2.4c0-1.8,1.7-2.7,5.5-3v-0.3
			C217.2,104.4,216.6,103.6,215.1,103.6z M213,109.1c0,0.8,0.6,1.5,1.8,1.5c0.9,0,1.7-0.3,2.3-0.9V107
			C214.2,107.3,213,107.8,213,109.1z"/>
		<path class="st12" d="M222.4,103.2v0.8c0.5-0.8,1.5-1.4,2.9-1.4c1.1,0,2,0.3,2.5,1.1c0.4,0.6,0.6,1.3,0.6,2.3v4.9
			c0,0.4-0.2,0.5-0.6,0.5c-0.4,0-0.6-0.2-0.6-0.5v-4.7c0-0.6-0.1-1.3-0.5-1.8c-0.4-0.5-1-0.8-1.8-0.8c-1.2,0-2.1,0.6-2.5,1.3v5.9
			c0,0.4-0.2,0.5-0.6,0.5c-0.4,0-0.6-0.2-0.6-0.5v-7.7c0-0.4,0.2-0.5,0.6-0.5S222.5,102.9,222.4,103.2z"/>
		<path class="st12" d="M234.1,103.6c-0.8,0-1.4,0.2-1.9,0.5c-0.3,0.2-0.4,0.3-0.6,0.3c-0.3,0-0.5-0.3-0.5-0.6
			c0-0.2,0.2-0.4,0.6-0.6c0.7-0.4,1.5-0.7,2.6-0.7c1.2,0,2.1,0.4,2.6,1.1c0.3,0.5,0.5,1.2,0.5,2.1v5.1c0,0.4-0.2,0.5-0.6,0.5
			c-0.4,0-0.6-0.1-0.6-0.4v-0.6c-0.7,0.7-1.6,1.1-2.7,1.1c-1.8,0-2.8-1-2.8-2.4c0-1.8,1.7-2.7,5.5-3v-0.3
			C236.2,104.4,235.6,103.6,234.1,103.6z M232,109.1c0,0.8,0.6,1.5,1.8,1.5c0.9,0,1.7-0.3,2.3-0.9V107
			C233.2,107.3,232,107.8,232,109.1z"/>
		<path class="st12" d="M247.1,103.9h-1.3c0.3,0.5,0.5,1,0.5,1.6c0,1.7-1.3,2.9-3.2,2.9c-0.4,0-0.8-0.1-1.2-0.2
			c-0.3,0.3-0.4,0.6-0.4,0.9c0,0.7,0.6,0.9,1.7,1c1.6,0.1,2.4,0.2,3.1,0.6c0.7,0.4,1,1,1,1.8c0,1.8-1.4,2.9-4,2.9
			c-2.7,0-3.9-1.2-3.9-2.5c0-0.9,0.6-1.7,1.7-2.2c-0.4-0.3-0.6-0.8-0.6-1.2c0-0.6,0.3-1.1,0.8-1.5c-0.8-0.5-1.3-1.3-1.3-2.4
			c0-1.7,1.3-2.9,3.2-2.9c0.7,0,1.4,0.2,1.9,0.5c0.7-0.2,1.4-0.3,1.9-0.3c0.4,0,0.6,0.2,0.6,0.5S247.4,103.9,247.1,103.9z
			 M241.9,111c-0.8,0.5-1.2,1.1-1.2,1.8c0,1,0.8,1.7,2.6,1.7c1.9,0,2.8-0.8,2.8-1.8c0-1.2-0.8-1.4-2.8-1.5
			C242.6,111.1,242.2,111,241.9,111z M245.2,105.5c0-1.2-0.8-2-2-2c-1.2,0-2,0.8-2,2c0,1.2,0.8,2,2,2
			C244.3,107.5,245.2,106.7,245.2,105.5z"/>
		<path class="st12" d="M256,110.1c0,0.2-0.2,0.4-0.5,0.7c-0.7,0.5-1.6,0.8-2.7,0.8c-2.6,0-4.1-1.7-4.1-4.5c0-2.7,1.5-4.5,3.9-4.5
			c2.2,0,3.6,1.6,3.6,3.8c0,0.8-0.3,0.9-0.8,0.9h-5.4c0.1,1.9,1.1,3.2,3,3.2c0.7,0,1.4-0.2,2-0.6c0.3-0.2,0.5-0.4,0.7-0.4
			C255.8,109.5,256,109.8,256,110.1z M249.9,106.4h5.1c0-1.7-0.9-2.9-2.4-2.9C251,103.5,250,104.7,249.9,106.4z"/>
		<path class="st12" d="M269.8,103.1c0,0.2-0.1,0.5-0.2,0.8c-0.9,3.4-3.1,8.4-5.4,10.9c-0.3,0.3-0.5,0.5-0.8,0.5
			c-0.3,0-0.6-0.3-0.6-0.6c0-0.2,0.2-0.4,0.4-0.6c0.9-0.9,1.7-2.1,2.1-2.8l-3.3-7.8c-0.1-0.2-0.1-0.3-0.1-0.5c0-0.2,0.1-0.4,0.6-0.4
			c0.5,0,0.6,0.1,0.8,0.6l2.9,6.9c0.8-1.6,2-4.4,2.5-6.7c0.1-0.5,0.2-0.7,0.7-0.7C269.7,102.7,269.8,102.8,269.8,103.1z"/>
		<path class="st12" d="M275.5,102.6c2.5,0,4.2,1.8,4.2,4.5c0,2.7-1.6,4.5-4.2,4.5c-2.6,0-4.2-1.8-4.2-4.5
			C271.3,104.3,272.9,102.6,275.5,102.6z M275.5,110.6c1.8,0,2.9-1.4,2.9-3.5c0-2.1-1.1-3.5-2.9-3.5s-2.9,1.4-2.9,3.5
			C272.6,109.2,273.7,110.6,275.5,110.6z"/>
		<path class="st12" d="M287.8,110.9v-0.8c-0.6,0.9-1.6,1.4-2.8,1.4c-1.1,0-1.9-0.4-2.4-1.1c-0.4-0.5-0.6-1.3-0.6-2.3v-4.9
			c0-0.4,0.2-0.5,0.6-0.5c0.4,0,0.6,0.2,0.6,0.5v4.7c0,0.6,0.1,1.3,0.4,1.8c0.4,0.5,0.9,0.8,1.7,0.8c1,0,1.9-0.4,2.4-1.3v-5.9
			c0-0.4,0.2-0.5,0.6-0.5c0.4,0,0.6,0.2,0.6,0.5v7.7c0,0.4-0.2,0.5-0.6,0.5C288,111.5,287.8,111.3,287.8,110.9z"/>
		<path class="st12" d="M293.2,110.9c0,0.4-0.2,0.5-0.6,0.5c-0.4,0-0.6-0.2-0.6-0.5v-7.7c0-0.4,0.2-0.5,0.6-0.5s0.6,0.2,0.6,0.5v1.2
			c0.6-1.2,1.5-1.8,2.9-1.8c0.5,0,0.6,0.2,0.6,0.6c0,0.4-0.2,0.5-0.7,0.6c-1.3,0-2.1,0.6-2.7,1.8V110.9z"/>
		<path class="st12" d="M304,114.8c0,0.4-0.2,0.5-0.6,0.5c-0.4,0-0.6-0.2-0.6-0.5v-11.6c0-0.4,0.2-0.5,0.6-0.5
			c0.4,0,0.6,0.1,0.6,0.4v0.6c0.7-0.7,1.5-1.1,2.6-1.1c2.3,0,3.9,1.7,3.9,4.4c0,2.7-1.7,4.5-4.2,4.5c-0.9,0-1.6-0.2-2.2-0.7V114.8z
			 M306.1,110.5c1.9,0,3.1-1.3,3.1-3.4c0-2.1-1.2-3.5-2.9-3.5c-0.8,0-1.6,0.3-2.2,0.9v5.3C304.6,110.3,305.3,110.5,306.1,110.5z"/>
		<path class="st12" d="M314,110.9c0,0.4-0.2,0.5-0.6,0.5c-0.4,0-0.6-0.2-0.6-0.5v-7.7c0-0.4,0.2-0.5,0.6-0.5s0.6,0.2,0.6,0.5v1.2
			c0.6-1.2,1.5-1.8,2.9-1.8c0.5,0,0.6,0.2,0.6,0.6c0,0.4-0.2,0.5-0.7,0.6c-1.3,0-2.1,0.6-2.7,1.8V110.9z"/>
		<path class="st12" d="M322.5,102.6c2.5,0,4.2,1.8,4.2,4.5c0,2.7-1.6,4.5-4.2,4.5c-2.6,0-4.2-1.8-4.2-4.5
			C318.3,104.3,319.9,102.6,322.5,102.6z M322.5,110.6c1.8,0,2.9-1.4,2.9-3.5c0-2.1-1.1-3.5-2.9-3.5s-2.9,1.4-2.9,3.5
			C319.6,109.2,320.7,110.6,322.5,110.6z"/>
		<path class="st12" d="M332.6,110.5c0.6,0,1.2-0.2,1.8-0.6c0.3-0.2,0.4-0.4,0.6-0.4c0.3,0,0.5,0.3,0.5,0.5c0,0.3-0.2,0.5-0.5,0.7
			c-0.6,0.5-1.5,0.8-2.5,0.8c-2.4,0-4.1-1.8-4.1-4.5c0-2.7,1.7-4.5,4.1-4.5c0.9,0,1.8,0.2,2.4,0.8c0.3,0.2,0.5,0.5,0.5,0.6
			c0,0.3-0.2,0.6-0.5,0.6c-0.2,0-0.3-0.2-0.6-0.4c-0.5-0.3-1-0.6-1.8-0.6c-1.8,0-2.9,1.4-2.9,3.4
			C329.7,109.1,330.8,110.5,332.6,110.5z"/>
		<path class="st12" d="M344.3,110.1c0,0.2-0.2,0.4-0.5,0.7c-0.7,0.5-1.6,0.8-2.7,0.8c-2.6,0-4.1-1.7-4.1-4.5c0-2.7,1.5-4.5,3.9-4.5
			c2.2,0,3.6,1.6,3.6,3.8c0,0.8-0.3,0.9-0.8,0.9h-5.4c0.1,1.9,1.1,3.2,3,3.2c0.7,0,1.4-0.2,2-0.6c0.3-0.2,0.5-0.4,0.7-0.4
			C344.1,109.5,344.3,109.8,344.3,110.1z M338.2,106.4h5.1c0-1.7-0.9-2.9-2.4-2.9C339.3,103.5,338.3,104.7,338.2,106.4z"/>
		<path class="st12" d="M350.4,102.6c0.9,0,1.6,0.2,2.2,0.6v-4.9c0-0.4,0.2-0.5,0.6-0.5c0.4,0,0.6,0.2,0.6,0.5v12.5
			c0,0.4-0.2,0.5-0.6,0.5c-0.4,0-0.6-0.2-0.6-0.5v-0.6c-0.7,0.7-1.6,1.1-2.6,1.1c-2.3,0-3.9-1.7-3.9-4.4
			C346.2,104.4,347.9,102.6,350.4,102.6z M350.5,103.6c-1.9,0-3.1,1.3-3.1,3.4c0,2.1,1.2,3.5,2.9,3.5c0.8,0,1.6-0.3,2.2-0.9v-5.3
			C352,103.9,351.3,103.6,350.5,103.6z"/>
		<path class="st12" d="M362.7,110.9v-0.8c-0.6,0.9-1.6,1.4-2.8,1.4c-1.1,0-1.9-0.4-2.4-1.1c-0.4-0.5-0.6-1.3-0.6-2.3v-4.9
			c0-0.4,0.2-0.5,0.6-0.5c0.4,0,0.6,0.2,0.6,0.5v4.7c0,0.6,0.1,1.3,0.4,1.8c0.4,0.5,0.9,0.8,1.7,0.8c1,0,1.9-0.4,2.4-1.3v-5.9
			c0-0.4,0.2-0.5,0.6-0.5c0.4,0,0.6,0.2,0.6,0.5v7.7c0,0.4-0.2,0.5-0.6,0.5C362.8,111.5,362.6,111.3,362.7,110.9z"/>
		<path class="st12" d="M368.1,110.9c0,0.4-0.2,0.5-0.6,0.5c-0.4,0-0.6-0.2-0.6-0.5v-7.7c0-0.4,0.2-0.5,0.6-0.5s0.6,0.2,0.6,0.5v1.2
			c0.6-1.2,1.5-1.8,2.9-1.8c0.5,0,0.6,0.2,0.6,0.6c0,0.4-0.2,0.5-0.7,0.6c-1.3,0-2.1,0.6-2.7,1.8V110.9z"/>
		<path class="st12" d="M379.7,110.1c0,0.2-0.2,0.4-0.5,0.7c-0.7,0.5-1.6,0.8-2.7,0.8c-2.6,0-4.1-1.7-4.1-4.5c0-2.7,1.5-4.5,3.9-4.5
			c2.2,0,3.6,1.6,3.6,3.8c0,0.8-0.3,0.9-0.8,0.9h-5.4c0.1,1.9,1.1,3.2,3,3.2c0.7,0,1.4-0.2,2-0.6c0.3-0.2,0.5-0.4,0.7-0.4
			C379.5,109.5,379.7,109.8,379.7,110.1z M373.6,106.4h5.1c0-1.7-0.9-2.9-2.4-2.9C374.7,103.5,373.7,104.7,373.6,106.4z"/>
		<path class="st12" d="M387.8,114.8c0,0.4-0.2,0.5-0.6,0.5c-0.4,0-0.6-0.2-0.6-0.5v-11.6c0-0.4,0.2-0.5,0.6-0.5
			c0.4,0,0.6,0.1,0.6,0.4v0.6c0.7-0.7,1.5-1.1,2.6-1.1c2.3,0,3.9,1.7,3.9,4.4c0,2.7-1.7,4.5-4.2,4.5c-0.9,0-1.6-0.2-2.2-0.7V114.8z
			 M389.9,110.5c1.9,0,3.1-1.3,3.1-3.4c0-2.1-1.2-3.5-2.9-3.5c-0.8,0-1.6,0.3-2.2,0.9v5.3C388.4,110.3,389.1,110.5,389.9,110.5z"/>
		<path class="st12" d="M397.8,110.9c0,0.4-0.2,0.5-0.6,0.5c-0.4,0-0.6-0.2-0.6-0.5v-7.7c0-0.4,0.2-0.5,0.6-0.5s0.6,0.2,0.6,0.5v1.2
			c0.6-1.2,1.5-1.8,2.9-1.8c0.5,0,0.6,0.2,0.6,0.6c0,0.4-0.2,0.5-0.7,0.6c-1.3,0-2.1,0.6-2.7,1.8V110.9z"/>
		<path class="st12" d="M409.4,110.1c0,0.2-0.2,0.4-0.5,0.7c-0.7,0.5-1.6,0.8-2.7,0.8c-2.6,0-4.1-1.7-4.1-4.5c0-2.7,1.5-4.5,3.9-4.5
			c2.2,0,3.6,1.6,3.6,3.8c0,0.8-0.3,0.9-0.8,0.9h-5.4c0.1,1.9,1.1,3.2,3,3.2c0.7,0,1.4-0.2,2-0.6c0.3-0.2,0.5-0.4,0.7-0.4
			C409.2,109.5,409.4,109.8,409.4,110.1z M403.3,106.4h5.1c0-1.7-0.9-2.9-2.4-2.9C404.4,103.5,403.5,104.7,403.3,106.4z"/>
		<path class="st12" d="M413.2,114.8c0,0.4-0.2,0.5-0.6,0.5c-0.4,0-0.6-0.2-0.6-0.5v-11.6c0-0.4,0.2-0.5,0.6-0.5
			c0.4,0,0.6,0.1,0.6,0.4v0.6c0.7-0.7,1.5-1.1,2.6-1.1c2.3,0,3.9,1.7,3.9,4.4c0,2.7-1.7,4.5-4.2,4.5c-0.9,0-1.6-0.2-2.2-0.7V114.8z
			 M415.3,110.5c1.9,0,3.1-1.3,3.1-3.4c0-2.1-1.2-3.5-2.9-3.5c-0.8,0-1.6,0.3-2.2,0.9v5.3C413.8,110.3,414.5,110.5,415.3,110.5z"/>
		<path class="st12" d="M421.9,111.5c-0.5,0-0.8-0.4-0.8-0.8s0.3-0.8,0.8-0.8s0.8,0.4,0.8,0.8S422.5,111.5,421.9,111.5z"/>
	</g>
	<path class="st13" d="M423.9,54.5c-0.2,0.4-0.5,0.7-0.9,0.9c-0.4,0.2-0.7,0.3-1.1,0.3c-0.4,0-0.8-0.1-1.1-0.3
		c-0.4-0.2-0.7-0.5-0.9-0.9c-0.2-0.4-0.3-0.7-0.3-1.1c0-0.4,0.1-0.8,0.3-1.2c0.2-0.4,0.5-0.7,0.9-0.9c0.4-0.2,0.7-0.3,1.1-0.3
		c0.4,0,0.8,0.1,1.1,0.3c0.4,0.2,0.7,0.5,0.9,0.9c0.2,0.4,0.3,0.8,0.3,1.2C424.2,53.7,424.1,54.1,423.9,54.5z M423.6,52.4
		c-0.2-0.3-0.4-0.5-0.7-0.7c-0.3-0.2-0.6-0.2-0.9-0.2c-0.3,0-0.6,0.1-0.9,0.2c-0.3,0.2-0.5,0.4-0.7,0.7c-0.2,0.3-0.3,0.6-0.3,1
		c0,0.3,0.1,0.7,0.3,1c0.2,0.3,0.4,0.5,0.7,0.7c0.3,0.2,0.6,0.3,1,0.3c0.3,0,0.7-0.1,1-0.3c0.3-0.2,0.5-0.4,0.7-0.7
		c0.2-0.3,0.3-0.6,0.3-1C423.8,53,423.8,52.7,423.6,52.4z M422.7,53.9c0.1,0.4,0.1,0.6,0.2,0.7h-0.3c0-0.1-0.1-0.3-0.2-0.6
		c-0.1-0.4-0.2-0.5-0.5-0.5h-0.3v1.1h-0.3v-2.5c0.2,0,0.4-0.1,0.6-0.1c0.4,0,0.6,0.1,0.8,0.2c0.1,0.1,0.2,0.3,0.2,0.5
		c0,0.3-0.2,0.6-0.5,0.7v0C422.5,53.5,422.6,53.7,422.7,53.9z M422.4,52.8c0-0.3-0.2-0.5-0.6-0.5c-0.2,0-0.3,0-0.3,0v0.9h0.3
		C422.2,53.3,422.4,53.1,422.4,52.8z"/>
</g>
<g id="Smart_Clinic">
	<path class="st14" d="M418.1,131.9c-0.3-0.1-0.5-0.1-0.7-0.1c-0.4,0-0.7,0.1-1,0.2c-0.3,0.1-0.5,0.3-0.7,0.5s-0.3,0.5-0.4,0.8
		c-0.1,0.3-0.1,0.6-0.1,1s0,0.7,0.1,1c0.1,0.3,0.2,0.6,0.4,0.8s0.4,0.4,0.7,0.5c0.3,0.1,0.6,0.2,1,0.2c0.2,0,0.5,0,0.7-0.1
		c0.2-0.1,0.5-0.1,0.7-0.2l0.1,0.7c-0.2,0.1-0.5,0.2-0.8,0.2c-0.3,0.1-0.6,0.1-0.9,0.1c-0.5,0-0.9-0.1-1.3-0.3
		c-0.4-0.2-0.7-0.4-0.9-0.7c-0.2-0.3-0.4-0.6-0.5-1c-0.1-0.4-0.2-0.8-0.2-1.2c0-0.4,0.1-0.8,0.2-1.2c0.1-0.4,0.3-0.7,0.5-1
		c0.2-0.3,0.5-0.5,0.9-0.7c0.4-0.2,0.8-0.3,1.3-0.3c0.3,0,0.6,0,0.9,0.1c0.3,0.1,0.5,0.1,0.7,0.2l-0.1,0.7
		C418.6,132,418.4,132,418.1,131.9z M412.6,130c-0.2,0-0.3-0.1-0.4-0.2c-0.1-0.1-0.2-0.3-0.2-0.4c0-0.2,0.1-0.3,0.2-0.4
		c0.1-0.1,0.2-0.2,0.4-0.2c0.2,0,0.3,0.1,0.4,0.2c0.1,0.1,0.2,0.3,0.2,0.4c0,0.2-0.1,0.3-0.2,0.4C413,130,412.8,130,412.6,130z
		 M410,134.1c0-0.3,0-0.6-0.1-0.9c-0.1-0.3-0.1-0.5-0.3-0.7c-0.1-0.2-0.3-0.4-0.5-0.5c-0.2-0.1-0.4-0.2-0.7-0.2
		c-0.4,0-0.7,0.1-1,0.3c-0.3,0.2-0.5,0.4-0.7,0.6v4.5H406v-6h0.8v0.9c0.2-0.3,0.5-0.6,0.9-0.7c0.3-0.2,0.7-0.3,1.1-0.3
		c0.4,0,0.7,0.1,1,0.2c0.3,0.2,0.5,0.4,0.7,0.6c0.2,0.3,0.3,0.6,0.4,0.9c0.1,0.4,0.1,0.7,0.1,1.1v3.2H410V134.1z M404,130
		c-0.2,0-0.3-0.1-0.4-0.2c-0.1-0.1-0.2-0.3-0.2-0.4c0-0.2,0.1-0.3,0.2-0.4c0.1-0.1,0.2-0.2,0.4-0.2c0.2,0,0.3,0.1,0.4,0.2
		c0.1,0.1,0.2,0.3,0.2,0.4c0,0.2-0.1,0.3-0.2,0.4C404.3,130,404.2,130,404,130z M401.3,128.4h0.8v9h-0.8V128.4z M397.7,136.7
		c0.3,0,0.6,0,1-0.1c0.3-0.1,0.6-0.1,0.9-0.3l0.2,0.7c-0.3,0.1-0.6,0.2-1,0.3c-0.4,0.1-0.8,0.1-1.1,0.1c-0.7,0-1.3-0.1-1.8-0.3
		c-0.5-0.2-1-0.5-1.3-0.9c-0.4-0.4-0.6-0.9-0.8-1.4c-0.2-0.5-0.3-1.1-0.3-1.7c0-0.6,0.1-1.2,0.3-1.7c0.2-0.5,0.5-1,0.8-1.4
		c0.4-0.4,0.8-0.7,1.3-0.9c0.5-0.2,1.1-0.3,1.8-0.3c0.4,0,0.8,0,1.1,0.1c0.4,0.1,0.7,0.2,1,0.3l-0.2,0.7c-0.3-0.1-0.6-0.2-0.9-0.3
		c-0.3-0.1-0.7-0.1-1-0.1c-1.1,0-2,0.3-2.6,1c-0.6,0.6-0.9,1.5-0.9,2.7c0,1.1,0.3,2,0.9,2.7C395.7,136.4,396.5,136.7,397.7,136.7z
		 M388.4,137.4c-0.3,0-0.6-0.1-0.8-0.2c-0.2-0.1-0.4-0.3-0.5-0.4c-0.1-0.2-0.2-0.4-0.3-0.7c-0.1-0.3-0.1-0.5-0.1-0.8v-3.3h-1.3v-0.8
		h1.3v-1.5h0.8v1.5h1.4v0.8h-1.4v3.4c0,0.2,0,0.4,0,0.6c0,0.2,0.1,0.3,0.2,0.4c0.1,0.1,0.2,0.2,0.3,0.3c0.1,0.1,0.3,0.1,0.5,0.1
		c0.2,0,0.4,0,0.5-0.1c0.2,0,0.3-0.1,0.5-0.1l0.1,0.6c-0.1,0.1-0.3,0.1-0.5,0.2C388.8,137.4,388.6,137.4,388.4,137.4z M383,132.2
		c-0.4,0.2-0.7,0.5-0.9,0.9v4.1h-0.8v-6l0.8,0v1.2c0.2-0.4,0.4-0.7,0.8-0.9c0.3-0.2,0.8-0.3,1.2-0.3c0.2,0,0.3,0,0.4,0.1v0.7h-0.2
		C383.7,132,383.3,132,383,132.2z M379.3,136.5c-0.1,0.1-0.2,0.2-0.3,0.3c-0.1,0.1-0.3,0.2-0.5,0.3c-0.2,0.1-0.4,0.2-0.6,0.2
		s-0.4,0.1-0.7,0.1c-0.5,0-1-0.2-1.2-0.5c-0.3-0.3-0.4-0.7-0.4-1.2c0-0.3,0.1-0.5,0.2-0.7c0.1-0.2,0.2-0.4,0.4-0.5
		c0.2-0.1,0.4-0.2,0.7-0.3c0.3-0.1,0.5-0.1,0.8-0.1c0.3,0,0.5,0,0.8,0c0.3,0,0.6,0,0.8,0v-0.4c0-0.6-0.1-1-0.4-1.3
		c-0.2-0.3-0.6-0.4-1.2-0.4c-0.3,0-0.6,0-0.8,0.1c-0.3,0.1-0.5,0.2-0.7,0.3l-0.2-0.6c0.2-0.1,0.5-0.3,0.8-0.4
		c0.3-0.1,0.7-0.1,1.1-0.1c0.3,0,0.6,0,0.9,0.1c0.3,0.1,0.5,0.2,0.7,0.4c0.2,0.2,0.4,0.5,0.5,0.8c0.1,0.3,0.2,0.7,0.2,1.1v3.7h-0.8
		V136.5z M379.3,134.6c-0.3,0-0.5,0-0.8,0c-0.3,0-0.5,0-0.7,0.1c-0.4,0-0.7,0.1-1,0.3s-0.4,0.4-0.4,0.8c0,0.6,0.3,1,1,1
		c0.4,0,0.7-0.1,1-0.3c0.3-0.2,0.6-0.4,0.8-0.7V134.6z M373.7,134.1c0-0.3,0-0.6-0.1-0.9c0-0.3-0.1-0.5-0.2-0.7
		c-0.1-0.2-0.3-0.4-0.5-0.5c-0.2-0.1-0.4-0.2-0.7-0.2c-0.4,0-0.7,0.1-1,0.3c-0.3,0.2-0.5,0.5-0.8,0.7c0,0.2,0.1,0.3,0.1,0.5
		c0,0.2,0,0.4,0,0.6v3.2h-0.8v-3.1c0-0.3,0-0.6-0.1-0.9c0-0.3-0.1-0.5-0.2-0.7c-0.1-0.2-0.3-0.4-0.5-0.5c-0.2-0.1-0.4-0.2-0.7-0.2
		c-0.3,0-0.6,0.1-0.9,0.3c-0.3,0.2-0.5,0.4-0.7,0.6v4.5h-0.8v-6h0.8v0.9c0.2-0.3,0.5-0.5,0.8-0.7c0.3-0.2,0.7-0.3,1.1-0.3
		c0.4,0,0.8,0.1,1.1,0.3c0.3,0.2,0.5,0.5,0.7,0.9c0.3-0.3,0.6-0.6,0.9-0.8c0.4-0.2,0.8-0.3,1.3-0.3c0.4,0,0.7,0.1,1,0.2
		c0.3,0.2,0.5,0.4,0.7,0.6c0.2,0.3,0.3,0.6,0.4,0.9c0.1,0.4,0.1,0.7,0.1,1.2v3.2h-0.8V134.1z M363.8,136.8c-0.2,0.2-0.5,0.4-0.9,0.5
		c-0.3,0.1-0.7,0.2-1.1,0.2c-0.4,0-0.8,0-1.2-0.1c-0.4-0.1-0.8-0.2-1.1-0.4l0.2-0.7c0.3,0.2,0.7,0.3,1,0.4c0.4,0.1,0.7,0.1,1.1,0.1
		c0.6,0,1.1-0.1,1.4-0.4c0.4-0.3,0.5-0.7,0.5-1.1c0-0.3-0.1-0.5-0.2-0.7c-0.1-0.2-0.2-0.4-0.4-0.5c-0.2-0.2-0.4-0.3-0.6-0.4
		c-0.2-0.1-0.5-0.2-0.7-0.4c-0.3-0.1-0.5-0.3-0.8-0.4c-0.3-0.1-0.5-0.3-0.7-0.5c-0.2-0.2-0.4-0.4-0.5-0.6c-0.1-0.2-0.2-0.5-0.2-0.8
		c0-0.3,0.1-0.6,0.2-0.9c0.1-0.3,0.3-0.5,0.5-0.7c0.2-0.2,0.5-0.3,0.8-0.4c0.3-0.1,0.6-0.1,1-0.1c0.4,0,0.8,0,1.1,0.1
		c0.4,0.1,0.7,0.2,1,0.3l-0.2,0.7c-0.3-0.1-0.6-0.3-0.9-0.3c-0.3-0.1-0.7-0.1-1-0.1c-0.5,0-0.9,0.1-1.2,0.3c-0.3,0.2-0.5,0.6-0.5,1
		c0,0.2,0,0.4,0.1,0.6s0.2,0.3,0.3,0.4c0.1,0.1,0.3,0.2,0.5,0.3c0.2,0.1,0.5,0.2,0.7,0.4c0.3,0.1,0.6,0.3,0.9,0.4
		c0.3,0.2,0.6,0.3,0.8,0.5c0.2,0.2,0.4,0.4,0.6,0.7c0.2,0.3,0.2,0.6,0.2,1c0,0.3-0.1,0.7-0.2,0.9
		C364.3,136.4,364.1,136.6,363.8,136.8z M404.4,137.3h-0.8v-6h0.8V137.3z M413.1,137.3h-0.8v-6h0.8V137.3z"/>
	<path class="st15" d="M419.2,131.1c0,0.1,0.1,0.1,0.1,0.2c0,0,0.1,0.1,0.2,0.1c0.1,0,0.1,0,0.2,0s0.2,0,0.2,0
		c0.1,0,0.1-0.1,0.2-0.1c0,0,0.1-0.1,0.1-0.2c0-0.1,0-0.1,0-0.2c0-0.1,0-0.1,0-0.2c0-0.1-0.1-0.1-0.1-0.2c0,0-0.1-0.1-0.2-0.1
		c-0.1,0-0.1,0-0.2,0s-0.2,0-0.2,0c-0.1,0-0.1,0.1-0.2,0.1c0,0-0.1,0.1-0.1,0.2c0,0.1,0,0.1,0,0.2C419.2,131,419.2,131,419.2,131.1z
		 M420.2,131.1c0,0.1-0.1,0.1-0.1,0.1c0,0-0.1,0.1-0.1,0.1c-0.1,0-0.1,0-0.2,0c-0.1,0-0.1,0-0.2,0c-0.1,0-0.1-0.1-0.1-0.1
		c0,0-0.1-0.1-0.1-0.1c0-0.1,0-0.1,0-0.2s0-0.1,0-0.2s0.1-0.1,0.1-0.1c0,0,0.1-0.1,0.1-0.1c0.1,0,0.1,0,0.2,0c0.1,0,0.1,0,0.2,0
		c0.1,0,0.1,0.1,0.1,0.1c0,0,0.1,0.1,0.1,0.1c0,0.1,0,0.1,0,0.2S420.2,131,420.2,131.1z M419.9,130.7c0,0-0.1,0-0.1,0h-0.2v0.5h0.1
		v-0.2h0l0.2,0.2h0.1l-0.2-0.2c0,0,0.1,0,0.1-0.1c0,0,0-0.1,0-0.1C419.9,130.7,419.9,130.7,419.9,130.7z M419.8,130.9
		c0,0-0.1,0-0.1,0h0v-0.2h0.1c0,0,0.1,0,0.1,0C419.8,130.7,419.8,130.8,419.8,130.9C419.8,130.8,419.8,130.8,419.8,130.9z"/>
	<path class="st14" d="M353.2,137c0.3,0,0.5,0.2,0.5,0.6c0,0.3-0.2,0.6-0.5,0.6c-0.3,0-0.5-0.2-0.5-0.6
		C352.6,137.2,352.9,137,353.2,137z"/>
	<path class="st14" d="M353.6,138.1c0.2,0,0.3,0.2,0.3,0.3s-0.2,0.3-0.3,0.3c-0.2,0-0.3-0.2-0.3-0.3S353.5,138.1,353.6,138.1z"/>
	<path class="st14" d="M352,136.5c0.2,0,0.4,0.2,0.4,0.4s-0.2,0.4-0.4,0.4c-0.2,0-0.4-0.2-0.4-0.4S351.7,136.5,352,136.5z"/>
	<path class="st14" d="M355.3,131.3c0.3,0,0.6,0.3,0.6,0.6c0,0.3-0.3,0.6-0.6,0.6s-0.6-0.3-0.6-0.6
		C354.8,131.6,355,131.3,355.3,131.3z"/>
	<path class="st14" d="M348.5,132.2c0.2,0,0.4,0.2,0.4,0.4s-0.2,0.4-0.4,0.4c-0.2,0-0.4-0.2-0.4-0.4S348.3,132.2,348.5,132.2z"/>
	<path class="st14" d="M346.6,132.8c0.2,0,0.4,0.2,0.4,0.4c0,0.2-0.2,0.4-0.4,0.4s-0.4-0.2-0.4-0.4
		C346.3,133,346.4,132.8,346.6,132.8z"/>
	<path class="st14" d="M347.7,132.9c0.2,0,0.4,0.2,0.4,0.4s-0.2,0.4-0.4,0.4c-0.2,0-0.4-0.2-0.4-0.4S347.5,132.9,347.7,132.9z"/>
	<path class="st14" d="M348.6,134c0.2,0,0.4,0.2,0.4,0.4c0,0.2-0.2,0.4-0.4,0.4c-0.2,0-0.4-0.2-0.4-0.4
		C348.2,134.1,348.4,134,348.6,134z"/>
	<path class="st14" d="M349,135.2c0.4,0,0.8,0.3,0.8,0.8s-0.3,0.8-0.8,0.8c-0.4,0-0.8-0.3-0.8-0.8S348.6,135.2,349,135.2z"/>
	<path class="st14" d="M354.9,137.2c0.3,0,0.5,0.2,0.5,0.5c0,0.3-0.2,0.5-0.5,0.5c-0.3,0-0.5-0.2-0.5-0.5
		C354.4,137.4,354.6,137.2,354.9,137.2z"/>
	<path class="st14" d="M352.4,138.1c0.3,0,0.5,0.2,0.5,0.5c0,0.3-0.2,0.5-0.5,0.5c-0.3,0-0.5-0.2-0.5-0.5
		C351.9,138.3,352.1,138.1,352.4,138.1z"/>
	<path class="st14" d="M347.7,135.9c0.3,0,0.5,0.2,0.5,0.5c0,0.3-0.2,0.5-0.5,0.5c-0.3,0-0.5-0.2-0.5-0.5
		C347.2,136.1,347.4,135.9,347.7,135.9z"/>
	<path class="st14" d="M354.6,128.4c0.3,0,0.6,0.3,0.6,0.6s-0.2,0.6-0.6,0.6s-0.6-0.3-0.6-0.6S354.2,128.4,354.6,128.4z"/>
	<path class="st14" d="M350.4,136.2c0.2,0,0.3,0.1,0.3,0.3s-0.1,0.3-0.3,0.3c-0.2,0-0.3-0.1-0.3-0.3S350.2,136.2,350.4,136.2z"/>
	<path class="st14" d="M356,133.8c0.2,0,0.3,0.1,0.3,0.3s-0.1,0.3-0.3,0.3c-0.2,0-0.3-0.1-0.3-0.3S355.8,133.8,356,133.8z"/>
	<path class="st14" d="M355.2,134.4c0.2,0,0.4,0.2,0.4,0.4s-0.2,0.4-0.4,0.4c-0.2,0-0.4-0.2-0.4-0.4S355,134.4,355.2,134.4z"/>
	<path class="st14" d="M357.2,133.2c0.2,0,0.4,0.2,0.4,0.4s-0.2,0.4-0.4,0.4s-0.4-0.2-0.4-0.4S357,133.2,357.2,133.2z"/>
	<path class="st14" d="M353.1,129.1c0.2,0,0.4,0.2,0.4,0.4s-0.2,0.4-0.4,0.4c-0.2,0-0.4-0.2-0.4-0.4S352.8,129.1,353.1,129.1z"/>
	<path class="st14" d="M352,129.3c0.3,0,0.5,0.2,0.5,0.5c0,0.3-0.2,0.5-0.5,0.5c-0.3,0-0.5-0.2-0.5-0.5
		C351.5,129.5,351.7,129.3,352,129.3z"/>
	<path class="st14" d="M353.4,127.9c0.3,0,0.5,0.2,0.5,0.5s-0.2,0.5-0.5,0.5c-0.3,0-0.5-0.2-0.5-0.5S353.1,127.9,353.4,127.9z"/>
	<path class="st14" d="M352.1,127.7c0.3,0,0.5,0.2,0.5,0.5s-0.2,0.5-0.5,0.5s-0.5-0.2-0.5-0.5S351.9,127.7,352.1,127.7z"/>
	<path class="st14" d="M354,129.8c0.3,0,0.5,0.2,0.5,0.5c0,0.3-0.2,0.5-0.5,0.5s-0.5-0.2-0.5-0.5C353.4,130,353.7,129.8,354,129.8z"
		/>
	<path class="st14" d="M356.2,132.5c0.3,0,0.5,0.2,0.5,0.5s-0.2,0.5-0.5,0.5s-0.5-0.2-0.5-0.5S355.9,132.5,356.2,132.5z"/>
	<path class="st14" d="M356.9,134.3c0.3,0,0.5,0.2,0.5,0.5c0,0.3-0.2,0.5-0.5,0.5s-0.5-0.2-0.5-0.5
		C356.3,134.6,356.6,134.3,356.9,134.3z"/>
	<path class="st14" d="M356.7,131.1c0.3,0,0.6,0.3,0.6,0.6c0,0.3-0.3,0.6-0.6,0.6c-0.3,0-0.6-0.3-0.6-0.6
		C356.1,131.4,356.4,131.1,356.7,131.1z"/>
	<path class="st14" d="M354.1,135.8c0.3,0,0.6,0.3,0.6,0.6s-0.3,0.6-0.6,0.6c-0.3,0-0.6-0.3-0.6-0.6S353.8,135.8,354.1,135.8z"/>
	<path class="st14" d="M348.9,137.1c0.3,0,0.5,0.2,0.5,0.5s-0.2,0.5-0.5,0.5c-0.3,0-0.5-0.2-0.5-0.5S348.6,137.1,348.9,137.1z"/>
	<path class="st14" d="M348.9,128.7c0.3,0,0.5,0.2,0.5,0.5s-0.2,0.5-0.5,0.5s-0.5-0.2-0.5-0.5S348.6,128.7,348.9,128.7z"/>
	<path class="st14" d="M347.2,131.2c0.4,0,0.8,0.3,0.8,0.8s-0.3,0.8-0.8,0.8s-0.8-0.3-0.8-0.8S346.8,131.2,347.2,131.2z"/>
	<path class="st14" d="M347.3,134.1c0.4,0,0.8,0.4,0.8,0.8c0,0.4-0.4,0.8-0.8,0.8s-0.8-0.4-0.8-0.8
		C346.5,134.5,346.9,134.1,347.3,134.1z"/>
	<path class="st14" d="M350.7,137c0.5,0,1,0.4,1,1c0,0.5-0.4,1-1,1s-1-0.4-1-1C349.7,137.4,350.1,137,350.7,137z"/>
	<path class="st14" d="M355.8,135.4c0.5,0,0.9,0.4,0.9,0.9s-0.4,0.9-0.9,0.9s-0.9-0.4-0.9-0.9S355.3,135.4,355.8,135.4z"/>
	<path class="st14" d="M355.6,129.4c0.5,0,0.9,0.4,0.9,0.9c0,0.5-0.4,0.9-0.9,0.9c-0.5,0-0.9-0.4-0.9-0.9
		C354.8,129.7,355.2,129.4,355.6,129.4z"/>
	<path class="st14" d="M350.6,127.9c0.5,0,1,0.4,1,1s-0.4,1-1,1s-1-0.4-1-1S350.1,127.9,350.6,127.9z"/>
	<path class="st14" d="M349,129.9c0.5,0,0.9,0.4,0.9,0.9c0,0.5-0.4,0.9-0.9,0.9s-0.9-0.4-0.9-0.9C348.1,130.2,348.5,129.9,349,129.9
		z"/>
	<path class="st14" d="M347.5,130.1c0.2,0,0.4,0.2,0.4,0.4s-0.2,0.4-0.4,0.4c-0.2,0-0.4-0.2-0.4-0.4S347.3,130.1,347.5,130.1z"/>
	<g>
		<path class="st15" d="M289.2,134.2c-0.3,0-0.7,0-1-0.1v2.4c0,0.2-0.1,0.3-0.4,0.3c-0.3,0-0.4-0.1-0.4-0.3v-7.1
			c0-0.3,0-0.5,0.4-0.6c0.3-0.1,0.8-0.1,1.2-0.1c1.9,0,3.2,0.8,3.2,2.7C292.4,133.2,291.1,134.2,289.2,134.2z M289.2,133.5
			c1.5,0,2.4-0.7,2.4-2.1c0-1.5-1.1-2.1-2.4-2.1c-0.3,0-0.6,0-0.9,0.1v4C288.6,133.5,288.9,133.5,289.2,133.5z"/>
		<path class="st15" d="M295.7,131.3c1.6,0,2.6,1.1,2.6,2.8c0,1.7-1,2.8-2.6,2.8c-1.6,0-2.6-1.1-2.6-2.8
			C293.1,132.4,294.1,131.3,295.7,131.3z M295.7,136.3c1.1,0,1.8-0.8,1.8-2.2c0-1.3-0.7-2.2-1.8-2.2s-1.8,0.9-1.8,2.2
			C293.9,135.4,294.6,136.3,295.7,136.3z"/>
		<path class="st15" d="M301.6,136.4c-0.1,0.3-0.2,0.4-0.5,0.4c-0.3,0-0.4-0.1-0.5-0.4l-1.4-4.6c0-0.1-0.1-0.2-0.1-0.3
			c0-0.1,0.1-0.2,0.4-0.2s0.4,0.1,0.4,0.4l1.2,4.2l1.4-4c0.1-0.2,0.2-0.4,0.5-0.4c0.3,0,0.4,0.1,0.5,0.4l1.4,4l1.2-4.2
			c0.1-0.3,0.1-0.4,0.4-0.4c0.3,0,0.3,0.1,0.3,0.2c0,0.1,0,0.2-0.1,0.3l-1.4,4.6c-0.1,0.3-0.2,0.4-0.5,0.4c-0.3,0-0.4-0.1-0.5-0.4
			l-1.4-4L301.6,136.4z"/>
		<path class="st15" d="M312.4,136c0,0.1-0.1,0.3-0.3,0.4c-0.5,0.3-1,0.5-1.7,0.5c-1.6,0-2.6-1.1-2.6-2.8c0-1.7,0.9-2.8,2.4-2.8
			c1.4,0,2.3,1,2.3,2.4c0,0.5-0.2,0.6-0.5,0.6h-3.4c0.1,1.2,0.7,2,1.9,2c0.4,0,0.9-0.1,1.2-0.4c0.2-0.1,0.3-0.2,0.4-0.2
			C312.3,135.6,312.4,135.8,312.4,136z M308.6,133.7h3.2c0-1.1-0.6-1.8-1.5-1.8C309.3,131.9,308.7,132.6,308.6,133.7z"/>
		<path class="st15" d="M314.7,136.5c0,0.2-0.1,0.3-0.4,0.3c-0.3,0-0.4-0.1-0.4-0.3v-4.8c0-0.2,0.1-0.3,0.4-0.3
			c0.3,0,0.4,0.1,0.3,0.3v0.8c0.4-0.7,1-1.1,1.8-1.1c0.3,0,0.4,0.1,0.4,0.3c0,0.3-0.1,0.3-0.4,0.3c-0.8,0-1.3,0.4-1.7,1.1V136.5z"/>
		<path class="st15" d="M322,136c0,0.1-0.1,0.3-0.3,0.4c-0.5,0.3-1,0.5-1.7,0.5c-1.6,0-2.6-1.1-2.6-2.8c0-1.7,0.9-2.8,2.4-2.8
			c1.4,0,2.3,1,2.3,2.4c0,0.5-0.2,0.6-0.5,0.6h-3.4c0.1,1.2,0.7,2,1.9,2c0.4,0,0.9-0.1,1.2-0.4c0.2-0.1,0.3-0.2,0.4-0.2
			C321.8,135.6,322,135.8,322,136z M318.2,133.7h3.2c0-1.1-0.6-1.8-1.5-1.8C318.8,131.9,318.3,132.6,318.2,133.7z"/>
		<path class="st15" d="M325.8,131.3c0.5,0,1,0.1,1.4,0.4v-3c0-0.2,0.1-0.3,0.4-0.3c0.2,0,0.4,0.1,0.4,0.3v7.8
			c0,0.2-0.1,0.3-0.4,0.3c-0.2,0-0.3-0.1-0.3-0.3v-0.3c-0.4,0.4-1,0.7-1.6,0.7c-1.4,0-2.4-1.1-2.4-2.7
			C323.2,132.4,324.2,131.3,325.8,131.3z M325.9,131.9c-1.2,0-1.9,0.8-1.9,2.1c0,1.3,0.7,2.2,1.8,2.2c0.5,0,1-0.2,1.4-0.6v-3.3
			C326.8,132.1,326.4,131.9,325.9,131.9z"/>
		<path class="st15" d="M334.6,136.9c-0.6,0-1.3-0.2-1.7-0.4c-0.4-0.2-0.4-0.4-0.4-0.7v-7.1c0-0.2,0.1-0.3,0.4-0.3
			c0.2,0,0.4,0.1,0.4,0.3v3.1c0.4-0.3,0.9-0.5,1.5-0.5c1.5,0,2.5,1,2.5,2.7C337.3,135.8,336.3,136.9,334.6,136.9z M334.6,136.2
			c1.2,0,1.9-0.8,1.9-2.2c0-1.3-0.7-2.1-1.9-2.1c-0.5,0-1,0.2-1.4,0.5v3.4C333.6,136.1,334.1,136.2,334.6,136.2z"/>
		<path class="st15" d="M343.1,131.6c0,0.1,0,0.3-0.1,0.5c-0.5,2.1-1.9,5.2-3.4,6.8c-0.2,0.2-0.3,0.3-0.5,0.3
			c-0.2,0-0.4-0.2-0.4-0.4c0-0.1,0.1-0.3,0.3-0.4c0.6-0.5,1.1-1.3,1.3-1.8l-2.1-4.9c0-0.1-0.1-0.2-0.1-0.3c0-0.1,0.1-0.2,0.3-0.2
			c0.3,0,0.4,0.1,0.5,0.4l1.8,4.3c0.5-1,1.2-2.8,1.6-4.2c0.1-0.3,0.1-0.5,0.4-0.5C343,131.3,343.1,131.4,343.1,131.6z"/>
	</g>
</g>
</svg>
