<?xml version="1.0" encoding="utf-8"?>
<!-- Generator: Adobe Illustrator 21.1.0, SVG Export Plug-In . SVG Version: 6.00 Build 0)  -->
<svg version="1.1" id="Layer_1" xmlns="http://www.w3.org/2000/svg" xmlns:xlink="http://www.w3.org/1999/xlink" x="0px" y="0px"
	 viewBox="0 0 2040.2 800" style="enable-background:new 0 0 2040.2 800;" xml:space="preserve">
<style type="text/css">
	.st0{fill:#c9c9c9;}
</style>
<g id="nIYnrw.tif">
	<g>
		<g>
			<path class="st0" d="M407.3,99c1.2,1.4,2.2,2.8,3.5,4.1c22.8,22.9,46,45.5,68.4,68.7c7.1,7.3,12.7,16.2,18.3,24.8
				c2.1,3.3,4,4.5,7.8,4.5c31-0.1,62-0.1,93-0.1c2.1,0,4.2,0,7,0c0,2.7,0,4.9,0,7c0,31,0.1,62-0.1,93c0,3.8,1.2,5.7,4.5,7.8
				c8.7,5.7,17.7,11.4,25.2,18.6c22.8,22,44.9,44.6,67.3,67c1.5,1.5,3.5,2.5,5.4,3.9c-1.8,2-2.4,2.9-3.2,3.7
				c-23.3,23.3-46.4,46.9-70.1,69.9c-7.1,6.9-15.7,12.3-24.1,17.6c-3.5,2.2-4.7,4.3-4.7,8.2c0.1,30.8,0.1,61.7,0.1,92.5
				c0,6.9,0,6.9-6.8,6.9c-30.5,0-61,0.1-91.5-0.1c-4.8,0-7.3,1.3-9.6,5.7c-3.6,6.7-7.7,13.4-12.8,18.9
				c-13.9,14.8-28.6,28.9-42.8,43.4c-11.2,11.4-22.3,22.9-33.7,34.6c-2-1.9-3.4-3.1-4.6-4.4c-22.6-22.6-45.5-45-67.7-68
				c-7.3-7.6-13-16.8-18.9-25.6c-2-3-3.7-4.4-7.3-4.4c-31,0.1-62,0.1-93,0.1c-2.2,0-4.3,0-7.3,0c0-2.3,0-4.2,0-6.1
				c-0.1-31.3-0.2-62.7-0.1-94c0-4.1-1.5-5.9-4.8-8.1c-8.3-5.4-17-10.8-24.1-17.6c-23.6-22.9-46.5-46.4-69.6-69.6
				c-0.7-0.7-1.3-1.5-2.1-2.4c0.5-0.7,0.8-1.5,1.4-2c24.7-24.8,49.3-49.7,74.3-74.1c6-5.8,13.6-10,20.9-14.4
				c3.2-1.9,4.4-3.8,4.4-7.4c-0.1-31-0.1-62-0.1-93c0-6.9,0-6.9,6.7-6.9c30.7,0,61.3-0.1,92,0.1c4.3,0,6.2-1.6,8.5-5.1
				c5.7-8.8,11.4-17.7,18.6-25.2c22.2-23,45.2-45.3,67.8-67.9c1.2-1.2,2.1-2.8,3.1-4.2C406.6,99,407,99,407.3,99z M209.9,480
				c8.2-39.2,29.2-66.2,66.7-81.2c-37.4-15-58.3-41.9-66.6-80.8c-7.1,5.3-13.7,9.3-19.1,14.5c-21.3,20.8-42.3,42.1-63.4,63.1
				c-2.7,2.7-2.5,4.3,0.1,6.8c21.1,20.9,41.9,42.1,63.1,62.8C196.1,470.6,202.9,474.7,209.9,480z M407.2,268.3
				c7.5-18.3,17.1-32.9,31.1-44.3c14.1-11.4,30.2-18.4,49.5-22.4c-5.9-7.6-10.6-14.7-16.4-20.7c-20-20.5-40.4-40.6-60.7-60.8
				c-1.2-1.2-2.4-2.2-3.7-3.4c-0.8,0.6-1.4,0.9-1.8,1.4c-21.8,21.8-43.7,43.4-65.2,65.5c-5,5.1-8.7,11.6-13.6,18.3
				C365.3,210,392.2,231,407.2,268.3z M406.8,680.6c23.7-23.2,47.1-45.9,70.2-69c4.2-4.2,6.9-9.8,10.7-15.4
				c-38.6-8.2-65.4-29.1-80.4-66.3c-14.8,37.3-41.8,58.1-80.4,66.5c5.5,7.1,9.6,13.8,15,19.3c20.5,21,41.3,41.5,62.1,62.3
				C405.1,679.2,406.3,680.1,406.8,680.6z M689.6,399.5c-0.6-0.8-1-1.6-1.5-2.1c-21.4-21.5-42.6-43.1-64.2-64.3
				c-5.4-5.3-12.2-9.3-19.1-14.4c-8.4,38.9-29.3,65.8-66.4,80.6c37.4,14.9,58.2,41.8,66.6,80.8c7.2-5.6,14-9.9,19.6-15.4
				c20.7-20.2,41.1-40.9,61.6-61.4C687.3,402,688.3,400.8,689.6,399.5z M426.3,391.2c2.3-2.2,3.8-3.5,5.2-4.9
				c19.5-19.6,38.8-39.4,58.6-58.8c23.9-23.4,52.7-33.4,86.1-29.3c5.7,0.7,11.3,2.1,17,3.1c0.2-0.9,0.4-1.4,0.4-1.9
				c0-27.5-0.1-55,0-82.5c0-3.9-1.9-4.2-4.9-4.2c-26.5,0.1-53,0-79.5,0.1c-1.3,0-2.6,0.2-4.4,0.3c0.5,1.9,0.8,3.5,1.2,5.1
				c8.8,37.7-0.2,70.6-27.2,98.3c-19.4,20-39.3,39.4-59,59.1c-1.3,1.3-2.5,2.6-3.8,4c0.9,1.1,1.5,1.8,2.2,2.6
				C420.8,385,423.3,387.8,426.3,391.2z M309.5,585.1c0.1-1,0.1-1.4,0.1-1.7c-0.1-0.7-0.2-1.3-0.4-2c-9.8-38.6-0.4-72.1,27.2-100.5
				c19.2-19.7,38.8-38.9,58.3-58.4c1.4-1.4,2.7-2.8,3.7-3.9c-3.8-3.9-7.1-7.5-10.7-11.2c-1.6,1.5-3,2.8-4.4,4.2
				c-20,20-39.7,40.4-60.2,60c-23.6,22.6-52,32-84.6,27.9c-5.5-0.7-11-2-16.8-3.1c-0.2,1.5-0.4,2.6-0.4,3.7c0,26.8,0,53.6-0.1,80.5
				c0,3.7,1.5,4.4,4.8,4.3c21.2-0.1,42.3-0.1,63.5,0C296,585.1,302.6,585.1,309.5,585.1z M387.1,389.6c3.8-3.6,7.4-6.9,11.8-10.9
				c-1.8-1.3-3.4-2.3-4.7-3.6c-19.8-19.8-39.8-39.4-59.3-59.4c-24.1-24.7-33.5-54.5-28.4-88.7c0.7-4.7,1.9-9.2,2.8-14.1
				c-1.4-0.2-2.2-0.3-3-0.3c-27,0-54,0-81-0.1c-3.6,0-4.5,1.5-4.4,4.8c0.1,26.5,0,53,0.1,79.5c0,1.4,0.3,2.8,0.4,4.7
				c2.3-0.5,4-0.8,5.8-1.2c37.3-8.6,69.9,0.4,97.3,27c19.8,19.3,39.2,39.1,58.7,58.6C384.5,387.3,386,388.7,387.1,389.6z M593.3,585
				c0-29.7,0-58.7,0-87.3c-10.5,1.4-20.6,4-30.8,3.7c-27.6-0.6-52-10-71.9-29.9c-19.8-19.8-39.6-39.6-59.4-59.4
				c-1.4-1.4-2.8-2.7-3.9-3.7c-3.9,3.6-7.4,6.8-11,10.1c1.2,1.3,2,2.3,2.9,3.2c20.2,20.1,40.6,40,60.5,60.4
				c22.3,22.8,32.3,50.3,29.4,82.2c-0.6,6.8-2.3,13.6-3.5,20.6C534.9,585,563.9,585,593.3,585z M401.2,364.7
				c0.2-2.4,0.4-3.5,0.4-4.6c0-21,0.1-42-0.1-62.9c0-3.8-0.6-7.7-1.4-11.3c-9.1-38.5-32.8-62.5-71.4-71.7c-6.2-1.5-6.9-1.1-8.4,4.9
				c-8.8,33.5-1,63,22.7,87.9c15.6,16.4,31.9,32.1,48,48.1C394.1,358.1,397.3,361,401.2,364.7z M372.1,391.9c-0.8-1-1.4-2-2.1-2.8
				c-19.1-19.1-37.5-38.9-57.4-57c-24.5-22.3-53.7-28.6-85.9-19.9c-4.1,1.1-5.6,3.1-4.6,7.1c0.3,1.3,0.6,2.6,0.9,3.9
				c8,35.3,37.5,64.7,73.4,68.6c24.7,2.7,49.9,0.8,74.8,0.9C371.3,392.7,371.4,392.5,372.1,391.9z M442.3,405.3
				c1.1,1.5,1.6,2.5,2.4,3.2c18.4,18.6,36.4,37.6,55.4,55.5c24.8,23.3,54.1,30.6,87.2,22c3.8-1,6-2.2,5.2-7.1
				c-6.6-40.4-45.3-73.7-86.3-74c-19.5-0.1-39,0-58.5,0C446.2,405,444.6,405.2,442.3,405.3z M414.1,434.1c-0.5,1.1-0.9,1.5-0.9,2
				c0.2,23.1-1,46.4,0.9,69.4c3.4,39.8,34.9,72.3,73.7,78.7c3,0.5,4.8,0.1,5.8-3.4c9.3-33.2,2.4-62.8-20.9-87.9
				c-17.7-19-36.6-36.9-55-55.3C416.7,436.4,415.6,435.4,414.1,434.1z M372.8,404.9c-3,0-4.8,0-6.6,0c-17.7,0-35.3,0-53,0
				c-45.4,0-82.1,30.3-90.7,74.8c-0.7,3.6,0.2,5,3.7,6c32.2,9.1,61.4,2.7,86-19.6c20.1-18.2,38.6-38.2,57.8-57.4
				C370.7,407.8,371.3,406.8,372.8,404.9z M441.8,393c24.4,0,47.3,1.6,69.9-0.4c41.3-3.6,72.1-32.8,80.4-73.1
				c0.8-3.8,0.1-5.7-3.9-6.8c-33.9-9.3-63.6-1.3-88.8,22.6c-18.1,17.2-35.4,35.2-53.1,52.9C445.1,389.4,444,390.7,441.8,393z
				 M413,362.9c0.5,0.2,0.9,0.5,1.4,0.7c1.2-1.1,2.3-2.1,3.5-3.3c18.3-18.3,37.1-36,54.7-54.9c23.3-25.1,30.2-54.7,20.9-87.9
				c-0.9-3.2-2.4-4.1-5.8-3.5c-42.6,7.7-74.6,46.1-74.6,89.5c0,15.7,0,31.3,0,47C413,354.7,413,358.8,413,362.9z M401.5,433.6
				c-2.3,2.1-3.6,3.2-4.7,4.3c-18,18-36.5,35.6-53.9,54.1c-23.6,25.1-30.9,54.7-21.7,88.1c0.9,3.4,2.4,4.5,6,3.9
				c35.6-6.3,66-35.3,72-70.8c2.3-13.5,1.8-27.5,2.2-41.2C401.8,459.7,401.5,447.4,401.5,433.6z M407.7,388.9
				c-3.7,3.7-7,7.2-9.9,10.1c3,3.4,6.1,7,9,10.3c3.9-3.6,7.3-6.9,10.8-10.2C414.1,395.5,410.8,392.1,407.7,388.9z"/>
			<path class="st0" d="M1983.3,339c-2.2,5.7-6.4,7.1-12.3,7.1c-40.1-0.2-80.3-0.1-120.4-0.1c-2,0-3.9,0-7,0c1.8,5,2.9,9.5,4.8,13.6
				c13.7,29.3,45.8,41.8,77.6,30.2c9.9-3.6,19.2-8.4,26.4-16.5c0.2-0.2,0.4-0.5,0.7-0.7c3.5-2.9,9-0.7,16.2,6.3
				c3.1,3,2.2,5.9-0.3,8.8c-12.6,14.9-28.9,23.3-47.8,26.6c-29.4,5.2-55.9-0.8-77-22.8c-22.8-23.7-29.1-52.2-18.4-83.1
				c10.6-30.5,33-48.8,65.1-53.4c46.1-6.6,87.2,26.6,91.4,73.2c0.1,1.3,0.6,2.5,0.9,3.8C1983.3,334.3,1983.3,336.7,1983.3,339z
				 M1844.5,323.8c38.4,0,76.7,0,115,0c-2.1-24.8-29.4-47.6-56.8-47.9C1874.3,275.7,1846.9,298.2,1844.5,323.8z"/>
			<path class="st0" d="M757.1,313.6c0-56.4,45.8-102.1,102-101.8c56.8,0.3,101.9,45.8,101.8,102.6c0,55.7-46.2,101.5-102.2,101.4
				C802.5,415.8,757.1,370.1,757.1,313.6z M858.8,394c44.3,0,80.6-36.3,80.5-80.4c-0.1-44-36.2-80-80.3-80
				c-44.3,0-80.8,36.4-80.5,80.3C778.8,358,814.9,394,858.8,394z"/>
			<path class="st0" d="M1692.1,278.7c9.2-11.9,20.5-19.6,34.7-23.1c36-8.7,72.1,19.2,72.3,56.2c0.2,29.7,0,59.3,0,89
				c0,6.1-1.2,7.3-7.3,7.4c-14.4,0.4-14.4,0.4-14.4-13.9c0-27.2,0.1-54.3,0-81.5c-0.1-18.5-13.5-33.7-31.9-36.7
				c-16.9-2.7-34.4,7.6-40.2,24.4c-1.7,4.9-2.2,10.4-2.3,15.7c-0.2,28-0.1,56-0.1,84c0,6.7-1.2,7.9-7.8,8
				c-15.2,0.2-13.8,0-13.8-13.4c0-27.2,0.1-54.3,0-81.5c-0.1-17.5-12-32.5-28.6-36.5c-16.9-4-34.2,3.7-41.8,19.6
				c-2.4,5.1-3.8,11.1-3.8,16.8c-0.4,28.5-0.2,57-0.2,85.5c0,8.4-1.1,9.4-9.5,9.5c-12.4,0-12.4,0-12.4-12.4c0-28.5-0.4-57,0.3-85.5
				c0.6-24.7,16.6-45.3,39.5-53.1c23.1-7.9,48.2-0.9,64.3,17.9C1690,276.2,1690.8,277.2,1692.1,278.7z"/>
			<path class="st0" d="M1482.1,254.1c44.7,0,80.9,36.3,80.8,81.1c-0.1,44.9-36.4,80.6-81.8,80.6c-43.9,0-80-36.4-80-80.8
				C1401.1,290.2,1437.2,254.1,1482.1,254.1z M1422.9,335.2c0.2,32.6,26.9,59.1,59.4,58.9c32.4-0.1,58.9-27.1,58.8-59.6
				c-0.2-32.2-26.9-58.7-59.2-58.7C1449.4,275.9,1422.8,302.7,1422.9,335.2z"/>
			<path class="st0" d="M1127.3,307.2c0,12.5,0,25,0,37.5c-0.1,36.9-28.5,68.3-63.7,71.4c-43.7,3.8-74.2-28-78.3-60.5
				c-0.5-3.8-0.8-7.6-0.8-11.4c-0.1-26.2,0-52.3,0-78.5c0-7.5,1-8.5,8.7-8.5c13.1,0,13.1,0,13.1,13.3c0,24.8,0,49.7,0,74.5
				c0,26.8,20.6,48.2,47.9,49.8c24.5,1.5,47.9-18.4,51.1-43.4c0.3-2,0.2-4,0.2-6c0-26.5,0-53,0-79.5c0-7.5,1.3-8.7,8.6-8.8
				c13.2,0,13.2,0,13.2,13C1127.3,282.5,1127.3,294.9,1127.3,307.2z"/>
			<path class="st0" d="M1327.6,416c-42.9,0-77.7-32.2-80.7-76.1c-2.8-41.2,25.9-77.5,67.2-84.5c23.7-4.1,45.2,1.9,64.2,16.7
				c5.5,4.3,5.6,6.7,0.6,11.7c-8.3,8.1-7.3,10.3-19.1,2.3c-20.9-14.2-46.7-13.2-66.9,1.4c-19.4,14-28.4,38.7-22.5,62.4
				c5.7,23.1,25.9,41,50.2,44c16.1,2,30.7-2.5,43.6-12.3c5.1-3.8,6.4-3.8,11,0.7c0.1,0.1,0.2,0.2,0.4,0.4
				c9.4,8.9,10.9,10.2-1.9,19.1C1359.7,411.3,1344.4,416,1327.6,416z"/>
			<path class="st0" d="M1178.1,258c7.7,0,14.8,0,21.9,0c8.7,0,17.3,0.1,26,0c4.5-0.1,6.4,1.8,6.3,6.3c-0.1,3-0.1,6,0,9
				c0.2,4.9-2.6,6.4-6.9,6.4c-13.7,0-27.3,0-41,0c-1.8,0-3.6,0-6.1,0c0,2.2,0,4,0,5.8c0,18.3,0,36.6,0,55
				c0.1,28.9,23.9,54.1,52.8,55.9c8.2,0.5,8.9,1.3,8.9,9.6c0,12.5-0.2,12.8-12.4,12.1c-33.2-1.9-61.9-26.8-69-60.2
				c-1.3-6.1-2-12.5-2-18.8c-0.2-38-0.1-76-0.1-113.9c0-7.5,1.2-8.7,8.7-8.7c13,0,13,0,13,13.2
				C1178.1,238.9,1178.1,248.2,1178.1,258z"/>
			<path class="st0" d="M984.7,568.1c0,5.2,0,9.7,0,14.4c-1.9,0.1-3.5,0.3-5.1,0.3c-21.7,0-43.3-0.1-65,0.1c-4.2,0-5.3-1.3-5.3-5.4
				c0.2-29.5,0.2-59,0-88.5c0-4.2,1.4-5.4,5.4-5.4c21.3,0.2,42.7,0.1,64,0c4,0,5.9,1,5.5,5.3c-0.3,2.9-0.1,5.9-0.1,9.4
				c-2.2,0.1-4,0.2-5.7,0.2c-15.7,0-31.3,0.1-47-0.1c-3.7,0-5.1,1.1-5,4.8c0.2,7.1,0.1,14.2,0.1,21.9c11.2,0,21.7,0,32.2,0
				c4.8,0,9.7,0.2,14.5-0.1c3.4-0.2,4.2,1.2,4.4,4.4c0.4,11.1,0.5,11.1-10.5,11.1c-13.1,0-26.3,0-40.3,0c0,8.6-0.1,16.8,0.2,25
				c0,0.9,2.9,2.3,4.5,2.3c15.7,0.2,31.3,0.1,47,0.1C980.3,568.1,982.3,568.1,984.7,568.1z"/>
			<path class="st0" d="M857.7,525c0.1-2,0.4-4,0.4-5.9c0-10,0.1-20,0-30c-0.1-3.8,1.1-5.4,5.1-5.3c14.7,0.3,11.9-1.6,12,11.7
				c0.2,26.8,0.1,53.6,0.1,80.5c0,2,0,4,0,6.8c-5.2,0-10.1,0.2-15-0.2c-0.8-0.1-1.9-2.8-2-4.3c-0.2-10.7-0.2-21.3,0-32
				c0.1-4.1-1.2-5.5-5.4-5.5c-13,0.2-26,0.2-39,0c-3.7,0-4.9,1.1-4.8,4.8c0.2,11,0,22,0.1,33c0.1,3.3-1.1,4.4-4.3,4.3
				c-4.1-0.2-8.3,0-12.8,0c-0.2-1.9-0.4-3.3-0.4-4.7c0-29.7,0.1-59.3-0.1-89c0-4.1,1.2-5.5,5.3-5.5c12.2,0,12.2-0.2,12.2,12.1
				c0,9.6,0,19.2,0,29.2C825.4,525,841.3,525,857.7,525z"/>
			<path class="st0" d="M1387.4,582.9c0-12.3,0-23.7,0-35.2c0-6.8,0-6.8-6.9-6.8c-12.5,0-25,0.1-37.5-0.1c-3.9-0.1-5.2,1.2-5.1,5.1
				c0.2,12,0.1,24,0.1,36.5c-5.8,0-11.3,0-17.1,0c-0.1-1.8-0.2-3.4-0.2-5.1c0-29.3,0.1-58.7-0.1-88c0-4.5,1.5-5.6,5.7-5.6
				c11.8,0.1,11.8-0.1,11.8,11.9c0,9.6,0,19.3,0,29.2c1.6,0.2,2.9,0.4,4.2,0.4c13.5,0,27-0.1,40.5,0.1c3.8,0.1,4.9-1.2,4.8-4.9
				c-0.2-10.7,0-21.3-0.1-32c0-3.4,0.9-4.8,4.5-4.8c15.1,0.3,12.5-1.7,12.6,12.2c0.1,26.8-0.1,53.7,0.1,80.5c0,4.9-1.2,7.1-6.4,6.5
				C1394.9,582.6,1391.6,582.9,1387.4,582.9z"/>
			<path class="st0" d="M1110,582.8c-5.9,0-11,0.2-16-0.1c-1.2-0.1-2.6-1.8-3.2-3.1c-2.5-5.4-5-10.9-7.1-16.5
				c-1.2-3.1-2.9-4.3-6.3-4.3c-13.1,0.2-26.3,0.2-39.4,0c-3.6-0.1-5.4,1.4-6.7,4.6c-2.2,5.6-4.6,11-7.2,16.4
				c-0.6,1.2-2.2,2.8-3.4,2.9c-4.8,0.3-9.6,0.1-15.1,0.1c0.7-2,1.1-3.3,1.7-4.6c13.4-30.2,26.9-60.4,40.2-90.7
				c1.5-3.5,3.6-4,7.1-4.5c9-1.4,12.9,2.6,16.3,10.6c11.8,28,24.5,55.6,36.9,83.4C1108.5,578.7,1109,580.3,1110,582.8z
				 M1075.3,543.6c-6-13.5-11.6-26.2-17.2-38.9c-0.5,0-1,0.1-1.5,0.1c-5.6,12.8-11.2,25.6-17,38.8
				C1051.9,543.6,1063.1,543.6,1075.3,543.6z"/>
			<path class="st0" d="M1258.5,541.4c0,12-0.1,24,0.1,36c0.1,3.9-0.9,5.6-5.2,5.6c-12.2-0.1-12.2,0.1-12.2-12
				c0-21.8-0.2-43.6,0.1-65.4c0.1-5.2-1.6-6.6-6.6-6.4c-7.1,0.4-14.3,0-21.5,0.1c-3.3,0.1-4.8-0.9-4.6-4.5
				c0.4-12.5-2-10.8,10.8-10.9c21.8-0.1,43.6,0.1,65.4-0.1c4.5,0,6.6,0.8,6.3,6c-0.6,10.5,1.9,9.4-9.6,9.5c-5.5,0.1-11,0.3-16.5-0.1
				c-4.9-0.3-6.7,1.1-6.6,6.4C1258.7,517.4,1258.5,529.4,1258.5,541.4z"/>
			<path class="st0" d="M1204,582.7c-23.8,0-46.7,0-70.3,0c-0.1-1.8-0.3-3.6-0.3-5.3c0-29.3,0.1-58.6-0.1-87.9
				c0-4.4,1.2-5.8,5.6-5.7c13.4,0.4,11.5-1.5,11.5,11.3c0.1,22.3,0.1,44.6-0.1,66.9c0,4.6,1.5,6,6,5.9c13.6-0.2,27.3-0.1,41-0.1
				c6.7,0,6.7,0,6.7,6.9C1204,577.2,1204,579.6,1204,582.7z"/>
		</g>
	</g>
</g>
</svg>
