<?xml version="1.0" encoding="utf-8"?>
<!-- Generator: Adobe Illustrator 21.1.0, SVG Export Plug-In . SVG Version: 6.00 Build 0)  -->
<svg version="1.1" id="Layer_1" xmlns="http://www.w3.org/2000/svg" xmlns:xlink="http://www.w3.org/1999/xlink" x="0px" y="0px"
	 viewBox="0 0 500 500" style="enable-background:new 0 0 500 500;" xml:space="preserve">
<style type="text/css">
	.st0{fill-rule:evenodd;clip-rule:evenodd;fill:#C9C9C9;}
</style>
<path class="st0" d="M462.1,318.3H309.9v143.8c0,8.8-7.2,16-16,16h-96.1c-8.8,0-16-7.2-16-16V318.3H37.6c-8.8,0-16-7.2-16-16v-95.9
	c0-8.8,7.2-16,16-16h144.2V38.7c0-8.8,7.2-16,16-16h96.1c8.8,0,16,7.2,16,16v151.8h152.2c8.8,0,16,7.2,16,16v95.9
	C478.1,311.2,470.9,318.3,462.1,318.3z"/>
</svg>
