<svg xmlns="http://www.w3.org/2000/svg" viewBox="0 0 500 500">
  <style type="text/css">
  	.st0{fill-rule:evenodd;clip-rule:evenodd;fill:#FFFFFF;}
  </style>
  <circle class="st0" cx="250.2" cy="250.2" r="105.2"/>
  <path class="st1" d="M250.2,145c58.1,0,105.2,47.1,105.2,105.2s-47.1,105.2-105.2,105.2S145,308.4,145,250.2S192.1,145,250.2,145
  	 M250.2,116c-35.9,0-69.6,14-94.9,39.3C130,180.7,116,214.4,116,250.2s14,69.6,39.3,94.9s59.1,39.3,94.9,39.3s69.6-14,94.9-39.3
  	s39.3-59.1,39.3-94.9s-14-69.6-39.3-94.9S286.1,116,250.2,116L250.2,116z"/>
  <path class="st2" d="M445.4,122.2L265.9,301.7c-5.5,5.5-14.4,5.5-19.9,0c-1.1-1.1-1.8-2.3-2.5-3.5l-59.8-59.8
  	c-5.5-5.5-5.5-14.4,0-19.9c5.5-5.5,14.4-5.5,19.9,0l52.8,52.8l169-169c5.5-5.5,14.4-5.5,19.9,0C450.9,107.8,450.9,116.7,445.4,122.2
  	z"/>
</svg>
